<?xml version="1.0" standalone="no"?>
<!DOCTYPE svg PUBLIC "-//W3C//DTD SVG 1.1//EN" "http://www.w3.org/Graphics/SVG/1.1/DTD/svg11.dtd" >
<svg>
<metadata>
Created by FontForge 20090622 at Wed Jan 13 09:13:29 2016
 By deploy user
&#194;&#169; 1989, 1992, 1994, 1996, 1998, 1999, 2000, 2001 Adobe Systems Incorporated. All rights reserved.
</metadata>
<defs>
<font id="AGaramondPro-Bold" horiz-adv-x="400" >
  <font-face 
    font-family="Adobe Garamond Pro Bold"
    font-weight="700"
    font-stretch="normal"
    units-per-em="1000"
    panose-1="2 2 7 2 6 5 6 2 4 3"
    ascent="725"
    descent="-275"
    x-height="403"
    cap-height="663"
    bbox="-158 -302 1147 899"
    underline-thickness="50"
    underline-position="-50"
    unicode-range="U+0020-U+FB04"
  />
<missing-glyph horiz-adv-x="500" 
d="M0 0v700h500v-700h-500zM250 395l170 255h-340zM280 350l170 -255v510zM80 50h340l-170 255zM50 605v-510l170 255z" />
    <glyph glyph-name="T_h" unicode="Th" horiz-adv-x="1104" 
d="M265 144v441q0 19 -3.5 24t-20.5 5h-72q-51 0 -74.5 -25t-49.5 -88q-9 -5 -21 -2.5t-16 11.5q9 31 15.5 62.5t11.5 65.5t6 42q7 5 14 5q9 0 14 -4q4 -14 17 -17.5t67 -3.5h392q88 0 95 14v10l116 31q11 0 17 -7q-3 -62 -3 -146v-184q0 -12 7 -12q3 0 16 8q59 40 115 40
q60 0 93 -35.5t33 -90.5v-172q0 -52 6.5 -65.5t33.5 -16.5l16 -2q6 -4 6 -17.5t-7 -17.5q-47 3 -121 3q-75 0 -108 -3q-7 4 -7 17.5t6 17.5l18 3q18 3 22.5 14t4.5 52v173q0 29 -17.5 48t-52.5 19q-39 0 -56 -24q-8 -9 -8 -37v-179q0 -41 4.5 -52t22.5 -14l18 -3
q6 -4 6 -17.5t-7 -17.5q-46 3 -111 3q-66 0 -117 -3q-7 4 -7 17.5t6 17.5l18 2q25 3 31 16.5t6 65.5v416q0 48 -24 65t-106 17h-75q-18 0 -22.5 -5t-4.5 -24v-441q0 -69 8.5 -85.5t42.5 -21.5l40 -5q5 -5 5 -17.5t-5 -17.5q-97 3 -160 3q-65 0 -170 -3q-6 5 -6 18t6 17l45 5
q34 4 42.5 21t8.5 86z" />
    <glyph glyph-name="Tcaron_h" unicode="&#x164;h" horiz-adv-x="1104" 
d="M265 144v441q0 19 -3.5 24t-20.5 5h-72q-51 0 -74.5 -25t-49.5 -88q-9 -5 -21 -2.5t-16 11.5q9 31 15.5 62.5t11.5 65.5t6 42q7 5 14 5q9 0 14 -4q4 -14 17 -17.5t67 -3.5h392q88 0 95 14v10l116 31q11 0 17 -7q-3 -62 -3 -146v-184q0 -12 7 -12q3 0 16 8q59 40 115 40
q60 0 93 -35.5t33 -90.5v-172q0 -52 6.5 -65.5t33.5 -16.5l16 -2q6 -4 6 -17.5t-7 -17.5q-47 3 -121 3q-75 0 -108 -3q-7 4 -7 17.5t6 17.5l18 3q18 3 22.5 14t4.5 52v173q0 29 -17.5 48t-52.5 19q-39 0 -56 -24q-8 -9 -8 -37v-179q0 -41 4.5 -52t22.5 -14l18 -3
q6 -4 6 -17.5t-7 -17.5q-46 3 -111 3q-66 0 -117 -3q-7 4 -7 17.5t6 17.5l18 2q25 3 31 16.5t6 65.5v416q0 48 -24 65t-106 17h-75q-18 0 -22.5 -5t-4.5 -24v-441q0 -69 8.5 -85.5t42.5 -21.5l40 -5q5 -5 5 -17.5t-5 -17.5q-97 3 -160 3q-65 0 -170 -3q-6 5 -6 18t6 17l45 5
q34 4 42.5 21t8.5 86zM194 856l121 -50q20 -8 35 -1l120 51q7 0 11 -8.5t2 -17.5l-129 -117q-23 -20 -44 0l-128 117q-1 9 3 17t9 9z" />
    <glyph glyph-name="uni021A_h" unicode="&#x21a;h" horiz-adv-x="1104" 
d="M265 144v441q0 19 -3.5 24t-20.5 5h-72q-51 0 -74.5 -25t-49.5 -88q-9 -5 -21 -2.5t-16 11.5q9 31 15.5 62.5t11.5 65.5t6 42q7 5 14 5q9 0 14 -4q4 -14 17 -17.5t67 -3.5h392q88 0 95 14v10l116 31q11 0 17 -7q-3 -62 -3 -146v-184q0 -12 7 -12q3 0 16 8q59 40 115 40
q60 0 93 -35.5t33 -90.5v-172q0 -52 6.5 -65.5t33.5 -16.5l16 -2q6 -4 6 -17.5t-7 -17.5q-47 3 -121 3q-75 0 -108 -3q-7 4 -7 17.5t6 17.5l18 3q18 3 22.5 14t4.5 52v173q0 29 -17.5 48t-52.5 19q-39 0 -56 -24q-8 -9 -8 -37v-179q0 -41 4.5 -52t22.5 -14l18 -3
q6 -4 6 -17.5t-7 -17.5q-46 3 -111 3q-66 0 -117 -3q-7 4 -7 17.5t6 17.5l18 2q25 3 31 16.5t6 65.5v416q0 48 -24 65t-106 17h-75q-18 0 -22.5 -5t-4.5 -24v-441q0 -69 8.5 -85.5t42.5 -21.5l40 -5q5 -5 5 -17.5t-5 -17.5q-97 3 -160 3q-65 0 -170 -3q-6 5 -6 18t6 17l45 5
q34 4 42.5 21t8.5 86zM318 -45q30 0 57 -25.5t27 -73.5q0 -58 -36.5 -93t-94.5 -47q-10 1 -12.5 15t4.5 18q25 9 46.5 28.5t21.5 42.5q0 38 -44 50q-24 7 -24 35q0 21 16 35.5t39 14.5z" />
    <glyph glyph-name="f_f_j" unicode="ffj" horiz-adv-x="837" 
d="M59 346h-37q-4 3 -5.5 13t2.5 14l43 22q22 12 22 26q0 79 28 140q60 130 206 130q85 0 121 -35q59 59 166 59q74 0 120 -29.5t46 -73.5q0 -30 -21 -47.5t-50 -17.5q-32 0 -45 21q-4 6 -13 25t-14 27q-26 45 -62 45q-19 0 -34 -14t-26.5 -57t-11.5 -113v-56q0 -19 3.5 -22
t22.5 -3h77q130 0 165 8q16 0 17 -15q-5 -53 -5 -115v-162v-63q0 -108 -21 -161q-22 -57 -65.5 -93.5t-135.5 -67.5q-11 4 -15 15t1 18q31 16 49 36q57 57 57 232v84v143q0 59 -8 73t-44 14h-72q-18 0 -22 -4t-4 -24v-202q0 -54 6 -67t31 -17l13 -2q6 -4 6 -16.5t-7 -16.5
q-43 3 -116 3q-60 0 -108 -3q-7 4 -7 16.5t6 16.5l16 2q20 2 25 16t5 68v202q0 20 -3.5 24t-21.5 4h-99q-18 0 -23.5 -4.5t-2.5 -23.5v-202q0 -54 6 -67t31 -17l13 -2q6 -4 6 -16.5t-7 -16.5q-43 3 -116 3q-67 0 -115 -3q-7 4 -7 16.5t6 16.5l16 2q25 3 31 16.5t6 67.5v202
q0 20 -3.5 24t-21.5 4zM240 400h102q14 0 18 4t4 17q0 79 20 148q-7 29 -25.5 52.5t-48.5 23.5q-39 0 -67.5 -46t-28.5 -162v-9q0 -20 3.5 -24t22.5 -4z" />
    <glyph glyph-name="f_j" unicode="fj" horiz-adv-x="557" 
d="M84 116v202q0 20 -3.5 24t-21.5 4h-37q-4 3 -5.5 13t2.5 14l43 22q22 12 22 26q0 97 31 163q61 131 210 131q74 0 120 -29.5t46 -73.5q0 -30 -21 -47.5t-50 -17.5q-32 0 -45 21q-4 6 -13 25t-14 27q-26 45 -62 45q-19 0 -34 -14t-26.5 -57t-11.5 -113v-56q0 -19 3.5 -22
t22.5 -3h77q130 0 165 8q16 0 17 -15q-5 -53 -5 -115v-162v-63q0 -108 -21 -161q-22 -57 -65.5 -93.5t-135.5 -67.5q-11 4 -15 15t1 18q31 16 49 36q57 57 57 232v84v143q0 59 -8 73t-44 14h-72q-18 0 -22 -3.5t-4 -22.5v-204q0 -54 6 -67t31 -17l13 -2q6 -4 6 -16.5
t-7 -16.5q-43 3 -116 3q-67 0 -115 -3q-7 4 -7 16.5t6 16.5l16 2q25 3 31 16.5t6 67.5z" />
    <glyph glyph-name="f_f" unicode="ff" horiz-adv-x="591" 
d="M59 346h-37q-4 3 -5.5 13t2.5 14l43 22q22 12 22 26q0 79 28 140q60 130 205 130q81 0 117 -35q51 59 154 59q46 0 81.5 -22.5t35.5 -59.5q0 -25 -16 -39.5t-42 -14.5q-24 0 -40 18q-52 66 -71 66q-42 0 -42 -122v-113q0 -20 3.5 -24t22.5 -4h95q7 -4 7 -20
q0 -25 -13 -34h-89q-19 0 -22.5 -4t-3.5 -24v-202q0 -54 6 -67.5t31 -15.5l33 -3q6 -4 6 -16.5t-7 -16.5q-71 3 -134 3q-62 0 -110 -3q-7 4 -7 16.5t6 16.5l16 2q20 2 25 16t5 68v202q0 20 -3.5 24t-21.5 4h-99q-17 0 -21.5 -4.5t-4.5 -23.5v-202q0 -54 6 -67t31 -17l13 -2
q6 -4 6 -16.5t-7 -16.5q-43 3 -116 3q-67 0 -115 -3q-7 4 -7 16.5t6 16.5l16 2q25 3 31 16.5t6 67.5v202q0 20 -3.5 24t-21.5 4zM240 400h102q14 0 18 4t4 17q0 79 20 148q-7 29 -25.5 52.5t-48.5 23.5q-39 0 -67.5 -46t-28.5 -162v-9q0 -20 3.5 -24t22.5 -4z" />
    <glyph glyph-name="f_f_i" unicode="ffi" horiz-adv-x="846" 
d="M59 346h-37q-4 3 -5.5 13t2.5 14l43 22q22 12 22 26q0 79 28 140q60 130 206 130q85 0 121 -35q59 59 166 59q74 0 120 -29.5t46 -73.5q0 -30 -21 -47.5t-50 -17.5q-32 0 -45 21q-4 6 -13 25t-14 27q-26 45 -62 45q-19 0 -34 -14t-26.5 -57t-11.5 -113v-56q0 -19 3.5 -22
t22.5 -3h77q130 0 165 8q16 0 17 -15q-5 -53 -5 -115v-162q0 -54 6 -67.5t31 -16.5l16 -2q6 -4 6 -16.5t-7 -16.5q-46 3 -117 3q-62 0 -110 -3q-7 4 -7 16.5t6 16.5l16 2q20 2 25 16t5 68v143q0 59 -8 73t-44 14h-72q-18 0 -22 -4t-4 -24v-202q0 -54 6 -67t31 -17l13 -2
q6 -4 6 -16.5t-7 -16.5q-43 3 -116 3q-60 0 -108 -3q-7 4 -7 16.5t6 16.5l16 2q20 2 25 16t5 68v202q0 20 -3.5 24t-21.5 4h-99q-17 0 -21.5 -4.5t-4.5 -23.5v-202q0 -54 6 -67t31 -17l13 -2q6 -4 6 -16.5t-7 -16.5q-43 3 -116 3q-67 0 -115 -3q-7 4 -7 16.5t6 16.5l16 2
q25 3 31 16.5t6 67.5v202q0 20 -3.5 24t-21.5 4zM240 400h102q14 0 18 4t4 17q0 79 20 148q-7 29 -25.5 52.5t-48.5 23.5q-39 0 -67.5 -46t-28.5 -162v-9q0 -20 3.5 -24t22.5 -4z" />
    <glyph glyph-name="f_f_l" unicode="ffl" horiz-adv-x="846" 
d="M59 346h-37q-4 3 -5.5 13t2.5 14l43 22q22 12 22 26q0 79 28 140q60 130 205 130q81 0 117 -35q19 21 59.5 40t91.5 19q66 0 109 -30q32 11 66 30q11 0 17 -7q-3 -62 -3 -146v-446q0 -52 6 -65.5t31 -16.5l16 -2q6 -4 6 -17.5t-7 -17.5q-48 3 -117 3q-62 0 -110 -3
q-7 4 -7 16.5t6 16.5l16 2q20 2 25 16t5 68v205q0 18 -4 21.5t-23 3.5h-97q-19 0 -22.5 -4t-3.5 -24v-202q0 -54 6 -67t31 -17l13 -2q6 -4 6 -16.5t-7 -16.5q-43 3 -116 3q-67 0 -115 -3q-7 4 -7 17.5t6 17.5l16 2q25 3 31 16.5t6 65.5v202q0 20 -3.5 24t-21.5 4h-99
q-17 0 -21.5 -4.5t-4.5 -23.5v-202q0 -54 6 -67t31 -17l13 -2q6 -4 6 -16.5t-7 -16.5q-43 3 -116 3q-67 0 -115 -3q-7 4 -7 16.5t6 16.5l16 2q25 3 31 16.5t6 67.5v202q0 20 -3.5 24t-21.5 4zM240 400h102q14 0 18 4t4 17q0 79 20 148q-7 29 -25.5 52.5t-48.5 23.5
q-39 0 -67.5 -46t-28.5 -162v-9q0 -20 3.5 -24t22.5 -4zM520 400h97q19 0 23 3.5t4 21.5v161q0 28 -18 54.5t-49 26.5q-16 0 -29.5 -10t-26 -32.5t-20 -67t-7.5 -106.5v-23q0 -20 3.5 -24t22.5 -4z" />
    <glyph glyph-name="f_i" unicode="fi" horiz-adv-x="566" 
d="M84 116v202q0 20 -3.5 24t-21.5 4h-37q-4 3 -5.5 13t2.5 14l43 22q22 12 22 26q0 97 31 163q61 131 210 131q74 0 120 -29.5t46 -73.5q0 -30 -21 -47.5t-50 -17.5q-32 0 -45 21q-4 6 -13 25t-14 27q-26 45 -62 45q-19 0 -34 -14t-26.5 -57t-11.5 -113v-56q0 -19 3.5 -22
t22.5 -3h77q130 0 165 8q16 0 17 -15q-5 -53 -5 -115v-162q0 -54 6 -67.5t31 -16.5l16 -2q6 -4 6 -16.5t-7 -16.5q-48 3 -117 3q-62 0 -110 -3q-7 4 -7 16.5t6 16.5l16 2q20 2 25 16t5 68v143q0 59 -8 73t-44 14h-72q-18 0 -22 -3.5t-4 -22.5v-204q0 -54 6 -67t31 -17l13 -2
q6 -4 6 -16.5t-7 -16.5q-43 3 -116 3q-67 0 -115 -3q-7 4 -7 16.5t6 16.5l16 2q25 3 31 16.5t6 67.5z" />
    <glyph glyph-name="f_l" unicode="fl" horiz-adv-x="566" 
d="M59 346h-37q-4 3 -5.5 13t2.5 14l43 22q22 12 22 26q0 107 30 171q26 55 75.5 89t117.5 34q64 0 107 -30q32 11 66 30q11 0 17 -7q-3 -61 -3 -146v-446q0 -52 6 -65.5t31 -16.5l16 -2q6 -4 6 -17.5t-7 -17.5q-48 3 -117 3q-62 0 -110 -3q-7 4 -7 16.5t6 16.5l16 2
q20 2 25 16t5 68v205q0 18 -4 21.5t-23 3.5h-97q-19 0 -22.5 -4t-3.5 -24v-202q0 -54 6 -67t31 -17l13 -2q6 -4 6 -16.5t-7 -16.5q-43 3 -116 3q-67 0 -115 -3q-7 4 -7 17.5t6 17.5l16 2q25 3 31 16.5t6 65.5v202q0 20 -3.5 24t-21.5 4zM240 400h97q19 0 23 3.5t4 21.5v161
q0 28 -18 54.5t-49 26.5q-16 0 -29.5 -10t-26 -32.5t-20 -67t-7.5 -106.5v-23q0 -20 3.5 -24t22.5 -4z" />
    <glyph glyph-name=".notdef" horiz-adv-x="500" 
d="M0 0v700h500v-700h-500zM250 395l170 255h-340zM280 350l170 -255v510zM80 50h340l-170 255zM50 605v-510l170 255z" />
    <glyph glyph-name=".null" horiz-adv-x="0" 
 />
    <glyph glyph-name="nonmarkingreturn" horiz-adv-x="333" 
 />
    <glyph glyph-name="space" unicode=" " horiz-adv-x="240" 
 />
    <glyph glyph-name="exclam" unicode="!" horiz-adv-x="254" 
d="M127 646q41 0 60.5 -9.5t19.5 -33.5q0 -5 -16 -117l-42 -281q-9 -6 -22 -6t-22 6l-42 281q-16 112 -16 117q0 24 19.5 33.5t60.5 9.5zM127 -14q-32 0 -56.5 23t-24.5 58t23.5 59t57.5 24q35 0 58 -25t23 -58q0 -35 -22.5 -58t-58.5 -23z" />
    <glyph glyph-name="quotedbl" unicode="&#x22;" horiz-adv-x="472" 
d="M136 700q36 0 50 -6t14 -28q0 -11 -8 -57l-37 -205q-19 -14 -38 0l-37 205q-8 46 -8 57q0 22 14 28t50 6zM336 700q36 0 50 -6t14 -28q0 -11 -8 -57l-37 -205q-19 -14 -38 0l-37 205q-8 46 -8 57q0 22 14 28t50 6z" />
    <glyph glyph-name="numbersign" unicode="#" horiz-adv-x="520" 
d="M330 396h-96l-40 -147h97zM492 396h-99l-40 -147h88l-11 -64h-94l-51 -185h-60l49 185h-97l-51 -185h-59l49 185h-98l11 64h104l39 147h-99l12 65h104l44 165h64l-45 -165h95l44 165h65l-45 -165h90z" />
    <glyph glyph-name="dollar" unicode="$" horiz-adv-x="520" 
d="M255 406l21 175q-43 -3 -66 -27t-23 -60q0 -52 68 -88zM284 253l-24 -207q49 4 74 30t25 68q0 69 -75 109zM338 703l-9 -77q37 -2 113 -20q17 -49 17 -130q-4 -7 -16 -8.5t-18 5.5q-10 32 -35.5 63t-66.5 42l-23 -194l49 -21q54 -23 94.5 -68t40.5 -113
q0 -80 -61.5 -129.5t-168.5 -52.5l-11 -93q-5 -7 -24 -7t-24 7l11 95q-91 5 -138 38q-14 15 -23 55.5t-9 87.5q5 8 16 9t18 -7q14 -44 53 -85t89 -51l27 225l-32 14q-135 59 -135 167q-1 75 55.5 121.5t153.5 50.5l9 76q4 7 23.5 7t24.5 -7z" />
    <glyph glyph-name="percent" unicode="%" horiz-adv-x="866" 
d="M663 -12q-55 0 -93.5 33t-53 75t-14.5 86q0 72 40.5 133t120.5 61t120.5 -61t40.5 -133q0 -44 -14.5 -86t-53 -75t-93.5 -33zM601 183q0 -155 64 -155q60 0 60 155q0 153 -60 153q-64 0 -64 -153zM204 252q-55 0 -93.5 33t-53 75t-14.5 86q0 72 40.5 133t120.5 61
t120.5 -61t40.5 -133q0 -44 -14.5 -86t-53 -75t-93.5 -33zM142 447q0 -155 64 -155q60 0 60 155q0 153 -60 153q-64 0 -64 -153zM268 -40q-13 -3 -26.5 4t-18.5 20l370 670q12 2 26.5 -5t18.5 -19z" />
    <glyph glyph-name="ampersand" unicode="&#x26;" horiz-adv-x="825" 
d="M313 640q71 0 113.5 -38t42.5 -96q0 -13 -3 -25t-7 -21.5t-11.5 -18.5t-13 -15t-15.5 -13.5t-15 -10.5l-15 -9t-12 -7q70 -37 149 -140q30 52 53 106q25 57 25 70t-27 18l-18 3q-7 4 -6 18t9 17h41q41 0 197 6q8 -3 9 -16.5t-7 -18.5l-27 -4q-38 -6 -67 -30
q-16 -12 -75 -100l-60 -91q-12 -17 -14 -26h2q0 2 1 0l5.5 -10.5t10.5 -18.5q4 -5 19.5 -27.5t23.5 -30.5t24.5 -22t36 -19.5t44.5 -5.5q50 0 90 27q6 -2 10 -10t2 -15q-25 -30 -76.5 -55t-122.5 -25q-49 0 -81 12.5t-43 30.5q-2 4 -9 14t-13.5 20.5t-10.5 20.5
q-51 -49 -95 -73.5t-107 -24.5q-98 0 -156 50t-58 129q0 41 16 76t42.5 58.5t49.5 37.5t47 24q-65 51 -65 120q0 72 51 115.5t116 43.5zM189 203q0 -62 39 -99t96 -37q33 0 63.5 15.5t44 30t13.5 17.5q0 1 -16 29q-51 87 -149 150q-21 14 -24 14q-5 0 -19.5 -12.5t-31 -42
t-16.5 -65.5zM375 520q0 31 -15.5 53.5t-44.5 22.5q-26 0 -43 -21t-17 -52q0 -25 10.5 -46t25 -33.5t25.5 -19.5t16 -8q11 4 27 35t16 69z" />
    <glyph glyph-name="quotesingle" unicode="'" horiz-adv-x="253" 
d="M127 700q36 0 50 -6t14 -28q0 -11 -8 -57l-37 -205q-19 -14 -38 0l-37 205q-8 46 -8 57q0 22 14 28t50 6z" />
    <glyph glyph-name="parenleft" unicode="(" horiz-adv-x="340" 
d="M181 270q0 -120 36.5 -233t112.5 -181q0 -18 -17 -19q-112 61 -170.5 179.5t-58.5 253.5t58.5 253.5t170.5 179.5q17 -1 17 -19q-76 -68 -112.5 -181t-36.5 -233z" />
    <glyph glyph-name="parenright" unicode=")" horiz-adv-x="340" 
d="M159 270q0 120 -36.5 233t-112.5 181q0 18 17 19q112 -61 170.5 -179.5t58.5 -253.5t-58.5 -253.5t-170.5 -179.5q-17 1 -17 19q76 68 112.5 181t36.5 233z" />
    <glyph glyph-name="asterisk" unicode="*" horiz-adv-x="405" 
d="M231 539l124 66q8 -2 13 -11t3 -20l-114 -80l113 -78q5 -21 -14 -31l-125 64l-13 -132q-4 -4 -15 -4t-16 4l-13 132l-127 -64q-7 3 -11 11.5t-2 16.5l115 81l-115 81q-2 8 2 16.5t11 12.5l127 -65l13 133q17 10 31 0z" />
    <glyph glyph-name="plus" unicode="+" horiz-adv-x="520" 
d="M305 0h-88v177h-157v72h157v159h88v-159h156v-72h-156v-177z" />
    <glyph glyph-name="comma" unicode="," horiz-adv-x="260" 
d="M116 168q38 0 70.5 -32.5t32.5 -96.5q0 -70 -46.5 -114.5t-117.5 -60.5q-13 1 -16.5 14t5.5 18q35 13 62 38.5t27 58.5q0 49 -58 65q-31 9 -31 45q0 27 21 46t51 19z" />
    <glyph glyph-name="hyphen" unicode="-" horiz-adv-x="328" 
d="M45 237l239 22q14 -16 14 -42q0 -23 -13 -39l-240 -22q-15 15 -15 40q0 22 15 41z" />
    <glyph glyph-name="period" unicode="." horiz-adv-x="260" 
d="M130 -14q-32 0 -56.5 23t-24.5 58t23.5 59t57.5 24q35 0 58 -25t23 -58q0 -35 -22.5 -58t-58.5 -23z" />
    <glyph glyph-name="slash" unicode="/" horiz-adv-x="339" 
d="M319 676l-209 -692h-90l209 692h90z" />
    <glyph glyph-name="zero" unicode="0" horiz-adv-x="520" 
d="M260 640q77 0 131 -50.5t77 -122.5t23 -154q0 -85 -23 -156.5t-77 -121t-131 -49.5t-131 49.5t-77 121t-23 156.5q0 82 23 154t77 122.5t131 50.5zM175 313q0 -42 3 -82.5t11 -89.5t26 -79t45 -30t45 30t26 79t11 89.5t3 82.5t-3 82.5t-11 89.5t-26 79t-45 30t-45 -30
t-26 -79t-11 -89.5t-3 -82.5z" />
    <glyph glyph-name="one" unicode="1" horiz-adv-x="520" 
d="M330 510v-381q0 -60 9 -75.5t46 -18.5l41 -3q7 -4 6 -18.5t-8 -16.5q-54 3 -158 3q-108 0 -162 -3q-7 2 -8 16.5t6 18.5l41 3q37 3 46 18.5t9 75.5v323q0 51 -8 67t-40 20l-46 6q-7 4 -7.5 17.5t5.5 17.5q56 8 128 28q19 6 40 14l33.5 13t15.5 5q11 0 14 -11
q-3 -35 -3 -119z" />
    <glyph glyph-name="two" unicode="2" horiz-adv-x="520" 
d="M221 103h121q57 0 75 8t39 47q5 6 18 4.5t16 -10.5q-7 -45 -21.5 -90.5t-27.5 -64.5q-60 3 -140 3h-159q-86 0 -112 -3q-14 3 -10 22q92 85 155 154q62 68 96.5 131t34.5 136q0 53 -30 87.5t-79 34.5q-75 0 -129 -92q-9 -6 -20.5 -2t-12.5 16q30 74 92.5 115t137.5 41
q86 0 137.5 -48.5t51.5 -121.5q0 -60 -31.5 -112t-119.5 -135l-48 -45q-53 -49 -53 -63q0 -12 19 -12z" />
    <glyph glyph-name="three" unicode="3" horiz-adv-x="520" 
d="M213 577q-68 0 -123 -83q-10 -3 -19 3.5t-9 15.5q30 60 85.5 93.5t123.5 33.5q73 0 116 -32t43 -83q0 -36 -25.5 -66.5t-100.5 -62.5q-12 -6 -1 -11q4 -2 10 -2q69 2 118.5 -41.5t49.5 -113.5q0 -119 -115 -204q-111 -80 -231 -80q-45 0 -76.5 17.5t-31.5 53.5
q0 22 16 38.5t44 16.5q7 0 14 -2t13.5 -6.5t11 -8.5t9.5 -10l8 -9.5t6.5 -9.5t4.5 -7q15 -23 43 -23q41 0 87.5 48.5t46.5 131.5q0 67 -32 110t-85 43t-99 -42q-15 3 -22.5 17t-0.5 31q115 43 161 81q42 35 42 90q0 29 -23 51t-59 22z" />
    <glyph glyph-name="four" unicode="4" horiz-adv-x="520" 
d="M277 129v28q0 20 -3.5 24.5t-19.5 4.5h-231q-18 8 -11 32l325 464q17 24 33 24h29q30 0 10 -27l-300 -416q-8 -10 -4 -15.5t26 -5.5h123q16 0 19.5 4.5t3.5 24.5v140q0 28 22 36q73 31 97 31q13 0 13 -17v-190q0 -20 3.5 -24.5t19.5 -4.5h66q11 -6 11 -27.5t-11 -28.5
h-66q-16 0 -19.5 -4.5t-3.5 -24.5v-28q0 -61 8.5 -76.5t41.5 -18.5l21 -2q7 -4 6 -18.5t-8 -16.5q-54 3 -135 3q-109 0 -160 -3q-7 2 -8 16.5t6 18.5l41 3q37 3 46 18t9 76z" />
    <glyph glyph-name="five" unicode="5" horiz-adv-x="520" 
d="M165 622l265 32q11 0 11 -12q-15 -65 -55 -103l-226 -25q-17 -2 -23 -29l-6 -23q-4 -16 3 -21.5t24 -7.5q137 -16 204 -49q46 -23 76 -66t30 -101q0 -138 -144 -216q-115 -62 -271 -66q-11 5 -13.5 22.5t7.5 24.5q134 6 200 45q93 55 93 135q0 41 -17.5 71.5t-40.5 46.5
t-62 27t-64.5 14.5t-65.5 6.5q-23 1 -29 8.5t-1 25.5l60 230q5 18 12 22.5t33 7.5z" />
    <glyph glyph-name="six" unicode="6" horiz-adv-x="520" 
d="M29 254q0 84 35 164t96 138q59 57 144.5 95t173.5 42q8 -5 9 -15.5t-6 -19.5q-87 -21 -136.5 -53t-94.5 -87q-75 -93 -75 -255q0 -89 29 -160t81 -71q41 0 58.5 34.5t17.5 78.5q0 39 -10 80t-37 75.5t-67 34.5q-6 1 -23 -1q-9 6 -7 18q14 16 44.5 30t55.5 14
q88 0 134 -55t46 -134q0 -99 -62.5 -160t-166.5 -61q-112 0 -175.5 74t-63.5 194z" />
    <glyph glyph-name="seven" unicode="7" horiz-adv-x="520" 
d="M169 626h192q125 0 145 3q11 -3 9 -16q-33 -49 -99 -165l-288 -510q-14 -3 -30.5 6.5t-17.5 24.5l263 457q33 58 33 79q0 16 -29 16h-212q-43 0 -58 -8.5t-33 -40.5q-6 -7 -18.5 -4t-15.5 11q11 32 39 150q50 -3 120 -3z" />
    <glyph glyph-name="eight" unicode="8" horiz-adv-x="520" 
d="M255 -14q-93 0 -156 42t-63 120q0 99 132 166q-106 58 -106 154q0 75 56.5 123.5t148.5 48.5q86 0 139.5 -42.5t53.5 -113.5q0 -48 -29 -78.5t-80 -59.5q134 -68 134 -187q0 -75 -59 -124t-171 -49zM271 32q35 0 59 25.5t24 68.5q0 55 -34.5 91.5t-103.5 68.5
q-51 -51 -51 -127q0 -54 29 -90.5t77 -36.5zM265 594q-35 0 -58 -26.5t-23 -66.5q0 -74 116 -124q48 29 48 109q0 49 -25.5 78.5t-57.5 29.5z" />
    <glyph glyph-name="nine" unicode="9" horiz-adv-x="520" 
d="M250 640q111 0 174.5 -74t63.5 -183q0 -177 -138 -304q-61 -57 -148.5 -97t-151.5 -42q-9 4 -10 16t6 17q141 35 218.5 145.5t77.5 254.5q0 32 -5 67t-16 71.5t-33 59.5t-52 23q-34 0 -54 -34.5t-20 -82.5q0 -67 26.5 -119t74.5 -61q13 -2 28 -2q8 -5 6 -21
q-29 -31 -99 -31q-71 0 -120.5 51.5t-49.5 126.5q0 95 64 157t158 62z" />
    <glyph glyph-name="colon" unicode=":" horiz-adv-x="260" 
d="M130 -14q-32 0 -56.5 23t-24.5 58t23.5 59t57.5 24q35 0 58 -25t23 -58q0 -35 -22.5 -58t-58.5 -23zM130 230q-32 0 -56.5 22t-24.5 56q0 37 23.5 61.5t57.5 24.5q35 0 58 -25.5t23 -60.5q0 -34 -22.5 -56t-58.5 -22z" />
    <glyph glyph-name="semicolon" unicode=";" horiz-adv-x="260" 
d="M116 168q38 0 70.5 -32.5t32.5 -96.5q0 -70 -46.5 -114.5t-117.5 -60.5q-13 1 -16.5 14t5.5 18q35 13 62 38.5t27 58.5q0 49 -58 65q-31 9 -31 45q0 27 21 46t51 19zM130 230q-32 0 -56.5 22t-24.5 56q0 37 23.5 61.5t57.5 24.5q35 0 58 -25.5t23 -60.5q0 -34 -22.5 -56
t-58.5 -22z" />
    <glyph glyph-name="less" unicode="&#x3c;" horiz-adv-x="520" 
d="M66 236l389 178v-83l-286 -123v-2l286 -124v-82l-389 177v59z" />
    <glyph glyph-name="equal" unicode="=" horiz-adv-x="520" 
d="M461 106h-401v72h401v-72zM461 250h-401v72h401v-72z" />
    <glyph glyph-name="greater" unicode="&#x3e;" horiz-adv-x="520" 
d="M66 414l389 -178v-59l-389 -177v82l286 124v2l-286 123v83z" />
    <glyph glyph-name="question" unicode="?" horiz-adv-x="332" 
d="M55 321q0 39 20 58.5t70 40.5l47 20q26 11 37 18.5t11 17.5q0 23 -33.5 33.5t-111.5 10.5q-18 0 -36.5 17t-18.5 47q0 26 19.5 44t50.5 18q70 0 126 -61.5t56 -142.5q0 -78 -63 -107l-66 -30q-41 -18 -41 -43t10 -54q-4 -7 -15.5 -9t-17.5 4q-15 21 -29.5 55.5
t-14.5 62.5zM131 -14q-32 0 -56.5 23t-24.5 58t23.5 59t57.5 24q35 0 58 -25t23 -58q0 -35 -22.5 -58t-58.5 -23z" />
    <glyph glyph-name="at" unicode="@" horiz-adv-x="769" 
d="M441 541q136 0 214.5 -78.5t78.5 -191.5q0 -101 -71 -165.5t-194 -64.5q-26 0 -42.5 5.5t-20.5 11.5t-4 11q0 7 9 32l21 55l-2 1q-38 -46 -93.5 -81t-87.5 -35q-21 0 -32.5 13t-11.5 31q0 19 19 63t57 93q40 50 93 87t104 37q26 0 34 -16l24 45q10 2 16 2q34 0 53 -14
q-5 -14 -55.5 -131.5t-57.5 -135.5q-7 -19 -4 -26.5t18 -7.5q66 0 120.5 52t54.5 136q0 101 -69 164t-171 63q-134 0 -220 -99.5t-86 -235.5q0 -35 8 -69.5t28 -71t50.5 -63.5t80 -44.5t112.5 -17.5q73 0 154 33q7 -3 10.5 -14t-1.5 -18q-84 -46 -195 -46q-68 0 -128 19.5
t-108.5 56.5t-77 98t-28.5 138q0 169 118 274t283 105zM379 139q29 27 65 83t45 85q-10 25 -30 25q-14 0 -49 -31q-38 -34 -69.5 -95t-31.5 -91q0 -14 10 -14q19 0 60 38z" />
    <glyph glyph-name="A" unicode="A" horiz-adv-x="624" 
d="M324 226h-119q-18 0 -23.5 -3t-9.5 -17l-39 -116q-7 -23 -7 -36q0 -10 41 -17l30 -5q5 -6 5 -19t-7 -16q-9 1 -113 3q-16 0 -47 -1.5t-56 -1.5q-8 4 -8.5 16.5t5.5 18.5l27 3q21 3 35 13t26 37q26 60 63 160l91 244l13 34l11.5 30.5t7.5 22.5t5 22.5t0 17.5q13 3 27 10.5
t24 15.5t18 16l13 13l5 5q18 0 23 -20q12 -42 45 -137l136 -392q18 -50 29.5 -67.5t37.5 -21.5l38 -6q5 -4 5 -17t-6 -18q-72 3 -154 3q-66 0 -135 -3q-8 5 -9 17t7 18l32 5q27 5 27 17q0 9 -19 68l-27 86q-4 12 -12.5 15t-35.5 3zM225 279h94q18 0 21.5 4.5t-1.5 24.5
l-26 81q-30 93 -41 118q-2 -6 -10.5 -29.5l-17 -48.5l-15.5 -45l-25 -75q-6 -20 -2 -25t23 -5z" />
    <glyph glyph-name="B" unicode="B" horiz-adv-x="635" 
d="M114 144v353q0 77 -6.5 95t-37.5 22l-27 4q-7 4 -7 19.5t11 16.5q137 9 249 9q141 0 204 -37q69 -42 69 -127q0 -55 -33.5 -85.5t-68.5 -39.5q-20 -4 -20 -11q0 -5 14 -8q64 -14 105 -55.5t42 -110.5q1 -65 -32 -107.5t-85 -60.5q-72 -25 -199 -25q-19 0 -54 2t-49 2
q-69 0 -155 -3q-6 5 -6 19t6 16l29 6q34 7 42.5 23.5t8.5 82.5zM252 565v-165q0 -20 7.5 -24t45.5 -4q60 0 89 32.5t29 82.5q0 63 -34.5 96.5t-88.5 33.5q-34 0 -41 -8.5t-7 -43.5zM252 287v-118q0 -66 17 -96.5t71 -30.5t83.5 38t29.5 100q0 67 -38 107.5t-108 40.5
q-41 0 -48 -5.5t-7 -35.5z" />
    <glyph glyph-name="C" unicode="C" horiz-adv-x="689" 
d="M438 676q45 0 89 -6t76 -12.5t41 -7.5q0 -79 12 -156q-3 -9 -18 -11.5t-20 4.5q-42 143 -188 143q-92 0 -161 -77t-69 -217q0 -142 69.5 -224t165.5 -82q142 0 204 155q6 6 20 4t18 -11q-11 -112 -38 -157q-133 -37 -203 -37q-167 0 -269 76q-127 97 -127 262t121 265
q107 89 277 89z" />
    <glyph glyph-name="D" unicode="D" horiz-adv-x="793" 
d="M114 144v354q0 75 -7.5 95t-40.5 24l-19 2q-8 4 -7.5 19t9.5 16q151 9 268 9q142 0 233 -33q96 -34 149.5 -113.5t53.5 -176.5q0 -101 -46.5 -178.5t-132.5 -120.5q-94 -47 -253 -47q-25 0 -70.5 3t-62.5 3q-70 0 -156 -3q-6 5 -6 18t6 17l31 5q34 5 42.5 22t8.5 85z
M257 546v-365q0 -89 20 -112q26 -29 83 -29q62 0 108.5 25.5t72.5 69t38.5 92.5t12.5 103q0 137 -71 212t-205 75q-42 0 -52 -13q-7 -9 -7 -58z" />
    <glyph glyph-name="E" unicode="E" horiz-adv-x="593" 
d="M257 575v-175q0 -21 4 -25.5t24 -4.5h69q40 0 53.5 9.5t20.5 45.5l5 25q5 6 19 6t18 -7q-3 -48 -3 -106t3 -106q-4 -7 -18 -7.5t-19 6.5l-5 25q-7 36 -21 46t-53 10h-69q-20 0 -24 -4.5t-4 -26.5v-119q0 -72 16 -95q10 -14 31.5 -20t73.5 -6q39 0 57.5 2.5t41.5 13.5
t39.5 34.5t37.5 65.5q6 8 20 6t17 -11q-3 -37 -17 -87.5t-25 -72.5q-79 3 -231 3h-130q-60 0 -172 -3q-6 5 -6 18t6 17l47 7q35 5 43 21t8 84v373q0 67 -8 83t-43 23l-25 5q-7 4 -6 17.5t8 17.5q71 -3 144 -3h212q115 0 134 3q0 -6 2.5 -30.5t5.5 -60t5 -64.5
q-3 -8 -16.5 -9.5t-20.5 5.5q-18 58 -38 79q-31 31 -98 31h-80q-24 0 -28.5 -5.5t-4.5 -33.5z" />
    <glyph glyph-name="F" unicode="F" horiz-adv-x="548" 
d="M257 573v-181q0 -21 4 -25.5t24 -4.5h77q40 0 53.5 10t20.5 46l5 24q5 7 19 6.5t19 -7.5q-3 -48 -3 -107t3 -104q-5 -7 -19 -7.5t-19 6.5l-5 24q-7 36 -20.5 46t-53.5 10h-77q-20 0 -24 -4.5t-4 -25.5v-135q0 -69 8.5 -85.5t42.5 -21.5l37 -5q5 -4 5 -17t-5 -18
q-93 3 -159 3t-156 -3q-6 5 -6 18t6 17l33 5q34 5 42.5 22t8.5 85v372q0 69 -8.5 86.5t-42.5 22.5l-20 3q-7 4 -6.5 18t8.5 17q64 -3 141 -3h210q114 0 135 3q0 -89 2 -156q-3 -8 -16 -9t-22 5q-17 62 -29 78q-27 33 -98 33h-78q-24 0 -28.5 -5.5t-4.5 -35.5z" />
    <glyph glyph-name="G" unicode="G" horiz-adv-x="734" 
d="M663 169v-56q0 -35 4 -49t17 -17q3 -3 2 -12.5t-5 -11.5q-53 -9 -70 -15q-28 -9 -82.5 -16.5t-94.5 -7.5q-108 0 -197 35q-90 36 -143.5 116t-53.5 186q0 96 44 174.5t132 127.5q97 53 234 53q65 0 128.5 -12t69.5 -12q1 -9 2.5 -39t4.5 -62.5t7 -59.5q-3 -8 -18 -9
t-20 7q-48 141 -188 141q-114 0 -175 -82t-61 -208q0 -195 114 -272q57 -38 137 -38q43 0 56 14t13 62v63q0 40 -9 51t-45 16l-44 6q-8 4 -8 17t8 18q107 -3 169 -3q80 0 131 3q6 -4 6 -17t-6 -18l-23 -4q-23 -4 -29.5 -16.5t-6.5 -52.5z" />
    <glyph glyph-name="H" unicode="H" horiz-adv-x="806" 
d="M507 317h-208q-31 0 -36.5 -4t-5.5 -25v-144q0 -69 8.5 -86t42.5 -22l32 -4q6 -5 6 -17.5t-6 -17.5q-86 3 -152 3q-72 0 -149 -3q-6 5 -6 18t6 17l24 3q35 5 43 22t8 87v372q0 70 -8 87t-43 22l-24 3q-6 4 -6 17t6 18q74 -3 149 -3q73 0 139 3q6 -5 6 -18t-6 -17l-21 -3
q-33 -5 -41 -22.5t-8 -86.5v-116q0 -22 5.5 -26t36.5 -4h208q31 0 36.5 4t5.5 26v116q0 69 -8 86t-43 22l-27 4q-6 4 -6 17t6 18q82 -3 152 -3q72 0 141 3q6 -5 6 -18t-6 -17l-20 -3q-35 -5 -43.5 -22.5t-8.5 -86.5v-372q0 -69 8.5 -85.5t43.5 -22.5l24 -4q6 -4 6 -17
t-6 -18q-75 3 -145 3q-75 0 -147 -3q-6 5 -6 17.5t6 17.5l22 3q35 5 43 22t8 87v144q0 21 -5.5 25t-36.5 4z" />
    <glyph glyph-name="I" unicode="I" horiz-adv-x="371" 
d="M257 514v-368q0 -69 8.5 -86t43.5 -23l28 -5q6 -5 5.5 -17.5t-6.5 -17.5q-81 3 -150 3q-71 0 -152 -3q-6 5 -6 18t6 17l28 5q35 6 43.5 23t8.5 86v368q0 69 -8.5 86t-43.5 23l-28 5q-6 4 -6 17t6 18q81 -3 152 -3q70 0 151 3q6 -5 6 -18t-6 -17l-28 -5q-35 -6 -43.5 -23
t-8.5 -86z" />
    <glyph glyph-name="J" unicode="J" horiz-adv-x="383" 
d="M134 138v376q0 69 -8.5 86t-43.5 22l-38 6q-6 4 -6 17t6 18q96 -3 161 -3q72 0 150 3q6 -5 6 -18t-6 -17l-26 -5q-35 -7 -43.5 -23.5t-8.5 -85.5v-362q0 -132 -23 -193q-59 -153 -234 -160q-28 -1 -52 8t-24 32q0 32 26 58q13 13 28 13q18 0 51 -25t44 -25q23 0 32 82
q9 76 9 196z" />
    <glyph glyph-name="K" unicode="K" horiz-adv-x="715" 
d="M257 516v-122q0 -23 4 -30t14 -7q14 0 38.5 19.5t41.5 38.5q118 132 143 168q13 19 13 26q0 10 -17 13l-35 6q-8 5 -7 18.5t11 16.5q76 -3 124 -3q61 0 121 3q9 -3 10 -16t-5 -19q-60 -7 -86 -18q-55 -22 -148 -128l-46 -52q-13 -14 -13 -23q0 -8 36 -62l48.5 -74.5
l67.5 -102t61 -84.5q19 -25 35 -34.5t39 -12.5l32 -5q5 -7 4 -19t-7 -16q-75 3 -144 3q-73 0 -157 -3q-10 3 -10 17t8 18l25 6q17 5 17 10q0 8 -8 20l-58 89l-53 81q-30 46 -45 62.5t-30 16.5q-16 0 -20 -12.5t-4 -55.5v-105q0 -69 8.5 -86t42.5 -22l28 -4q6 -5 6 -17.5
t-6 -17.5q-80 3 -151 3q-70 0 -150 -3q-6 5 -6 18t6 17l28 4q34 5 42.5 22t8.5 86v372q0 69 -8.5 86t-42.5 22l-28 4q-8 4 -8 17t8 18q75 -3 150 -3q71 0 151 3q7 -5 7 -18t-7 -17l-28 -4q-34 -5 -42.5 -22t-8.5 -86z" />
    <glyph glyph-name="L" unicode="L" horiz-adv-x="585" 
d="M257 516v-350q0 -74 17 -95q11 -14 31.5 -19.5t72.5 -5.5q40 0 59 2t41 14t39 35.5t39 67.5q6 7 19.5 5t18.5 -11q-4 -37 -18 -88.5t-25 -73.5q-79 3 -231 3h-134q-65 0 -158 -3q-7 5 -8 17.5t5 17.5l38 5q34 5 42.5 21.5t8.5 85.5v372q0 69 -8.5 86t-42.5 22l-29 4
q-8 4 -7.5 17.5t9.5 17.5q78 -3 150 -3q73 0 148 3q6 -5 6 -18t-6 -17l-26 -4q-34 -5 -42.5 -22t-8.5 -86z" />
    <glyph glyph-name="M" unicode="M" horiz-adv-x="908" 
d="M56 624l-22 4q-6 6 -5.5 19.5t8.5 15.5q51 -3 126 -3q62 0 98 3q0 -18 3 -35.5t13 -42.5t15.5 -37.5t23.5 -50.5l24 -51l66 -141q6 -13 59 -108q25 46 56 114l51 110l42.5 93t27 68t25.5 81q35 -3 99 -3q61 0 115 3q8 -4 8.5 -16t-5.5 -19l-29 -5q-33 -6 -47 -20t-14 -52
q0 -272 8 -440q2 -39 10 -55.5t35 -19.5l32 -4q6 -6 5.5 -19t-7.5 -16q-69 3 -138 3q-76 0 -148 -3q-9 4 -10 17t7 18l30 4q33 4 39.5 17t6.5 62l-2 260v114h-2q-169 -365 -220 -496q-9 -7 -20 -7q-17 0 -26 6q-17 55 -57.5 147.5l-91.5 203l-69 151.5h-2q-4 -69 -6 -161
q-2 -130 -2 -225q0 -39 8.5 -52.5t37.5 -17.5l39 -6q6 -5 5 -18t-7 -17q-55 3 -118 3q-50 0 -110 -3q-9 3 -10 17t6 18l18 3q39 7 49 19t14 58q2 22 4 57l5 86.5l5 87.5q6 101 6 202q0 40 -14.5 56.5t-47.5 22.5z" />
    <glyph glyph-name="N" unicode="N" horiz-adv-x="748" 
d="M652 409v-239q0 -128 2 -161q-5 -9 -23 -16t-36 -7l-10 14q-10 15 -30 42.5t-41 52.5l-231 286q-95 116 -109 128q-5 -10 -5 -64v-194q0 -146 15 -183q11 -25 58 -32l28 -4q6 -6 5.5 -18t-5.5 -17q-81 3 -134 3q-55 0 -112 -3q-5 5 -5.5 17t5.5 18l17 3q46 8 55 33
q14 34 14 183v254q0 69 -7 85q-13 28 -57 34l-28 4q-6 6 -4.5 19.5t8.5 15.5q70 -3 138 -3q52 0 84 3q4 -16 15.5 -36.5t39.5 -57t45.5 -57.5l64.5 -77l84 -99q77 -91 96 -110q4 10 4 45v138q0 146 -15 183q-11 25 -58 32l-27 4q-6 6 -5.5 18t5.5 17q81 -3 134 -3
q54 0 112 3q5 -5 5.5 -17t-5.5 -18l-18 -3q-43 -7 -54 -33q-15 -37 -15 -183z" />
    <glyph glyph-name="O" unicode="O" horiz-adv-x="788" 
d="M397 676q156 0 253.5 -95.5t97.5 -247.5q0 -162 -99 -255.5t-262 -93.5q-153 0 -250 93t-97 248q0 150 101 250.5t256 100.5zM588 320q0 132 -54 221t-145 89q-90 0 -139.5 -77t-49.5 -205q0 -51 10 -102t31.5 -102t64 -82.5t100.5 -31.5q93 0 137.5 79.5t44.5 210.5z
" />
    <glyph glyph-name="P" unicode="P" horiz-adv-x="601" 
d="M114 144v354q0 77 -6.5 95.5t-37.5 22.5l-31 4q-7 4 -6.5 16.5t8.5 17.5q119 9 231 9q115 0 183 -26q52 -20 87 -63t35 -110q0 -57 -25.5 -97.5t-64.5 -58.5t-70.5 -25t-57.5 -7q-21 0 -32 1q-6 4 -7 13t4 14q58 18 79 57.5t21 101.5t-32.5 108t-95.5 46
q-26 0 -32.5 -9.5t-6.5 -41.5v-422q0 -69 8.5 -86t42.5 -22l32 -5q8 -4 8 -16.5t-8 -17.5q-84 3 -153 3t-150 -3q-8 5 -9 17.5t7 16.5l28 5q34 6 42.5 23t8.5 85z" />
    <glyph glyph-name="Q" unicode="Q" horiz-adv-x="788" 
d="M397 676q156 0 253.5 -95t97.5 -249q0 -120 -55.5 -203t-153.5 -120q-10 -6 9 -23q129 -121 217 -144q33 -8 75 -8q22 0 43 8q15 -7 9 -24q-53 -37 -143 -37q-194 0 -361 172q-13 14 -17.5 18.5t-14.5 9.5t-21 6q-127 11 -211 103t-84 235q0 150 101 250.5t256 100.5z
M389 630q-90 0 -139.5 -77t-49.5 -205q0 -51 10 -102t31.5 -102t64 -83t100.5 -32q93 0 137.5 80t44.5 211q0 132 -54 221t-145 89z" />
    <glyph glyph-name="R" unicode="R" horiz-adv-x="664" 
d="M114 144v354q0 76 -6.5 94.5t-37.5 22.5l-27 4q-8 4 -7.5 17.5t9.5 17.5q135 9 248 9q137 0 196 -36q88 -52 88 -148q0 -59 -30 -93t-76 -57q-12 -6 -5 -22q54 -110 87.5 -165.5t67.5 -84.5q32 -26 67 -28q6 -4 7 -13t-3 -13q-21 -9 -79 -9q-68 0 -114.5 25.5t-79.5 79.5
q-38 63 -78 155q-16 35 -53 35q-26 0 -31.5 -3.5t-5.5 -18.5v-123q0 -68 8.5 -84.5t42.5 -22.5l27 -5q5 -4 5 -17t-5 -18q-79 3 -147 3t-146 -3q-6 5 -6 18t6 17l27 5q34 6 42.5 22.5t8.5 84.5zM251 566v-195q0 -27 9 -32.5t53 -5.5q48 0 76 28q36 36 36 108q0 67 -36 107.5
t-95 40.5q-31 0 -37 -7.5t-6 -43.5z" />
    <glyph glyph-name="S" unicode="S" horiz-adv-x="506" 
d="M477 187q0 -92 -69 -147.5t-183 -55.5q-103 0 -170 38q-14 16 -23 63t-9 99q5 10 18.5 10.5t19.5 -7.5q18 -57 66 -107t106 -50q52 0 80 30t28 71q0 91 -136 159q-151 76 -151 195q-1 86 61.5 138.5t170.5 52.5q61 0 114 -16q17 -5 34 -8q18 -49 18 -143q-4 -9 -18 -10
t-21 7q-16 48 -49.5 86t-82.5 38q-48 0 -75 -27t-27 -66q0 -33 25.5 -63t65.5 -51l66 -35q141 -75 141 -201z" />
    <glyph glyph-name="T" unicode="T" horiz-adv-x="645" 
d="M255 144v441q0 19 -3.5 24t-20.5 5h-62q-51 0 -74.5 -25t-49.5 -88q-9 -5 -21 -2.5t-16 11.5q9 31 15.5 62.5t11.5 65.5t6 42q7 5 14 5q9 0 14 -4q4 -14 17 -17.5t67 -3.5h372q52 0 68 3.5t22 18.5q6 3 13 3q10 0 15 -7q-19 -64 -15 -172q-4 -7 -18.5 -8t-18.5 5
q-8 30 -13.5 45.5t-17 33t-30 25t-45.5 7.5h-60q-18 0 -22.5 -5t-4.5 -24v-441q0 -69 8.5 -85.5t42.5 -21.5l40 -5q5 -5 5 -17.5t-5 -17.5q-97 3 -160 3q-65 0 -170 -3q-6 5 -6 18t6 17l45 5q34 4 42.5 21t8.5 86z" />
    <glyph glyph-name="U" unicode="U" horiz-adv-x="740" 
d="M109 266v250q0 68 -8 84.5t-43 23.5l-25 5q-6 4 -6 17t8 17q72 -3 146 -3t146 3q6 -5 6 -17t-6 -17l-24 -4q-34 -6 -42.5 -23t-8.5 -86v-231q0 -41 2.5 -71t12 -65.5t26.5 -57.5t48.5 -37t75.5 -15q167 0 167 249v121q0 148 -15 183q-10 23 -58 32l-27 5q-6 6 -5.5 17.5
t5.5 16.5q81 -3 134 -3q55 0 112 3q5 -5 5.5 -16.5t-5.5 -17.5l-18 -4q-44 -10 -54 -33q-15 -35 -15 -183v-112q0 -82 -13 -140.5t-51 -100.5q-67 -72 -198 -72q-129 0 -198 56q-74 61 -74 226z" />
    <glyph glyph-name="V" unicode="V" horiz-adv-x="642" 
d="M526 421l-73 -173q-30 -70 -62 -155.5t-38 -100.5q-13 -8 -35 -8q-17 0 -27 8q-5 12 -20 54t-22 60l-162 407q-27 69 -38.5 84.5t-36.5 21.5l-40 10q-6 8 -4.5 19t8.5 15q13 0 59.5 -1.5t76.5 -1.5q58 0 150 3q6 -4 6 -15.5t-5 -18.5l-30 -6q-25 -6 -25 -19
q0 -10 40 -110l88 -225l33 -84q24 51 36 81l38 94q56 142 80 209q10 27 10 36t-32 17l-32 7q-6 6 -5.5 18t9.5 16q71 -3 123 -3q50 0 93 3q6 -3 6.5 -16.5t-4.5 -17.5l-26 -5q-42 -8 -58 -33q-26 -39 -81 -170z" />
    <glyph glyph-name="W" unicode="W" horiz-adv-x="960" 
d="M1011 628l-30 -7q-34 -7 -45 -22q-20 -29 -55 -111l-60.5 -141.5l-86 -204t-60.5 -150.5q-10 -8 -33 -8q-16 0 -27 8q-4 10 -38 88l-42 95q-27 63 -36 77q-16 -30 -34 -69l-46 -97q-7 -14 -20 -45t-22 -49q-8 -8 -34 -8q-13 0 -27 8q-20 53 -90 207l-163 353
q-20 44 -30.5 55t-35.5 16l-25 5q-6 7 -5 19t9 16q55 -3 130 -3q64 0 121 3q6 -3 7.5 -16.5t-5.5 -18.5l-18 -3q-25 -4 -25 -15q0 -7 52 -124l99 -221l55 -114q20 34 51 103l13 29q10 23 10 35q0 10 -11 37l-96 211q-17 38 -28.5 48t-39.5 13l-10 1q-7 6 -6 19t9 16
q64 -3 126 -3q76 0 115 3q8 -2 9 -16.5t-5 -18.5l-17 -4q-27 -7 -27 -14q0 -10 9 -30l30 -69q12 -28 31 -66l31 68l9 20q29 65 29 74t-20 14l-36 7q-5 5 -4.5 18t7.5 17q44 -3 98 -3q63 0 102 3q6 -4 7 -17.5t-6 -18.5l-28 -6q-20 -4 -28 -7.5t-19 -16.5t-29 -43
q-24 -41 -62 -117q-22 -44 -22 -52q0 -7 8 -25l47 -101q29 -61 46 -101q150 363 151 365q26 63 26 81q0 9 -29 18l-22 6q-6 7 -5 19t8 16q48 -3 103 -3q50 0 92 3q7 -4 7.5 -16.5t-4.5 -18.5z" />
    <glyph glyph-name="X" unicode="X" horiz-adv-x="665" 
d="M-12 30l23 3q42 6 65 22.5t51 54.5q42 55 126 180q14 20 14 31q0 10 -18 35l-60.5 92l-82.5 123q-17 25 -36 36.5t-53 17.5l-17 3q-7 6 -6.5 18.5t7.5 16.5q48 -3 156 -3q105 0 152 3q8 -4 9 -16.5t-5 -18.5l-22 -4q-34 -6 -34 -15q0 -11 16 -39q36 -64 94 -147
q75 113 101 158q11 18 11 30q0 7 -20 10l-40 7q-6 5 -5.5 18t8.5 17q47 -3 110 -3q73 0 121 3q7 -4 8 -16t-4 -19l-42 -6q-37 -5 -57 -25q-17 -17 -36.5 -41t-32 -41l-37 -50.5l-33.5 -46.5q-20 -28 -20 -34q0 -10 14 -31l160 -245q25 -38 46.5 -53t51.5 -19l31 -4
q6 -5 5 -17.5t-8 -17.5q-66 3 -156 3q-87 0 -168 -3q-7 3 -8.5 17t5.5 18l27 3q37 4 37 14t-29 59q-11 20 -53 84.5t-53 78.5q-70 -102 -119 -196q-9 -18 -9 -27q0 -10 32 -13l26 -3q7 -5 6 -18.5t-9 -16.5q-66 3 -131 3q-60 0 -105 -3q-8 4 -9.5 16t5.5 17z" />
    <glyph glyph-name="Y" unicode="Y" horiz-adv-x="575" 
d="M367 214v-70q0 -69 8.5 -85.5t42.5 -21.5l40 -5q5 -4 5 -17t-5 -18q-98 3 -162 3q-68 0 -157 -3q-6 5 -6 18t6 17l34 5q34 5 42.5 22t8.5 85v50q0 40 -4.5 60.5t-22.5 58.5l-119 246q-17 34 -28 46.5t-36 16.5l-34 6q-7 6 -6 19.5t10 15.5q67 -3 141 -3q95 0 146 3
q7 -3 8 -16t-6 -19l-34 -8q-24 -5 -24 -9q0 -12 26 -70l47 -107l16 -34.5l19.5 -40.5l14.5 -29q14 23 86 165q48 95 48 113q0 9 -40 16l-19 4q-6 4 -6 17.5t7 17.5q60 -3 112 -3q54 0 98 3q9 -3 9.5 -16.5t-5.5 -18.5l-26 -5q-38 -6 -52 -24q-29 -36 -87 -142l-63 -114
q-20 -36 -26.5 -61.5t-6.5 -67.5z" />
    <glyph glyph-name="Z" unicode="Z" horiz-adv-x="614" 
d="M360 614h-108q-57 0 -89 -12.5t-47.5 -34t-34.5 -68.5q-10 -6 -23 -3.5t-18 10.5q18 68 39 177q3 3 11.5 3t14.5 -2q5 -16 18 -20t67 -4h286q92 0 117 3q8 -5 6 -15q-37 -39 -150 -214l-109 -169q-120 -186 -125 -200q-1 -4 -1 -6q0 -13 92 -13h93q77 0 112 22t75 104
q9 6 21.5 3.5t17.5 -10.5q-5 -42 -18.5 -96t-25.5 -72q-126 3 -209 3h-252q-77 0 -101 -3q-12 5 -8 17q11 12 92 134l197 300q65 101 84 136q10 19 10 24q0 6 -34 6z" />
    <glyph glyph-name="bracketleft" unicode="[" horiz-adv-x="340" 
d="M121 -152v840q23 1 78 1q80 0 110 -4q6 -3 6 -15.5t-5 -15.5l-69 -11q-25 -4 -31.5 -30.5t-6.5 -129.5v-430q0 -103 6.5 -129.5t31.5 -30.5l69 -11q5 -3 5 -15.5t-6 -15.5q-30 -4 -110 -4q-55 0 -78 1z" />
    <glyph glyph-name="backslash" unicode="\" horiz-adv-x="321" 
d="M110 676l191 -692h-90l-191 692h90z" />
    <glyph glyph-name="bracketright" unicode="]" horiz-adv-x="340" 
d="M219 688v-840q-23 -1 -78 -1q-80 0 -110 4q-6 3 -6 15.5t5 15.5l69 11q25 4 31.5 30.5t6.5 129.5v430q0 103 -6.5 129.5t-31.5 30.5l-69 11q-5 3 -5 15.5t6 15.5q30 4 110 4q55 0 78 -1z" />
    <glyph glyph-name="asciicircum" unicode="^" horiz-adv-x="520" 
d="M461 244h-89l-111 263l-111 -263h-90l167 382h68z" />
    <glyph glyph-name="underscore" unicode="_" horiz-adv-x="500" 
d="M500 -75v-50h-500v50h500z" />
    <glyph glyph-name="grave" unicode="`" horiz-adv-x="380" 
d="M185 655l91 -182q-3 -19 -25 -16l-141 139q-22 22 -22 37t27 36q23 16 39 16q17 0 31 -30z" />
    <glyph glyph-name="a" unicode="a" horiz-adv-x="443" 
d="M378 269l-7 -132q-3 -46 11.5 -66t33.5 -20q17 0 38 12q7 -1 10.5 -8.5t1.5 -14.5q-13 -17 -45.5 -35.5t-70.5 -18.5q-43 0 -84 35q-9 8 -16 8q-5 0 -21 -11q-44 -32 -85 -32q-47 0 -79.5 27.5t-32.5 77.5q0 38 24.5 63t79.5 41q38 12 94 28q22 6 24 20q2 22 2 34
q0 34 -14.5 60t-43.5 26q-43 0 -52 -57q-3 -21 -17 -32q-11 -8 -34.5 -15.5t-37.5 -7.5q-23 0 -23 25q0 39 48 77q77 61 168 61q135 0 128 -145zM249 100l2 63q1 12 -0.5 15.5t-6.5 2.5q-84 -11 -84 -70q0 -24 15 -42t36 -18q22 0 29.5 11.5t8.5 37.5z" />
    <glyph glyph-name="b" unicode="b" horiz-adv-x="532" 
d="M196 562v-151q0 -22 12 -25q52 28 106 28q84 0 135.5 -56.5t51.5 -143.5q0 -107 -68 -167.5t-178 -60.5q-64 0 -107 18q-22 9 -31 9q-19 0 -34 -15q-11 -2 -20 7q3 19 3 99v452q0 33 -3 44t-17 19l-17 10q-5 5 -5 15t5 15q52 12 154 56q11 0 17 -7q-4 -55 -4 -146z
M196 294v-153q0 -46 20 -75q22 -34 59 -34q46 0 67 42.5t21 108.5q0 75 -33 121.5t-85 46.5q-25 0 -40 -11q-9 -6 -9 -46z" />
    <glyph glyph-name="c" unicode="c" horiz-adv-x="416" 
d="M281 414q59 0 105 -17q21 -18 21 -52q0 -22 -8.5 -39.5t-17.5 -17.5q-13 0 -16 5q-53 75 -103 75q-46 0 -73 -43.5t-27 -99.5q0 -64 38.5 -111.5t104.5 -47.5q60 0 89 49q10 1 18 -5t8 -17q-19 -43 -65 -75t-112 -32q-94 0 -153 56.5t-59 145.5q0 103 72.5 164.5
t177.5 61.5z" />
    <glyph glyph-name="d" unicode="d" horiz-adv-x="537" 
d="M466 562v-398q0 -71 4.5 -94t18.5 -23q20 0 43 8q8 -7 8.5 -21.5t-7.5 -21.5q-28 -2 -56.5 -6t-49.5 -9t-37.5 -10l-26.5 -8l-10 -3q-13 0 -17 14l3 31q-2 13 -9 8q-68 -43 -108 -43q-84 0 -137.5 57t-53.5 140q0 104 68.5 167.5t169.5 63.5q39 0 57 -5q10 4 10 19v128
q0 33 -3 44t-17 19l-17 10q-6 5 -5.5 15t5.5 15q59 14 153 56q11 0 17 -7q-3 -61 -3 -146zM336 103v194q0 20 -7 34q-21 37 -57 37q-41 0 -71 -41.5t-30 -116.5q0 -59 28 -108t84 -49q21 0 41 12q12 8 12 38z" />
    <glyph glyph-name="e" unicode="e" horiz-adv-x="420" 
d="M372 237h-192q-17 0 -21 -3t-4 -15q0 -60 37.5 -104t103.5 -44q62 0 93 52q9 2 17.5 -4.5t8.5 -18.5q-28 -59 -76 -86.5t-99 -27.5q-97 0 -152.5 59t-55.5 145q0 95 61.5 159.5t154.5 64.5q75 0 117.5 -41.5t42.5 -102.5q0 -16 -7.5 -24.5t-28.5 -8.5zM209 281h37
q27 0 41 9q7 4 7 23q0 25 -14 40t-39 15q-30 0 -54 -23.5t-24 -48.5q0 -10 9.5 -12.5t36.5 -2.5z" />
    <glyph glyph-name="f" unicode="f" horiz-adv-x="311" 
d="M329 346h-89q-19 0 -22.5 -4t-3.5 -24v-202q0 -54 6 -67.5t31 -15.5l33 -3q6 -4 6 -16.5t-7 -16.5q-71 3 -136 3q-71 0 -118 -3q-7 4 -7 16.5t6 16.5l16 2q27 3 33.5 16.5t6.5 67.5v202q0 20 -3.5 24t-21.5 4h-37q-4 3 -5.5 13t2.5 14l43 22q22 12 22 26q0 100 28 165
q57 129 196 129q46 0 81.5 -22.5t35.5 -59.5q0 -25 -16 -39.5t-42 -14.5q-24 0 -40 18q-52 66 -71 66q-42 0 -42 -122v-113q0 -20 3.5 -24t22.5 -4h95q7 -4 7 -20q0 -25 -13 -34z" />
    <glyph glyph-name="g" unicode="g" horiz-adv-x="479" 
d="M377 377h115q9 -8 9 -25q0 -31 -15 -40h-74q3 -13 3 -35q0 -32 -10.5 -61t-32.5 -55.5t-64 -42.5t-98 -16q-8 0 -41 3q-17 -7 -17 -24q0 -16 14 -26t37 -10q15 0 56 1t66 1q155 0 155 -121q0 -46 -25 -86t-65 -65q-74 -44 -175 -44q-100 0 -148 37.5t-48 90.5q0 31 32 50
q10 6 26.5 17t22.5 14q17 10 1 14q-28 9 -45 31.5t-17 48.5q0 14 7 21q48 31 64 47q14 11 8 22q-38 15 -61.5 49.5t-23.5 79.5q0 67 51 114t144 47q81 0 149 -37zM163 270q0 -56 19.5 -89.5t49.5 -33.5q25 0 41 25t16 77q0 58 -18 88.5t-47 30.5q-25 0 -43 -25t-18 -73z
M277 -56h-67q-39 0 -56 -13q-14 -13 -14 -35q0 -51 35.5 -81.5t94.5 -30.5q47 0 76 21.5t29 57.5q0 41 -27 61t-71 20z" />
    <glyph glyph-name="h" unicode="h" horiz-adv-x="547" 
d="M80 116v440q0 33 -3 44t-17 19l-17 10q-5 5 -5 15t5 15q42 10 153 56q11 0 17 -7q-3 -61 -3 -146v-184q0 -12 7 -12q3 0 16 8q59 40 115 40q60 0 93 -35.5t33 -90.5v-172q0 -52 6.5 -65.5t33.5 -16.5l16 -2q6 -4 6 -17.5t-7 -17.5q-47 3 -121 3q-75 0 -108 -3
q-7 4 -7 17.5t6 17.5l18 3q18 3 22.5 14t4.5 52v173q0 29 -17.5 48t-52.5 19q-39 0 -56 -24q-8 -9 -8 -37v-179q0 -41 4.5 -52t22.5 -14l18 -3q6 -4 6 -17.5t-7 -17.5q-46 3 -111 3q-66 0 -117 -3q-7 4 -7 17.5t6 17.5l18 2q25 3 31 16.5t6 65.5z" />
    <glyph glyph-name="i" unicode="i" horiz-adv-x="286" 
d="M214 300v-184q0 -53 6 -66.5t31 -15.5l19 -2q6 -4 6 -17.5t-7 -17.5q-53 3 -120 3q-71 0 -120 -3q-7 4 -7 17.5t6 17.5l19 2q25 2 31 15.5t6 66.5v151q0 33 -3 44.5t-16 19.5l-14 9q-5 4 -5 15t5 15q95 26 148 58q12 0 18 -9q-3 -45 -3 -119zM152 639q31 0 50.5 -20.5
t19.5 -50.5q0 -34 -22 -53.5t-53 -19.5q-32 0 -51 20t-19 51q0 32 22 52.5t53 20.5z" />
    <glyph glyph-name="j" unicode="j" horiz-adv-x="281" 
d="M215 300v-247q0 -108 -21 -161q-22 -57 -65.5 -93.5t-135.5 -67.5q-11 4 -15 15t1 18q31 16 49 36q57 57 57 232v235q0 33 -3 44.5t-16 19.5l-14 9q-5 4 -5 15t5 15q92 25 148 58q12 0 18 -9q-3 -45 -3 -119zM153 639q31 0 50.5 -20.5t19.5 -50.5q0 -34 -22 -53.5
t-53 -19.5q-32 0 -51 20t-19 51q0 32 22 52.5t53 20.5z" />
    <glyph glyph-name="k" unicode="k" horiz-adv-x="532" 
d="M76 116v440q0 33 -3 44t-17 19l-17 10q-5 5 -5 15t5 15q53 13 153 56q11 0 17 -7q-3 -61 -3 -146v-314q0 -8 3 -11t11 -3q34 0 58 28l42 49q24 29 24 40q0 8 -19 10l-25 4q-7 7 -6 19.5t8 15.5h24q97 0 189 14q7 -4 8 -16.5t-4 -18.5l-32 -7q-30 -6 -67 -35
q-38 -29 -67 -58q-6 -7 -6 -13t7 -17q18 -31 66 -103.5t65 -87.5q16 -15 59 -23l15 -3q6 -5 4.5 -18.5t-8.5 -16.5q-47 3 -126 3q-81 0 -123 -3q-7 4 -8.5 16t4.5 19l13 3q16 3 16 8q0 7 -17 32l-71 108q-10 15 -25 15q-12 0 -12 -24v-58q0 -52 6.5 -65.5t32.5 -16.5l16 -2
q6 -4 6 -17.5t-7 -17.5q-48 3 -120 3q-70 0 -122 -3q-7 4 -7 17.5t6 17.5l19 2q27 3 33.5 16.5t6.5 65.5z" />
    <glyph glyph-name="l" unicode="l" horiz-adv-x="278" 
d="M76 116v440q0 33 -3 44t-17 19l-17 10q-5 5 -5 15t5 15q55 13 153 56q11 0 17 -7q-3 -61 -3 -146v-446q0 -52 6.5 -65.5t32.5 -16.5l17 -2q6 -4 6 -17.5t-7 -17.5q-49 3 -120 3q-67 0 -120 -3q-7 4 -7 17.5t6 17.5l19 2q25 2 31 15.5t6 66.5z" />
    <glyph glyph-name="m" unicode="m" horiz-adv-x="806" 
d="M84 116v151q0 33 -3 44.5t-16 19.5l-14 9q-5 4 -5 15t5 15q94 26 148 58q12 0 18 -9q0 -8 -1.5 -25t-1.5 -20q0 -8 5 -8q3 0 19 8q68 40 115 40q56 0 90 -38q15 -18 24 -18q2 0 5.5 2l11.5 6.5l15 8.5q1 0 14.5 8t20.5 11.5t21 9t28.5 8t29.5 2.5q57 0 89 -36t32 -90
v-172q0 -52 6 -65.5t31 -16.5l16 -2q6 -4 6 -17.5t-7 -17.5q-46 3 -117 3q-69 0 -109 -3q-7 4 -7 17.5t6 17.5l16 2q19 2 24 14t5 53v170q0 30 -17 50t-50 20q-41 0 -56 -25q-7 -10 -7 -30v-185q0 -41 5 -53t22 -14l16 -2q6 -4 6 -17.5t-7 -17.5q-46 3 -108 3q-67 0 -106 -3
q-7 4 -7 17.5t6 17.5l16 2q17 2 22 14t5 53v170q0 31 -17 50.5t-51 19.5q-37 0 -54 -24q-8 -9 -8 -37v-179q0 -41 5 -53t24 -14l16 -2q6 -4 6 -17.5t-7 -17.5q-46 3 -111 3q-69 0 -114 -3q-7 4 -7.5 17.5t5.5 17.5l16 2q25 3 31 16.5t6 65.5z" />
    <glyph glyph-name="n" unicode="n" horiz-adv-x="550" 
d="M84 116v151q0 33 -3 44.5t-16 19.5l-14 9q-5 4 -5 15t5 15q98 27 148 58q12 0 18 -9q0 -8 -1.5 -25t-1.5 -20q0 -8 5 -8q3 0 19 8q68 40 115 40q60 0 92.5 -36t32.5 -90v-172q0 -52 6.5 -65.5t33.5 -16.5l16 -2q6 -4 6 -17.5t-7 -17.5q-47 3 -121 3q-64 0 -108 -3
q-7 4 -7 17.5t6 17.5l18 3q18 3 22.5 14t4.5 52v169q0 32 -17 51.5t-53 19.5q-39 0 -56 -24q-8 -9 -8 -37v-179q0 -41 5 -53t24 -14l16 -2q6 -4 6 -17.5t-7 -17.5q-46 3 -111 3q-66 0 -118 -3q-7 4 -7 17.5t6 17.5l16 2q27 3 33.5 16.5t6.5 65.5z" />
    <glyph glyph-name="o" unicode="o" horiz-adv-x="516" 
d="M255 -14q-95 0 -159 53.5t-65 152.5q-1 102 67.5 162t162.5 60t159 -56t65 -157q0 -104 -65.5 -159.5t-164.5 -55.5zM255 368q-35 0 -57.5 -38t-22.5 -116q0 -81 24 -131.5t67 -50.5q77 0 75 155q-1 78 -23 129.5t-63 51.5z" />
    <glyph glyph-name="p" unicode="p" horiz-adv-x="543" 
d="M77 -139v406q0 33 -3 44.5t-16 19.5l-14 9q-5 4 -5 15t5 15q32 9 78 29t66 34q15 2 21 -12q-2 -12 -2 -33q0 -12 8 -14q80 40 127 40q78 0 124 -54t46 -137q0 -105 -68 -171t-177 -66q-31 0 -45 3q-15 -3 -15 -29v-99q0 -52 6 -65.5t31 -15.5l34 -3q6 -4 6 -17.5
t-7 -17.5q-75 3 -137 3q-65 0 -119 -3q-7 4 -7 17.5t6 17.5l20 2q25 2 31 15.5t6 66.5zM207 273v-160q0 -35 23 -58q21 -23 48 -23q45 0 70.5 43.5t25.5 115.5t-31.5 113t-82.5 41q-31 0 -42 -14q-11 -13 -11 -58z" />
    <glyph glyph-name="q" unicode="q" horiz-adv-x="528" 
d="M466 281v-420q0 -52 6 -65.5t31 -15.5l34 -3q6 -4 6 -17.5t-7 -17.5q-71 3 -135 3q-68 0 -125 -3q-7 4 -7 17.5t6 17.5l22 2q26 2 32.5 15.5t6.5 66.5v130q0 19 -9 19q-52 -24 -99 -24q-90 0 -143.5 57t-53.5 140q0 104 71 167.5t181 63.5q53 0 108 -12q12 -3 19 -3
q14 0 30 14l6 7q22 2 25 -10q-5 -41 -5 -129zM336 78v179q0 64 -20 89q-18 22 -48 22q-41 0 -69.5 -41.5t-28.5 -106.5q0 -82 39 -128t90 -46q19 0 30 7q7 5 7 25z" />
    <glyph glyph-name="r" unicode="r" horiz-adv-x="371" 
d="M84 116v149q0 33 -3 44.5t-16 19.5l-14 9q-5 4 -5 15t5 15q94 27 146 60q12 0 18 -9q-4 -40 -4 -43q0 -10 10 -12q5 3 25.5 19t37 23.5t35.5 7.5q22 0 38.5 -16t16.5 -43q0 -32 -18.5 -48.5t-45.5 -16.5q-19 0 -39 18q-24 20 -38 20q-19 0 -19 -60v-152q0 -52 6 -65.5
t31 -15.5l32 -3q6 -4 6 -17.5t-7 -17.5q-72 3 -135 3q-69 0 -118 -3q-7 4 -7 17.5t6 17.5l19 2q25 2 31 15.5t6 66.5z" />
    <glyph glyph-name="s" unicode="s" horiz-adv-x="358" 
d="M164 -14q-84 0 -124 31q-19 35 -16 113q4 7 17 8t17 -6q12 -37 39.5 -68.5t62.5 -31.5q23 0 37.5 13.5t14.5 38.5q0 42 -66 75q-103 51 -103 126q0 62 45 95.5t114 33.5q35 0 66 -7t41 -14q15 -33 15 -100q-3 -8 -17 -9t-18 5q-27 79 -78 79q-22 0 -36 -12t-14 -32
q0 -33 64 -64q110 -53 110 -140q-1 -64 -49 -99t-122 -35z" />
    <glyph glyph-name="t" unicode="t" horiz-adv-x="323" 
d="M311 346h-90q-10 0 -12 -3.5t-2 -19.5v-150q0 -23 0.5 -34.5t4 -30.5t10.5 -28.5t21 -17t34 -7.5q19 0 42 15q17 -5 14 -26q-23 -24 -61.5 -41t-82.5 -17q-112 0 -112 114v223q0 16 -3 19.5t-16 3.5h-31q-8 3 -10 14.5t4 16.5q33 12 83 45q39 28 74 78q5 3 15.5 2
t14.5 -7v-75q0 -14 2.5 -17t16.5 -3h89q8 -6 8 -19q0 -27 -13 -35z" />
    <glyph glyph-name="u" unicode="u" horiz-adv-x="544" 
d="M471 314v-182q0 -48 5 -66.5t22 -18.5q16 0 40 8q7 -1 6.5 -20t-9.5 -23q-27 -1 -56 -5t-51 -9.5l-39.5 -10l-28.5 -7.5l-10 -4q-10 1 -12 12q3 18 3 36q0 10 -11 10q-26 -17 -40 -24.5t-40.5 -15.5t-55.5 -8q-61 0 -89 31.5t-28 96.5v170q0 38 -5.5 48.5t-24.5 16.5
l-13 4q-5 7 -4 18.5t8 16.5q54 2 97 9q13 2 28 6.5l24.5 7.5t10.5 3q10 0 12 -12q-3 -37 -3 -88v-165q0 -44 13.5 -67t57.5 -23q27 0 52 19q11 8 11 30v189q0 30 -8 40t-35 14l-14 2q-6 5 -5 18.5t10 16.5q43 2 104 10q15 2 31.5 6t27 7t12.5 3q8 0 10 -12q-3 -54 -3 -88z
" />
    <glyph glyph-name="v" unicode="v" horiz-adv-x="457" 
d="M16 363l-21 5q-7 5 -6.5 18.5t9.5 16.5q56 -3 124 -3l111 3q6 -4 6.5 -17.5t-4.5 -17.5l-16 -4q-17 -4 -17 -10q0 -8 9 -35q24 -65 63 -155q53 121 68 164q6 15 6 25q0 6 -24 12l-14 3q-7 4 -6.5 17.5t7.5 17.5q48 -3 82 -3q11 0 77 3q8 -4 8 -17t-6 -18l-17 -3
q-21 -4 -31.5 -14t-26.5 -41q-45 -90 -143 -317q-9 -7 -23 -7q-13 0 -24 7q-64 154 -136 307q-18 37 -27.5 48t-27.5 15z" />
    <glyph glyph-name="w" unicode="w" horiz-adv-x="682" 
d="M111 400h202q81 0 177 3q8 -1 8.5 -16.5t-5.5 -18.5l-15 -3q-37 -8 -37 -15q0 -8 8 -31q26 -69 68 -161q17 42 56 153q9 27 9 39q0 8 -25 14l-17 4q-5 5 -4 18.5t8 16.5q49 -3 82 -3q44 0 77 3q7 -3 8 -15.5t-5 -19.5l-14 -3q-24 -5 -33.5 -15t-22.5 -39
q-66 -146 -134 -318q-7 -7 -23 -7t-23 7q-35 90 -103 235q-11 -22 -109 -235q-7 -7 -23 -7t-23 7q-95 225 -146 332q-10 20 -18 27t-23 11l-18 5q-6 6 -5 18.5t8 16.5q61 -3 115 -3zM323 307q0 13 -11.5 31t-25.5 21q-19 4 -48 4q-51 0 -51 -15q0 -10 9 -33q38 -95 71 -157
q45 87 53 119q3 13 3 30z" />
    <glyph glyph-name="x" unicode="x" horiz-adv-x="458" 
d="M447 368l-14 -2q-40 -6 -60 -18q-24 -15 -75 -80q-19 -25 -19 -30q0 -9 21 -39l68 -101q25 -37 43.5 -50t45.5 -15l11 -1q6 -5 5.5 -18.5t-8.5 -16.5q-66 3 -121 3q-64 0 -133 -3q-7 3 -8 16.5t5 18.5l22 4q17 4 17 11t-12 27q-31 49 -43 66q-18 -26 -41 -66
q-12 -21 -12 -29q0 -6 18 -10l16 -3q6 -5 5 -18.5t-7 -16.5q-43 3 -90 3q-31 0 -78 -3q-7 4 -8 16.5t6 18.5l25 4q34 6 47 20q11 11 41 49.5t41 55.5q9 15 9 22q0 3 -32 53l-54 83q-23 35 -61 44l-21 5q-6 4 -5 18.5t8 16.5q59 -3 121 -3q53 0 107 3q9 -3 9.5 -17t-7.5 -18
l-12 -3q-15 -2 -15 -7q0 -6 9 -21q9 -16 41 -61l43 62q7 10 7 18q0 4 -16 9l-11 3q-7 4 -5.5 18t8.5 17q44 -3 91 -3q39 0 76 3q7 -2 8 -16.5t-6 -18.5z" />
    <glyph glyph-name="y" unicode="y" horiz-adv-x="469" 
d="M12 365l-18 3q-6 5 -5 18.5t8 16.5q54 -3 132 -3q57 0 112 3q7 -3 8 -16.5t-5 -18.5l-20 -4q-20 -4 -25 -8t-5 -11q0 -8 30 -89q44 -112 45 -114q8 14 31 66l18 41q37 85 37 101q0 10 -22 14l-20 4q-7 5 -6 19t9 16q33 -3 97 -3q39 0 78 3q7 -3 8 -17t-6 -18l-19 -2
q-32 -3 -46 -22q-24 -32 -59 -105l-53 -109l-152 -315q-30 -64 -86 -66q-64 -1 -64 60q0 23 15.5 37.5t41.5 14.5h24q33 0 49 21q8 11 29 55q14 28 14 42q0 24 -19 73l-96 242q-16 39 -26.5 53t-33.5 18z" />
    <glyph glyph-name="z" unicode="z" horiz-adv-x="415" 
d="M223 0h-97q-73 0 -97 -3q-11 4 -7 16q46 69 88 144l93 165q11 21 11 29q0 5 -28 5h-31q-55 0 -71 -19q-19 -19 -32 -58q-7 -6 -19.5 -3t-16.5 11q13 87 31 132q4 4 11 4t10 -4q2 -13 10.5 -16t45.5 -3h180q65 0 83 3q8 -4 6 -13q-9 -12 -71 -117l-107 -182
q-18 -32 -18 -41q0 -6 40 -6h24q73 0 94 34q11 15 30 54q6 6 19 4t17 -9q-2 -28 -15 -71.5t-23 -58.5q-123 3 -160 3z" />
    <glyph glyph-name="braceleft" unicode="{" horiz-adv-x="340" 
d="M239 162q0 -35 -9.5 -103t-9.5 -102q0 -33 17 -55.5t67 -31.5q4 -5 3.5 -15.5t-5.5 -12.5q-39 0 -65.5 4t-52.5 17t-38.5 40.5t-12.5 69.5q0 33 8 103t8 101q0 14 -2 24t-10 23t-27 21t-49 10q-5 6 -5 14t5 12q32 2 51.5 9.5t26.5 21t8.5 22t1.5 25.5q0 31 -8 101t-8 103
q0 34 10 58.5t24.5 38.5t38.5 22t45.5 10t50.5 2q5 -2 5.5 -12.5t-3.5 -15.5q-84 -15 -84 -87q0 -34 9.5 -102t9.5 -103q0 -85 -75 -104v-4q75 -19 75 -104z" />
    <glyph glyph-name="bar" unicode="|" horiz-adv-x="248" 
d="M168 750v-1000h-88v1000h88z" />
    <glyph glyph-name="braceright" unicode="}" horiz-adv-x="340" 
d="M101 162q0 85 75 104v4q-75 19 -75 104q0 35 9.5 103t9.5 102q0 72 -84 87q-4 5 -3.5 15.5t5.5 12.5q29 0 50.5 -2t45.5 -10t38.5 -22t24.5 -38.5t10 -58.5q0 -33 -8 -103t-8 -101q0 -17 1.5 -25.5t8.5 -22t26.5 -21t51.5 -9.5q5 -4 5 -12t-5 -14q-30 -2 -49 -10t-27 -21
t-10 -23t-2 -24q0 -31 8 -101t8 -103q0 -80 -43.5 -105.5t-125.5 -25.5q-5 2 -5.5 12.5t3.5 15.5q50 9 67 31.5t17 55.5q0 34 -9.5 102t-9.5 103z" />
    <glyph glyph-name="asciitilde" unicode="~" horiz-adv-x="520" 
d="M196 249h127q34 0 52 16.5t33 57.5q12 8 30 3.5t26 -18.5q-17 -64 -55 -105q-22 -26 -76 -26h-138q-30 0 -49.5 -19.5t-35.5 -59.5q-11 -7 -30.5 -3.5t-23.5 16.5q2 19 17.5 52.5t32.5 55.5q16 19 36 24.5t54 5.5z" />
    <glyph glyph-name="uni00A0" unicode="&#xa0;" horiz-adv-x="240" 
 />
    <glyph glyph-name="exclamdown" unicode="&#xa1;" horiz-adv-x="254" 
d="M127 -266q-41 0 -60.5 9.5t-19.5 33.5q0 5 16 117l42 281q9 6 22 6t22 -6l42 -281q16 -112 16 -117q0 -24 -19.5 -33.5t-60.5 -9.5zM127 394q36 0 58.5 -23t22.5 -58q0 -33 -23 -58t-58 -25q-34 0 -57.5 24t-23.5 59t24.5 58t56.5 23z" />
    <glyph glyph-name="cent" unicode="&#xa2;" horiz-adv-x="520" 
d="M268 188l35 296q-50 -2 -80 -46t-30 -107q0 -109 75 -143zM366 612l-10 -87q42 -1 75 -13q21 -16 21 -50q0 -24 -8.5 -39t-18.5 -15t-16 6l-17.5 20l-22 24t-16.5 15l-1 1h-2l-36 -298q5 -2 16 -2q65 0 109 58q11 2 19.5 -3.5t7.5 -15.5q-50 -97 -160 -105l-13 -104
q-7 -6 -23 -6t-25 6l13 104q-94 6 -148 60t-54 135q0 108 73.5 165t178.5 59l10 85q8 6 24.5 6t23.5 -6z" />
    <glyph glyph-name="sterling" unicode="&#xa3;" horiz-adv-x="520" 
d="M273 340h128q6 -8 4 -22t-9 -23h-122q-14 0 -18 -2.5t-4 -11.5q0 -61 -27 -96t-79 -60l1 -2q36 5 69 -1q33 -4 99 -38q56 -29 95 -29q21 0 22.5 12t-11.5 42q-10 26 0 39.5t28 13.5q19 0 34.5 -15t15.5 -47q0 -47 -49 -93.5t-111 -46.5q-48 0 -116 43q-77 48 -113 48
q-17 0 -26 -12t-11 -26q-2 -9 -28 -18t-38 -9q-19 0 -19 18q0 26 50 65q73 59 73 214q0 5 -0.5 7t-1.5 2.5t-6 1t-9 1.5h-86q-6 6 -5 21t10 24h80q11 0 13.5 1.5t1.5 7.5q-1 10 -1 37q0 113 71 183.5t175 70.5q43 0 65 -15q12 -11 12 -33q0 -21 -13 -39t-23 -18
q-13 0 -24 10q-48 39 -78 39q-10 0 -19.5 -11t-18 -41t-8.5 -74t6 -103q1 -10 4.5 -12.5t16.5 -2.5z" />
    <glyph glyph-name="currency" unicode="&#xa4;" horiz-adv-x="520" 
d="M260 450q-51 0 -87.5 -38.5t-36.5 -98.5t36.5 -98.5t87.5 -38.5t87.5 39t36.5 98t-36.5 98t-87.5 39zM260 527q70 0 119 -36l37 49q22 -2 41.5 -19t23.5 -41l-46 -42q41 -48 41 -125t-41 -125l46 -42q-4 -24 -23.5 -41t-41.5 -19l-37 49q-49 -36 -119 -36t-119 36
l-37 -49q-22 2 -41.5 19t-23.5 41l46 42q-41 48 -41 125t41 125l-46 42q4 24 23.5 41t41.5 19l37 -49q49 36 119 36z" />
    <glyph glyph-name="yen" unicode="&#xa5;" horiz-adv-x="520" 
d="M325 243h150q8 -7 8 -22.5t-8 -22.5h-150v-82q0 -54 6 -67.5t31 -15.5l33 -3q6 -4 6 -16.5t-7 -16.5q-75 3 -135 3q-62 0 -140 -3q-7 4 -7 16.5t6 16.5l36 3q25 2 31 15.5t6 67.5v82h-150q-7 8 -7 23t7 22h150v76h-150q-7 7 -7 22.5t7 22.5h131l-96 170
q-11 18 -17.5 27.5t-20 19t-30.5 12.5l-18 3q-6 5 -5 17t8 16q69 -3 142 -3q81 0 118 3q8 -3 8 -14.5t-7 -18.5l-27 -7q-20 -5 -20 -17q0 -10 23 -56q17 -33 68 -123q2 3 11 19.5l22.5 40t22.5 41.5q36 70 36 78q0 11 -29 19l-18 5q-9 5 -8 17t12 16q60 -3 96 -3q37 0 88 3
q7 -3 7 -15.5t-6 -17.5l-22 -6q-24 -7 -37.5 -20t-40.5 -56l-94 -150h137q8 -7 8 -22.5t-8 -22.5h-150v-76z" />
    <glyph glyph-name="brokenbar" unicode="&#xa6;" horiz-adv-x="248" 
d="M168 675v-350h-88v350h88zM168 175v-350h-88v350h88z" />
    <glyph glyph-name="section" unicode="&#xa7;" horiz-adv-x="525" 
d="M320 676q55 0 77.5 -18.5t22.5 -39.5t-16 -32t-36 -11t-41 16q-47 35 -67 35q-15 0 -28.5 -14.5t-13.5 -32.5q0 -30 28 -64t117 -99q61 -45 91.5 -100.5t30.5 -135.5q0 -109 -87.5 -206.5t-210.5 -97.5q-42 0 -65.5 15.5t-23.5 43.5q0 19 13 32t35 13t55 -23
q38 -26 66 -26q19 0 32 13t13 36q0 35 -40 82.5t-97 92.5q-68 54 -101.5 109t-33.5 126q0 109 85.5 197.5t194.5 88.5zM248 240q70 -58 97.5 -112.5t20.5 -121.5l2 -2q50 53 50 124q0 55 -30.5 103.5t-97.5 101.5q-83 65 -109.5 109.5t-22.5 111.5q-21 -17 -36 -44.5
t-15 -56.5q0 -20 3 -35t15 -42t43 -61t80 -75z" />
    <glyph glyph-name="dieresis" unicode="&#xa8;" horiz-adv-x="380" 
d="M101 487q-27 0 -44.5 15.5t-18.5 43.5q0 28 18 46t45 18q26 0 43.5 -17.5t17.5 -41.5q0 -29 -17 -46.5t-44 -17.5zM281 487q-27 0 -44.5 15.5t-18.5 43.5q0 28 18 46t45 18q26 0 43.5 -17.5t17.5 -41.5q0 -29 -17 -46.5t-44 -17.5z" />
    <glyph glyph-name="copyright" unicode="&#xa9;" horiz-adv-x="780" 
d="M422 149q-60 0 -103.5 18t-65 47t-31 57.5t-9.5 57.5q0 82 56.5 135.5t152.5 53.5q25 0 47 -3t44.5 -8.5t24.5 -5.5q2 -15 9 -103q-4 -5 -13.5 -6t-13.5 3q-26 88 -94 88q-41 0 -73.5 -36t-32.5 -113q0 -74 33 -112t79 -38q58 0 103 83q4 5 13 4t13 -6q-5 -54 -26 -89
q-41 -27 -113 -27zM390 -16q-145 0 -247.5 101.5t-102.5 244.5t102.5 244.5t247.5 101.5t247.5 -101.5t102.5 -244.5t-102.5 -244.5t-247.5 -101.5zM672 331q0 125 -83 211.5t-199 86.5t-199 -86.5t-83 -211.5t83 -212.5t199 -87.5t199 87.5t83 212.5z" />
    <glyph glyph-name="ordfeminine" unicode="&#xaa;" horiz-adv-x="374" 
d="M196 540q60 0 87 -22.5t25 -74.5l-5 -107q-3 -50 29 -50q11 0 27 7q6 -1 9 -6.5t0 -14.5q-12 -13 -36.5 -22.5t-44.5 -9.5q-42 0 -62 19q-10 10 -16 10q-3 0 -21 -12q-32 -17 -61 -17q-48 0 -71.5 23.5t-23.5 52.5q0 53 55 70q50 17 101 30q20 6 22 19v10q0 60 -44 60
q-29 0 -34 -32q-3 -21 -16 -31q-26 -15 -59 -15q-25 0 -25 17q0 24 31 51q21 18 58 31.5t75 13.5zM132 326q0 -15 11.5 -27t28.5 -12q31 0 33 28l3 49q2 19 -8 19q-16 0 -28 -5q-40 -17 -40 -52z" />
    <glyph glyph-name="guillemotleft" unicode="&#xab;" horiz-adv-x="432" 
d="M218 384l-76 -160q-7 -14 0 -29l76 -163q-8 -16 -22 -15l-152 174q-15 18 0 36l152 172q17 -4 22 -15zM396 384l-76 -160q-7 -14 0 -29l76 -163q-8 -16 -22 -15l-152 174q-15 18 0 36l152 172q17 -4 22 -15z" />
    <glyph glyph-name="logicalnot" unicode="&#xac;" horiz-adv-x="520" 
d="M373 67v183h-313v72h401v-255h-88z" />
    <glyph glyph-name="uni00AD" unicode="&#xad;" horiz-adv-x="328" 
d="M45 237l239 22q14 -16 14 -42q0 -23 -13 -39l-240 -22q-15 15 -15 40q0 22 15 41z" />
    <glyph glyph-name="registered" unicode="&#xae;" horiz-adv-x="346" 
d="M123 505v63q0 21 -13 22h-5q-2 3 -1.5 7t3.5 5q50 2 66 2q60 0 60 -37q0 -22 -22 -31q-3 -1 0 -8q18 -35 30 -44q9 -6 11 -6t2 -3.5t-2 -4.5q-6 -1 -17 -1q-28 0 -44 23q-2 3 -17 28q-3 6 -10 6q-5 0 -5 -5v-16q0 -13 2 -17.5t12 -5.5l4 -1q1 -1 1 -5.5t-1 -5.5
q-6 0 -17.5 0.5t-18.5 0.5t-18 -0.5t-16 -0.5q-3 1 -3.5 5.5t1.5 5.5l5 1q9 2 11 6t2 17zM159 580v-33q0 -6 1.5 -7t10.5 -1q20 0 20 22q0 28 -19 28q-9 0 -11 -1.5t-2 -7.5zM173 676q59 0 101 -41t42 -99t-42 -99t-101 -41t-101 41t-42 99t42 99t101 41zM173 652
q-45 0 -77 -34t-32 -82t32 -81.5t77 -33.5t77 33.5t32 81.5q0 49 -32 82.5t-77 33.5z" />
    <glyph glyph-name="macron" unicode="&#xaf;" horiz-adv-x="380" 
d="M316 501h-253q-9 12 -9 35.5t9 35.5h253q10 -12 10 -35.5t-10 -35.5z" />
    <glyph glyph-name="degree" unicode="&#xb0;" horiz-adv-x="374" 
d="M187 640q62 0 104.5 -39.5t42.5 -102.5q0 -65 -42.5 -103.5t-104.5 -38.5t-104.5 38.5t-42.5 103.5q0 63 42.5 102.5t104.5 39.5zM265 498q0 43 -22 70.5t-56 27.5t-56 -27.5t-22 -70.5t22 -70.5t56 -27.5q37 0 57.5 27t20.5 71z" />
    <glyph glyph-name="plusminus" unicode="&#xb1;" horiz-adv-x="520" 
d="M305 100h-88v147h-157v72h157v139h88v-139h156v-72h-156v-147zM461 0h-401v72h401v-72z" />
    <glyph glyph-name="twosuperior" unicode="&#xb2;" 
d="M210 320h-96q-43 0 -65 -2q-11 6 -7 19q50 39 101 91q75 79 75 158q0 31 -16 50t-43 19q-48 0 -81 -59q-8 -6 -18 -0.5t-10 17.5q25 49 66.5 74.5t88.5 25.5q64 0 99.5 -31t35.5 -81q0 -72 -98 -145l-31 -23l-25 -21q-7 -7 -4.5 -12t12.5 -5h62q38 0 55 6t29 28
q14 5 23 -4q-12 -65 -39 -107q-54 2 -114 2z" />
    <glyph glyph-name="threesuperior" unicode="&#xb3;" 
d="M116 281q-29 0 -52.5 13.5t-23.5 39.5q0 15 10.5 28t32.5 13q6 0 11.5 -2t9.5 -5t9 -7.5t7 -7.5l5.5 -8.5t4.5 -6.5q11 -17 29 -17q26 -1 50.5 26.5t24.5 78.5q0 38 -18 61t-47 23q-39 0 -67 -25q-14 3 -18.5 15.5t2.5 20.5q25 9 38 15t38 19.5t37 30t12 35.5
q0 18 -12 29t-33 11q-41 0 -74 -50q-9 -4 -17.5 2t-7.5 15q21 40 59.5 62.5t82.5 22.5q48 0 78.5 -21t30.5 -53q0 -24 -16 -42t-61 -36q-9 -4 3 -8q2 -1 5 -1q45 -5 75 -28.5t30 -69.5q0 -74 -83 -126q-74 -47 -155 -47z" />
    <glyph glyph-name="acute" unicode="&#xb4;" horiz-adv-x="380" 
d="M96 473l91 182q14 30 31 30q16 0 39 -16q27 -21 27 -36t-22 -37l-141 -139q-22 -3 -25 16z" />
    <glyph glyph-name="mu" unicode="&#xb5;" horiz-adv-x="536" 
d="M466 320v-214q0 -29 4 -40t16 -11q19 0 39 20q6 -4 10.5 -13t1.5 -15q-39 -60 -122 -60q-68 0 -75 76q-1 7 -2 9.5t-4 1.5q-36 -88 -132 -88q-34 0 -65 21q-12 0 -12 -22v-19q0 -33 15.5 -71t31.5 -65.5t16 -35.5q0 -22 -32 -42.5t-60 -20.5q-23 0 -23 51v609q0 9 13 9
h111q9 -2 10 -9q-3 -18 -3 -77v-190q0 -69 45 -69q46 0 75 63q12 26 12 49v218q0 14 12 15h111q9 -2 10 -9q-3 -28 -3 -71z" />
    <glyph glyph-name="paragraph" unicode="&#xb6;" horiz-adv-x="490" 
d="M372 448v-426q0 -154 -62 -201q-28 -21 -82 -21q-43 0 -75 22t-32 66q0 23 10 40t23 21q28 1 47.5 -9.5t22.5 -24.5q-1 -1 -5 -8t-6.5 -14.5t-2.5 -14.5q0 -18 11.5 -28.5t29.5 -10.5q68 0 68 144v117q0 21 -5.5 28.5t-20.5 7.5q-110 0 -181.5 56.5t-71.5 146.5
q0 117 96 172q77 44 203 44q87 0 119 -6q7 -4 7 -15t-6 -16l-34 -6q-39 -7 -46 -15.5t-7 -48.5z" />
    <glyph glyph-name="periodcentered" unicode="&#xb7;" horiz-adv-x="260" 
d="M130 126q-32 0 -56.5 23t-24.5 58t23.5 59t57.5 24q35 0 58 -25t23 -58q0 -35 -22.5 -58t-58.5 -23z" />
    <glyph glyph-name="cedilla" unicode="&#xb8;" horiz-adv-x="380" 
d="M217 0h53l-38 -52q-6 -8 -4 -11.5t13 -9.5q61 -33 61 -85q0 -40 -38 -66.5t-89 -26.5q-77 0 -77 44q0 14 9 23.5t23 9.5q15 0 36.5 -18.5t31.5 -18.5q9 0 17.5 7t8.5 18q0 40 -76 72l-3 8z" />
    <glyph glyph-name="onesuperior" unicode="&#xb9;" 
d="M150 417v160q0 29 -5.5 40t-26.5 14l-31 4q-6 4 -6 14t6 14q99 13 167 50q10 0 12 -8q-3 -51 -3 -88v-200q0 -31 1 -41t7.5 -17.5t21.5 -9.5l30 -4q5 -4 4 -14t-6 -13q-74 2 -115 2q-40 0 -114 -2q-5 3 -6 13t4 14l30 4q22 3 26 14.5t4 53.5z" />
    <glyph glyph-name="ordmasculine" unicode="&#xba;" horiz-adv-x="404" 
d="M205 540q74 0 120 -40.5t46 -107.5q0 -73 -48 -112.5t-123 -39.5q-73 0 -119.5 37.5t-46.5 105.5q0 73 49.5 115t121.5 42zM257 370q0 60 -14.5 97t-41.5 37q-23 0 -38 -25t-15 -74q0 -60 15.5 -94.5t43.5 -34.5q24 0 37 27t13 67z" />
    <glyph glyph-name="guillemotright" unicode="&#xbb;" horiz-adv-x="432" 
d="M112 224l-76 160q5 11 22 15l152 -172q15 -18 0 -36l-152 -174q-14 -1 -22 15l76 163q7 15 0 29zM290 224l-76 160q5 11 22 15l152 -172q15 -18 0 -36l-152 -174q-14 -1 -22 15l76 163q7 15 0 29z" />
    <glyph glyph-name="onequarter" unicode="&#xbc;" horiz-adv-x="840" 
d="M608 76v14q0 13 -2 15.5t-13 2.5h-153q-11 6 -7 23l216 283q10 12 20 12h29q5 0 7.5 -3t1.5 -8t-6 -11l-196 -247q-1 -10 15 -11h73q10 0 12.5 3t2.5 14v75q0 17 18 22q60 18 82 18q11 0 11 -10v-105q0 -11 2.5 -14t12.5 -3h44q8 -3 8 -18.5t-8 -19.5h-44q-11 0 -13 -2.5
t-2 -15.5v-14q0 -30 5.5 -39t30.5 -11l13 -1q5 -4 5 -13.5t-6 -13.5q-78 2 -112 2q-48 0 -106 -2q-6 3 -6.5 13t4.5 14l20 1q30 1 35.5 9t5.5 41zM628 630l-370 -670q-14 -3 -28 4t-19 20l370 670q13 2 28.5 -5t18.5 -19zM140 344v160q0 29 -5.5 40t-26.5 14l-31 4
q-6 4 -6 14t6 14q99 13 167 50q10 0 12 -8q-3 -51 -3 -88v-200q0 -31 1 -41t7.5 -17.5t21.5 -9.5l30 -4q5 -4 4 -14t-6 -13q-74 2 -115 2q-40 0 -114 -2q-5 3 -6 13t4 14l30 4q22 3 26 14.5t4 53.5z" />
    <glyph glyph-name="onehalf" unicode="&#xbd;" horiz-adv-x="840" 
d="M616 630l-370 -670q-14 -3 -28 4t-19 20l370 670q13 2 28.5 -5t18.5 -19zM129 344v160q0 29 -5.5 40t-26.5 14l-31 4q-6 4 -6 14t6 14q99 13 167 50q10 0 12 -8q-3 -51 -3 -88v-200q0 -31 1 -41t7.5 -17.5t21.5 -9.5l30 -4q5 -4 4 -14t-6 -13q-74 2 -115 2q-40 0 -114 -2
q-5 3 -6 13t4 14l30 4q22 3 26 14.5t4 53.5zM653 0h-96q-43 0 -65 -2q-11 6 -7 19q50 39 101 91q75 79 75 158q0 31 -16 50t-43 19q-48 0 -81 -59q-7 -6 -17.5 -0.5t-10.5 17.5q25 49 66.5 74.5t88.5 25.5q64 0 99.5 -31t35.5 -81q0 -72 -98 -145l-31 -23l-25 -21
q-7 -7 -4.5 -12t12.5 -5h62q38 0 55 6t29 28q14 5 23 -4q-12 -65 -39 -107q-54 2 -114 2z" />
    <glyph glyph-name="threequarters" unicode="&#xbe;" horiz-adv-x="840" 
d="M643 76v14q0 13 -2 15.5t-13 2.5h-153q-11 6 -7 23l216 283q10 12 20 12h29q5 0 7.5 -3t1.5 -8t-6 -11l-196 -247q-1 -10 15 -11h73q10 0 12.5 3t2.5 14v75q0 17 18 22q60 18 82 18q11 0 11 -10v-105q0 -11 2.5 -14t12.5 -3h44q8 -3 8 -18.5t-8 -19.5h-44q-11 0 -13 -2.5
t-2 -15.5v-14q0 -30 5.5 -39t30.5 -11l13 -1q5 -4 5 -13.5t-6 -13.5q-78 2 -112 2q-48 0 -106 -2q-6 3 -6.5 13t4.5 14l20 1q30 1 35.5 9t5.5 41zM653 630l-370 -670q-14 -3 -28 4t-19 20l370 670q13 2 28.5 -5t18.5 -19zM119 208q-29 0 -52.5 13.5t-23.5 39.5q0 15 10.5 28
t32.5 13q6 0 11.5 -2t9.5 -5t9 -7.5t7 -7.5l5.5 -8.5t4.5 -6.5q11 -17 29 -17q26 -1 50.5 26.5t24.5 78.5q0 38 -18 61t-47 23q-39 0 -67 -25q-14 3 -18.5 15.5t2.5 20.5q25 9 38 15t38 19.5t37 30t12 35.5q0 18 -12 29t-33 11q-41 0 -74 -50q-9 -4 -17.5 2t-7.5 15
q21 40 59.5 62.5t82.5 22.5q48 0 78.5 -21t30.5 -53q0 -24 -16 -42t-61 -36q-9 -4 3 -8q2 -1 5 -1q45 -5 75 -28.5t30 -69.5q0 -74 -83 -126q-74 -47 -155 -47z" />
    <glyph glyph-name="questiondown" unicode="&#xbf;" horiz-adv-x="332" 
d="M222 -266q-70 0 -126 61.5t-56 142.5q0 78 63 107l66 30q41 18 41 43t-10 54q4 7 15.5 9t17.5 -4q15 -21 29.5 -55.5t14.5 -62.5q0 -39 -20 -58.5t-70 -40.5l-47 -20q-26 -11 -37 -18.5t-11 -17.5q0 -23 33.5 -33.5t111.5 -10.5q18 0 36.5 -17t18.5 -47q0 -26 -19.5 -44
t-50.5 -18zM201 394q35 0 58 -25t23 -58q0 -35 -22.5 -58t-58.5 -23q-32 0 -56.5 23t-24.5 58t23.5 59t57.5 24z" />
    <glyph glyph-name="Agrave" unicode="&#xc0;" horiz-adv-x="624" 
d="M324 226h-119q-18 0 -23.5 -3t-9.5 -17l-39 -116q-7 -23 -7 -36q0 -10 41 -17l30 -5q5 -6 5 -19t-7 -16q-9 1 -113 3q-16 0 -47 -1.5t-56 -1.5q-8 4 -8.5 16.5t5.5 18.5l27 3q21 3 35 13t26 37q26 60 63 160l91 244l13 34l11.5 30.5t7.5 22.5t5 22.5t0 17.5q13 3 27 10.5
t24 15.5t18 16l13 13l5 5q18 0 23 -20q12 -42 45 -137l136 -392q18 -50 29.5 -67.5t37.5 -21.5l38 -6q5 -4 5 -17t-6 -18q-72 3 -154 3q-66 0 -135 -3q-8 5 -9 17t7 18l32 5q27 5 27 17q0 9 -19 68l-27 86q-4 12 -12.5 15t-35.5 3zM225 279h94q18 0 21.5 4.5t-1.5 24.5
l-26 81q-30 93 -41 118q-2 -6 -10.5 -29.5l-17 -48.5l-15.5 -45l-25 -75q-6 -20 -2 -25t23 -5zM232 854l162 -118q6 -15 -11 -30l-196 64q-28 8 -32 25q-5 17 10 43q16 31 34 31q11 0 33 -15z" />
    <glyph glyph-name="Aacute" unicode="&#xc1;" horiz-adv-x="624" 
d="M324 226h-119q-18 0 -23.5 -3t-9.5 -17l-39 -116q-7 -23 -7 -36q0 -10 41 -17l30 -5q5 -6 5 -19t-7 -16q-9 1 -113 3q-16 0 -47 -1.5t-56 -1.5q-8 4 -8.5 16.5t5.5 18.5l27 3q21 3 35 13t26 37q26 60 63 160l91 244l13 34l11.5 30.5t7.5 22.5t5 22.5t0 17.5q13 3 27 10.5
t24 15.5t18 16l13 13l5 5q18 0 23 -20q12 -42 45 -137l136 -392q18 -50 29.5 -67.5t37.5 -21.5l38 -6q5 -4 5 -17t-6 -18q-72 3 -154 3q-66 0 -135 -3q-8 5 -9 17t7 18l32 5q27 5 27 17q0 9 -19 68l-27 86q-4 12 -12.5 15t-35.5 3zM225 279h94q18 0 21.5 4.5t-1.5 24.5
l-26 81q-30 93 -41 118q-2 -6 -10.5 -29.5l-17 -48.5l-15.5 -45l-25 -75q-6 -20 -2 -25t23 -5zM249 731l162 121q23 17 33 17q18 0 34 -31q15 -26 10 -43q-4 -17 -32 -25l-196 -64q-16 6 -11 25z" />
    <glyph glyph-name="Acircumflex" unicode="&#xc2;" horiz-adv-x="624" 
d="M324 226h-119q-18 0 -23.5 -3t-9.5 -17l-39 -116q-7 -23 -7 -36q0 -10 41 -17l30 -5q5 -6 5 -19t-7 -16q-9 1 -113 3q-16 0 -47 -1.5t-56 -1.5q-8 4 -8.5 16.5t5.5 18.5l27 3q21 3 35 13t26 37q26 60 63 160l91 244l13 34l11.5 30.5t7.5 22.5t5 22.5t0 17.5q13 3 27 10.5
t24 15.5t18 16l13 13l5 5q18 0 23 -20q12 -42 45 -137l136 -392q18 -50 29.5 -67.5t37.5 -21.5l38 -6q5 -4 5 -17t-6 -18q-72 3 -154 3q-66 0 -135 -3q-8 5 -9 17t7 18l32 5q27 5 27 17q0 9 -19 68l-27 86q-4 12 -12.5 15t-35.5 3zM225 279h94q18 0 21.5 4.5t-1.5 24.5
l-26 81q-30 93 -41 118q-2 -6 -10.5 -29.5l-17 -48.5l-15.5 -45l-25 -75q-6 -20 -2 -25t23 -5zM459 706l-121 50q-17 10 -33 1l-120 -51q-7 0 -12 8t-2 16l127 119q23 23 47 0l127 -119q3 -8 -2 -15.5t-11 -8.5z" />
    <glyph glyph-name="Atilde" unicode="&#xc3;" horiz-adv-x="624" 
d="M324 226h-119q-18 0 -23.5 -3t-9.5 -17l-39 -116q-7 -23 -7 -36q0 -10 41 -17l30 -5q5 -6 5 -19t-7 -16q-9 1 -113 3q-16 0 -47 -1.5t-56 -1.5q-8 4 -8.5 16.5t5.5 18.5l27 3q21 3 35 13t26 37q26 60 63 160l91 244l13 34l11.5 30.5t7.5 22.5t5 22.5t0 17.5q13 3 27 10.5
t24 15.5t18 16l13 13l5 5q18 0 23 -20q12 -42 45 -137l136 -392q18 -50 29.5 -67.5t37.5 -21.5l38 -6q5 -4 5 -17t-6 -18q-72 3 -154 3q-66 0 -135 -3q-8 5 -9 17t7 18l32 5q27 5 27 17q0 9 -19 68l-27 86q-4 12 -12.5 15t-35.5 3zM225 279h94q18 0 21.5 4.5t-1.5 24.5
l-26 81q-30 93 -41 118q-2 -6 -10.5 -29.5l-17 -48.5l-15.5 -45l-25 -75q-6 -20 -2 -25t23 -5zM350 742h-49q-35 0 -53.5 -11.5t-36.5 -42.5q-7 -3 -18.5 -1.5t-14.5 7.5q15 59 43 92q24 28 64 28h59q27 0 43.5 9t27.5 38q26 6 33 -5q-11 -52 -35 -86q-20 -28 -63 -28z" />
    <glyph glyph-name="Adieresis" unicode="&#xc4;" horiz-adv-x="624" 
d="M324 226h-119q-18 0 -23.5 -3t-9.5 -17l-39 -116q-7 -23 -7 -36q0 -10 41 -17l30 -5q5 -6 5 -19t-7 -16q-9 1 -113 3q-16 0 -47 -1.5t-56 -1.5q-8 4 -8.5 16.5t5.5 18.5l27 3q21 3 35 13t26 37q26 60 63 160l91 244l13 34l11.5 30.5t7.5 22.5t5 22.5t0 17.5q13 3 27 10.5
t24 15.5t18 16l13 13l5 5q18 0 23 -20q12 -42 45 -137l136 -392q18 -50 29.5 -67.5t37.5 -21.5l38 -6q5 -4 5 -17t-6 -18q-72 3 -154 3q-66 0 -135 -3q-8 5 -9 17t7 18l32 5q27 5 27 17q0 9 -19 68l-27 86q-4 12 -12.5 15t-35.5 3zM225 279h94q18 0 21.5 4.5t-1.5 24.5
l-26 81q-30 93 -41 118q-2 -6 -10.5 -29.5l-17 -48.5l-15.5 -45l-25 -75q-6 -20 -2 -25t23 -5zM208 712q-26 0 -43 15t-18 43q0 28 17.5 46t43.5 18t43 -17.5t17 -41.5q0 -28 -17 -45.5t-43 -17.5zM417 712q-26 0 -43 15t-18 43q0 28 17.5 46t43.5 18t43 -17.5t17 -41.5
q0 -28 -17 -45.5t-43 -17.5z" />
    <glyph glyph-name="Aring" unicode="&#xc5;" horiz-adv-x="624" 
d="M324 226h-119q-18 0 -23.5 -3t-9.5 -17l-39 -116q-7 -23 -7 -36q0 -10 41 -17l30 -5q5 -6 5 -19t-7 -16q-9 1 -113 3q-16 0 -47 -1.5t-56 -1.5q-8 4 -8.5 16.5t5.5 18.5l27 3q21 3 35 13t26 37q26 60 63 160l91 244l13 34l11.5 30.5t7.5 22.5t5 22.5t0 17.5q13 3 27 10.5
t24 15.5t18 16l13 13l5 5q18 0 23 -20q12 -42 45 -137l136 -392q18 -50 29.5 -67.5t37.5 -21.5l38 -6q5 -4 5 -17t-6 -18q-72 3 -154 3q-66 0 -135 -3q-8 5 -9 17t7 18l32 5q27 5 27 17q0 9 -19 68l-27 86q-4 12 -12.5 15t-35.5 3zM225 279h94q18 0 21.5 4.5t-1.5 24.5
l-26 81q-30 93 -41 118q-2 -6 -10.5 -29.5l-17 -48.5l-15.5 -45l-25 -75q-6 -20 -2 -25t23 -5zM312 689q-46 0 -74.5 29.5t-28.5 69.5q0 39 28.5 68.5t74.5 29.5t74.5 -29.5t28.5 -68.5q0 -40 -28.5 -69.5t-74.5 -29.5zM312 727q21 0 33 17.5t12 43.5t-12 44t-33 19
q-21 -1 -33 -19t-12 -44t12 -43.5t33 -17.5z" />
    <glyph glyph-name="AE" unicode="&#xc6;" horiz-adv-x="841" 
d="M367 144v140q0 22 -4 27.5t-22 5.5h-105q-18 0 -25 -3.5t-13 -15.5q-64 -123 -104 -216q-8 -20 -8 -29q0 -11 25 -15l38 -6q8 -5 7.5 -18.5t-8.5 -16.5q-51 3 -114 3q-49 0 -103 -3q-7 5 -7.5 17.5t6.5 17.5l27 4q23 3 39 16.5t35 46.5q108 193 228 431q30 60 30 72
t-21 16l-58 10q-7 5 -7 18t10 17q71 -3 173 -3h258q114 0 134 3q0 -6 2.5 -30.5t5.5 -60t5 -64.5q-3 -8 -16.5 -9.5t-20.5 5.5q-18 58 -38 79q-31 31 -98 31h-80q-24 0 -28.5 -5.5t-4.5 -33.5v-175q0 -21 4 -25.5t24 -4.5h69q40 0 53.5 9.5t20.5 45.5l5 25q5 6 19 6t18 -7
q-3 -48 -3 -106t3 -106q-4 -7 -18 -7.5t-19 6.5l-5 25q-7 36 -21 46t-53 10h-69q-20 0 -24 -4.5t-4 -26.5v-119q0 -72 16 -95q10 -14 31.5 -20t73.5 -6q39 0 57.5 2.5t41.5 13.5t39.5 34.5t37.5 65.5q6 8 20 6t17 -11q-3 -37 -17 -87.5t-25 -72.5q-108 3 -231 3h-130
q-54 0 -167 -3q-6 5 -6 18t6 17l47 7q35 5 43 21t8 84zM254 370h87q18 0 22 6t4 32v160q0 38 -3 46h-5q-12 -15 -40 -72l-79 -156q-4 -11 -1.5 -13.5t15.5 -2.5z" />
    <glyph glyph-name="Ccedilla" unicode="&#xc7;" horiz-adv-x="689" 
d="M345 -106l61 91q-148 7 -239 75q-127 97 -127 262t121 265q107 89 277 89q45 0 89 -6t76 -12.5t41 -7.5q0 -79 12 -156q-3 -9 -18 -11.5t-20 4.5q-42 143 -188 143q-92 0 -161 -77t-69 -217q0 -142 69.5 -224t165.5 -82q142 0 204 155q6 6 20 4t18 -11q-11 -112 -38 -157
q-116 -33 -181 -36l-26 -37q-4 -5 -4 -8t2.5 -6t10.5 -7q61 -33 61 -85q0 -40 -38 -66.5t-89 -26.5q-77 0 -77 44q0 14 9 23.5t23 9.5q15 0 36.5 -18.5t31.5 -18.5q9 0 17.5 7t8.5 18q0 40 -76 72z" />
    <glyph glyph-name="Egrave" unicode="&#xc8;" horiz-adv-x="593" 
d="M257 575v-175q0 -21 4 -25.5t24 -4.5h69q40 0 53.5 9.5t20.5 45.5l5 25q5 6 19 6t18 -7q-3 -48 -3 -106t3 -106q-4 -7 -18 -7.5t-19 6.5l-5 25q-7 36 -21 46t-53 10h-69q-20 0 -24 -4.5t-4 -26.5v-119q0 -72 16 -95q10 -14 31.5 -20t73.5 -6q39 0 57.5 2.5t41.5 13.5
t39.5 34.5t37.5 65.5q6 8 20 6t17 -11q-3 -37 -17 -87.5t-25 -72.5q-79 3 -231 3h-130q-60 0 -172 -3q-6 5 -6 18t6 17l47 7q35 5 43 21t8 84v373q0 67 -8 83t-43 23l-25 5q-7 4 -6 17.5t8 17.5q71 -3 144 -3h212q115 0 134 3q0 -6 2.5 -30.5t5.5 -60t5 -64.5
q-3 -8 -16.5 -9.5t-20.5 5.5q-18 58 -38 79q-31 31 -98 31h-80q-24 0 -28.5 -5.5t-4.5 -33.5zM207 854l162 -118q6 -15 -11 -30l-196 64q-28 8 -32 25q-5 17 10 43q16 31 34 31q11 0 33 -15z" />
    <glyph glyph-name="Eacute" unicode="&#xc9;" horiz-adv-x="593" 
d="M257 575v-175q0 -21 4 -25.5t24 -4.5h69q40 0 53.5 9.5t20.5 45.5l5 25q5 6 19 6t18 -7q-3 -48 -3 -106t3 -106q-4 -7 -18 -7.5t-19 6.5l-5 25q-7 36 -21 46t-53 10h-69q-20 0 -24 -4.5t-4 -26.5v-119q0 -72 16 -95q10 -14 31.5 -20t73.5 -6q39 0 57.5 2.5t41.5 13.5
t39.5 34.5t37.5 65.5q6 8 20 6t17 -11q-3 -37 -17 -87.5t-25 -72.5q-79 3 -231 3h-130q-60 0 -172 -3q-6 5 -6 18t6 17l47 7q35 5 43 21t8 84v373q0 67 -8 83t-43 23l-25 5q-7 4 -6 17.5t8 17.5q71 -3 144 -3h212q115 0 134 3q0 -6 2.5 -30.5t5.5 -60t5 -64.5
q-3 -8 -16.5 -9.5t-20.5 5.5q-18 58 -38 79q-31 31 -98 31h-80q-24 0 -28.5 -5.5t-4.5 -33.5zM254 731l162 121q23 17 33 17q18 0 34 -31q15 -26 10 -43q-4 -17 -32 -25l-196 -64q-16 6 -11 25z" />
    <glyph glyph-name="Ecircumflex" unicode="&#xca;" horiz-adv-x="593" 
d="M257 575v-175q0 -21 4 -25.5t24 -4.5h69q40 0 53.5 9.5t20.5 45.5l5 25q5 6 19 6t18 -7q-3 -48 -3 -106t3 -106q-4 -7 -18 -7.5t-19 6.5l-5 25q-7 36 -21 46t-53 10h-69q-20 0 -24 -4.5t-4 -26.5v-119q0 -72 16 -95q10 -14 31.5 -20t73.5 -6q39 0 57.5 2.5t41.5 13.5
t39.5 34.5t37.5 65.5q6 8 20 6t17 -11q-3 -37 -17 -87.5t-25 -72.5q-79 3 -231 3h-130q-60 0 -172 -3q-6 5 -6 18t6 17l47 7q35 5 43 21t8 84v373q0 67 -8 83t-43 23l-25 5q-7 4 -6 17.5t8 17.5q71 -3 144 -3h212q115 0 134 3q0 -6 2.5 -30.5t5.5 -60t5 -64.5
q-3 -8 -16.5 -9.5t-20.5 5.5q-18 58 -38 79q-31 31 -98 31h-80q-24 0 -28.5 -5.5t-4.5 -33.5zM431 706l-115 48q-17 8 -32 1l-114 -49q-7 0 -11.5 7.5t-1.5 15.5l121 113q23 21 44 0l121 -113q3 -8 -1.5 -15t-10.5 -8z" />
    <glyph glyph-name="Edieresis" unicode="&#xcb;" horiz-adv-x="593" 
d="M257 575v-175q0 -21 4 -25.5t24 -4.5h69q40 0 53.5 9.5t20.5 45.5l5 25q5 6 19 6t18 -7q-3 -48 -3 -106t3 -106q-4 -7 -18 -7.5t-19 6.5l-5 25q-7 36 -21 46t-53 10h-69q-20 0 -24 -4.5t-4 -26.5v-119q0 -72 16 -95q10 -14 31.5 -20t73.5 -6q39 0 57.5 2.5t41.5 13.5
t39.5 34.5t37.5 65.5q6 8 20 6t17 -11q-3 -37 -17 -87.5t-25 -72.5q-79 3 -231 3h-130q-60 0 -172 -3q-6 5 -6 18t6 17l47 7q35 5 43 21t8 84v373q0 67 -8 83t-43 23l-25 5q-7 4 -6 17.5t8 17.5q71 -3 144 -3h212q115 0 134 3q0 -6 2.5 -30.5t5.5 -60t5 -64.5
q-3 -8 -16.5 -9.5t-20.5 5.5q-18 58 -38 79q-31 31 -98 31h-80q-24 0 -28.5 -5.5t-4.5 -33.5zM207 712q-26 0 -43 15t-18 43q0 28 17.5 46t43.5 18t43 -17.5t17 -41.5q0 -28 -17 -45.5t-43 -17.5zM416 712q-26 0 -43 15t-18 43q0 28 17.5 46t43.5 18t43 -17.5t17 -41.5
q0 -28 -17 -45.5t-43 -17.5z" />
    <glyph glyph-name="Igrave" unicode="&#xcc;" horiz-adv-x="371" 
d="M257 514v-368q0 -69 8.5 -86t43.5 -23l28 -5q6 -5 5.5 -17.5t-6.5 -17.5q-81 3 -150 3q-71 0 -152 -3q-6 5 -6 18t6 17l28 5q35 6 43.5 23t8.5 86v368q0 69 -8.5 86t-43.5 23l-28 5q-6 4 -6 17t6 18q81 -3 152 -3q70 0 151 3q6 -5 6 -18t-6 -17l-28 -5q-35 -6 -43.5 -23
t-8.5 -86zM99 858l158 -122q6 -15 -11 -30l-196 64q-28 8 -32 25q-5 17 11 42q25 37 38 37q12 0 32 -16z" />
    <glyph glyph-name="Iacute" unicode="&#xcd;" horiz-adv-x="371" 
d="M257 514v-368q0 -69 8.5 -86t43.5 -23l28 -5q6 -5 5.5 -17.5t-6.5 -17.5q-81 3 -150 3q-71 0 -152 -3q-6 5 -6 18t6 17l28 5q35 6 43.5 23t8.5 86v368q0 69 -8.5 86t-43.5 23l-28 5q-6 4 -6 17t6 18q81 -3 152 -3q70 0 151 3q6 -5 6 -18t-6 -17l-28 -5q-35 -6 -43.5 -23
t-8.5 -86zM113 731l162 125q23 17 33 17q18 0 34 -31q15 -31 10 -47q-4 -17 -32 -25l-196 -64q-16 6 -11 25z" />
    <glyph glyph-name="Icircumflex" unicode="&#xce;" horiz-adv-x="371" 
d="M257 514v-368q0 -69 8.5 -86t43.5 -23l28 -5q6 -5 5.5 -17.5t-6.5 -17.5q-81 3 -150 3q-71 0 -152 -3q-6 5 -6 18t6 17l28 5q35 6 43.5 23t8.5 86v368q0 69 -8.5 86t-43.5 23l-28 5q-6 4 -6 17t6 18q81 -3 152 -3q70 0 151 3q6 -5 6 -18t-6 -17l-28 -5q-35 -6 -43.5 -23
t-8.5 -86zM328 706l-121 53q-17 7 -33 0l-120 -53q-7 0 -12 8t-2 16l127 119q23 23 47 0l127 -119q3 -8 -2 -15.5t-11 -8.5z" />
    <glyph glyph-name="Idieresis" unicode="&#xcf;" horiz-adv-x="371" 
d="M257 514v-368q0 -69 8.5 -86t43.5 -23l28 -5q6 -5 5.5 -17.5t-6.5 -17.5q-81 3 -150 3q-71 0 -152 -3q-6 5 -6 18t6 17l28 5q35 6 43.5 23t8.5 86v368q0 69 -8.5 86t-43.5 23l-28 5q-6 4 -6 17t6 18q81 -3 152 -3q70 0 151 3q6 -5 6 -18t-6 -17l-28 -5q-35 -6 -43.5 -23
t-8.5 -86zM82 712q-26 0 -43 15t-18 43q0 28 17.5 46t43.5 18t43 -17.5t17 -41.5q0 -28 -17 -45.5t-43 -17.5zM291 712q-26 0 -43 15t-18 43q0 28 17.5 46t43.5 18t43 -17.5t17 -41.5q0 -28 -17 -45.5t-43 -17.5z" />
    <glyph glyph-name="Eth" unicode="&#xd0;" horiz-adv-x="803" 
d="M120 144v173h-84q-8 9 -8 25.5t8 27.5h84v128q0 75 -7.5 95t-40.5 24l-19 2q-8 4 -7.5 19t9.5 16q151 9 268 9q142 0 233 -33q96 -34 149.5 -113.5t53.5 -176.5q0 -101 -46.5 -178.5t-132.5 -120.5q-94 -47 -253 -47q-25 0 -70.5 3t-62.5 3q-70 0 -156 -3q-6 5 -6 18
t6 17l31 5q34 5 42.5 22t8.5 85zM263 546v-176h134q8 -8 8 -26t-8 -27h-134v-136q0 -89 20 -112q26 -29 83 -29q62 0 108.5 25.5t72.5 69t38.5 92.5t12.5 103q0 137 -71 212t-205 75q-42 0 -52 -13q-7 -9 -7 -58z" />
    <glyph glyph-name="Ntilde" unicode="&#xd1;" horiz-adv-x="748" 
d="M652 409v-239q0 -128 2 -161q-5 -9 -23 -16t-36 -7l-10 14q-10 15 -30 42.5t-41 52.5l-231 286q-95 116 -109 128q-5 -10 -5 -64v-194q0 -146 15 -183q11 -25 58 -32l28 -4q6 -6 5.5 -18t-5.5 -17q-81 3 -134 3q-55 0 -112 -3q-5 5 -5.5 17t5.5 18l17 3q46 8 55 33
q14 34 14 183v254q0 69 -7 85q-13 28 -57 34l-28 4q-6 6 -4.5 19.5t8.5 15.5q70 -3 138 -3q52 0 84 3q4 -16 15.5 -36.5t39.5 -57t45.5 -57.5l64.5 -77l84 -99q77 -91 96 -110q4 10 4 45v138q0 146 -15 183q-11 25 -58 32l-27 4q-6 6 -5.5 18t5.5 17q81 -3 134 -3
q54 0 112 3q5 -5 5.5 -17t-5.5 -18l-18 -3q-43 -7 -54 -33q-15 -37 -15 -183zM443 746h-51q-36 0 -55.5 -12t-38.5 -44q-7 -4 -19 -2.5t-16 8.5q6 21 19.5 51t25.5 45q25 29 67 29h62q28 0 45 10t29 39q26 6 35 -5q-14 -57 -37 -90q-12 -17 -26 -23t-40 -6z" />
    <glyph glyph-name="Ograve" unicode="&#xd2;" horiz-adv-x="788" 
d="M397 676q156 0 253.5 -95.5t97.5 -247.5q0 -162 -99 -255.5t-262 -93.5q-153 0 -250 93t-97 248q0 150 101 250.5t256 100.5zM588 320q0 132 -54 221t-145 89q-90 0 -139.5 -77t-49.5 -205q0 -51 10 -102t31.5 -102t64 -82.5t100.5 -31.5q93 0 137.5 79.5t44.5 210.5z
M314 854l162 -118q6 -15 -11 -30l-196 64q-28 8 -32 25q-5 17 10 43q16 31 34 31q11 0 33 -15z" />
    <glyph glyph-name="Oacute" unicode="&#xd3;" horiz-adv-x="788" 
d="M397 676q156 0 253.5 -95.5t97.5 -247.5q0 -162 -99 -255.5t-262 -93.5q-153 0 -250 93t-97 248q0 150 101 250.5t256 100.5zM588 320q0 132 -54 221t-145 89q-90 0 -139.5 -77t-49.5 -205q0 -51 10 -102t31.5 -102t64 -82.5t100.5 -31.5q93 0 137.5 79.5t44.5 210.5z
M321 731l162 121q23 17 33 17q18 0 34 -31q15 -26 10 -43q-4 -17 -32 -25l-196 -64q-16 6 -11 25z" />
    <glyph glyph-name="Ocircumflex" unicode="&#xd4;" horiz-adv-x="788" 
d="M397 676q156 0 253.5 -95.5t97.5 -247.5q0 -162 -99 -255.5t-262 -93.5q-153 0 -250 93t-97 248q0 150 101 250.5t256 100.5zM588 320q0 132 -54 221t-145 89q-90 0 -139.5 -77t-49.5 -205q0 -51 10 -102t31.5 -102t64 -82.5t100.5 -31.5q93 0 137.5 79.5t44.5 210.5z
M537 706l-121 50q-17 10 -33 1l-120 -51q-7 0 -12 8t-2 16l127 119q23 23 47 0l127 -119q3 -8 -2 -15.5t-11 -8.5z" />
    <glyph glyph-name="Otilde" unicode="&#xd5;" horiz-adv-x="788" 
d="M397 676q156 0 253.5 -95.5t97.5 -247.5q0 -162 -99 -255.5t-262 -93.5q-153 0 -250 93t-97 248q0 150 101 250.5t256 100.5zM588 320q0 132 -54 221t-145 89q-90 0 -139.5 -77t-49.5 -205q0 -51 10 -102t31.5 -102t64 -82.5t100.5 -31.5q93 0 137.5 79.5t44.5 210.5z
M433 746h-51q-36 0 -55.5 -12t-38.5 -45q-8 -3 -20 -1t-15 8q15 60 45 96q26 30 67 30h62q29 0 46 9.5t29 39.5q27 6 34 -5q-11 -55 -36 -91q-20 -29 -67 -29z" />
    <glyph glyph-name="Odieresis" unicode="&#xd6;" horiz-adv-x="788" 
d="M397 676q156 0 253.5 -95.5t97.5 -247.5q0 -162 -99 -255.5t-262 -93.5q-153 0 -250 93t-97 248q0 150 101 250.5t256 100.5zM588 320q0 132 -54 221t-145 89q-90 0 -139.5 -77t-49.5 -205q0 -51 10 -102t31.5 -102t64 -82.5t100.5 -31.5q93 0 137.5 79.5t44.5 210.5z
M290 712q-26 0 -43 15t-18 43q0 28 17.5 46t43.5 18t43 -17.5t17 -41.5q0 -28 -17 -45.5t-43 -17.5zM499 712q-26 0 -43 15t-18 43q0 28 17.5 46t43.5 18t43 -17.5t17 -41.5q0 -28 -17 -45.5t-43 -17.5z" />
    <glyph glyph-name="multiply" unicode="&#xd7;" horiz-adv-x="520" 
d="M458 351l-146 -147l146 -146l-52 -54l-147 147l-145 -147l-51 54l144 145l-144 145l51 54l146 -146l146 148z" />
    <glyph glyph-name="Oslash" unicode="&#xd8;" horiz-adv-x="788" 
d="M236 157l285 403q-52 70 -132 70q-90 0 -139.5 -77t-49.5 -205q0 -110 36 -191zM550 509l-285 -404q52 -75 141 -75q93 0 137.5 79.5t44.5 210.5q0 111 -38 189zM663 668l-42 -59q127 -94 127 -277q0 -161 -99 -254.5t-262 -93.5q-101 0 -178 42l-49 -69q-12 -1 -26 9
t-17 23l46 65q-123 95 -123 271q0 150 101 250.5t256 100.5q100 0 178 -39l43 60q14 1 27.5 -8t17.5 -21z" />
    <glyph glyph-name="Ugrave" unicode="&#xd9;" horiz-adv-x="740" 
d="M109 266v250q0 68 -8 84.5t-43 23.5l-25 5q-6 4 -6 17t8 17q72 -3 146 -3t146 3q6 -5 6 -17t-6 -17l-24 -4q-34 -6 -42.5 -23t-8.5 -86v-231q0 -41 2.5 -71t12 -65.5t26.5 -57.5t48.5 -37t75.5 -15q167 0 167 249v121q0 148 -15 183q-10 23 -58 32l-27 5q-6 6 -5.5 17.5
t5.5 16.5q81 -3 134 -3q55 0 112 3q5 -5 5.5 -16.5t-5.5 -17.5l-18 -4q-44 -10 -54 -33q-15 -35 -15 -183v-112q0 -82 -13 -140.5t-51 -100.5q-67 -72 -198 -72q-129 0 -198 56q-74 61 -74 226zM290 854l162 -118q6 -15 -11 -30l-196 64q-28 8 -32 25q-5 17 10 43
q16 31 34 31q11 0 33 -15z" />
    <glyph glyph-name="Uacute" unicode="&#xda;" horiz-adv-x="740" 
d="M109 266v250q0 68 -8 84.5t-43 23.5l-25 5q-6 4 -6 17t8 17q72 -3 146 -3t146 3q6 -5 6 -17t-6 -17l-24 -4q-34 -6 -42.5 -23t-8.5 -86v-231q0 -41 2.5 -71t12 -65.5t26.5 -57.5t48.5 -37t75.5 -15q167 0 167 249v121q0 148 -15 183q-10 23 -58 32l-27 5q-6 6 -5.5 17.5
t5.5 16.5q81 -3 134 -3q55 0 112 3q5 -5 5.5 -16.5t-5.5 -17.5l-18 -4q-44 -10 -54 -33q-15 -35 -15 -183v-112q0 -82 -13 -140.5t-51 -100.5q-67 -72 -198 -72q-129 0 -198 56q-74 61 -74 226zM337 731l162 121q23 17 33 17q18 0 34 -31q15 -26 10 -43q-4 -17 -32 -25
l-196 -64q-16 6 -11 25z" />
    <glyph glyph-name="Ucircumflex" unicode="&#xdb;" horiz-adv-x="740" 
d="M109 266v250q0 68 -8 84.5t-43 23.5l-25 5q-6 4 -6 17t8 17q72 -3 146 -3t146 3q6 -5 6 -17t-6 -17l-24 -4q-34 -6 -42.5 -23t-8.5 -86v-231q0 -41 2.5 -71t12 -65.5t26.5 -57.5t48.5 -37t75.5 -15q167 0 167 249v121q0 148 -15 183q-10 23 -58 32l-27 5q-6 6 -5.5 17.5
t5.5 16.5q81 -3 134 -3q55 0 112 3q5 -5 5.5 -16.5t-5.5 -17.5l-18 -4q-44 -10 -54 -33q-15 -35 -15 -183v-112q0 -82 -13 -140.5t-51 -100.5q-67 -72 -198 -72q-129 0 -198 56q-74 61 -74 226zM512 706l-115 48q-17 8 -32 0l-114 -48q-7 0 -11.5 7.5t-1.5 15.5l121 113
q23 21 44 0l121 -113q3 -8 -1.5 -15t-10.5 -8z" />
    <glyph glyph-name="Udieresis" unicode="&#xdc;" horiz-adv-x="740" 
d="M109 266v250q0 68 -8 84.5t-43 23.5l-25 5q-6 4 -6 17t8 17q72 -3 146 -3t146 3q6 -5 6 -17t-6 -17l-24 -4q-34 -6 -42.5 -23t-8.5 -86v-231q0 -41 2.5 -71t12 -65.5t26.5 -57.5t48.5 -37t75.5 -15q167 0 167 249v121q0 148 -15 183q-10 23 -58 32l-27 5q-6 6 -5.5 17.5
t5.5 16.5q81 -3 134 -3q55 0 112 3q5 -5 5.5 -16.5t-5.5 -17.5l-18 -4q-44 -10 -54 -33q-15 -35 -15 -183v-112q0 -82 -13 -140.5t-51 -100.5q-67 -72 -198 -72q-129 0 -198 56q-74 61 -74 226zM286 712q-26 0 -43 15t-18 43q0 28 17.5 46t43.5 18t43 -17.5t17 -41.5
q0 -28 -17 -45.5t-43 -17.5zM495 712q-26 0 -43 15t-18 43q0 28 17.5 46t43.5 18t43 -17.5t17 -41.5q0 -28 -17 -45.5t-43 -17.5z" />
    <glyph glyph-name="Yacute" unicode="&#xdd;" horiz-adv-x="575" 
d="M367 214v-70q0 -69 8.5 -85.5t42.5 -21.5l40 -5q5 -4 5 -17t-5 -18q-98 3 -162 3q-68 0 -157 -3q-6 5 -6 18t6 17l34 5q34 5 42.5 22t8.5 85v50q0 40 -4.5 60.5t-22.5 58.5l-119 246q-17 34 -28 46.5t-36 16.5l-34 6q-7 6 -6 19.5t10 15.5q67 -3 141 -3q95 0 146 3
q7 -3 8 -16t-6 -19l-34 -8q-24 -5 -24 -9q0 -12 26 -70l47 -107l16 -34.5l19.5 -40.5l14.5 -29q14 23 86 165q48 95 48 113q0 9 -40 16l-19 4q-6 4 -6 17.5t7 17.5q60 -3 112 -3q54 0 98 3q9 -3 9.5 -16.5t-5.5 -18.5l-26 -5q-38 -6 -52 -24q-29 -36 -87 -142l-63 -114
q-20 -36 -26.5 -61.5t-6.5 -67.5zM245 731l162 121q23 17 33 17q18 0 34 -31q15 -26 10 -43q-4 -17 -32 -25l-196 -64q-16 6 -11 25z" />
    <glyph glyph-name="Thorn" unicode="&#xde;" horiz-adv-x="594" 
d="M257 429v-285q0 -68 8.5 -85t42.5 -22l33 -5q6 -5 6 -17.5t-6 -17.5q-87 3 -154 3q-69 0 -152 -3q-6 5 -6 18t6 17l28 5q35 6 43 22.5t8 84.5v372q0 68 -8 84.5t-43 22.5l-28 5q-7 4 -6.5 17.5t9.5 17.5q74 -3 149 -3q73 0 149 3q8 -5 8 -18t-8 -17l-28 -5
q-34 -6 -42.5 -21t-8.5 -76h67q73 0 126 -20q51 -18 83 -59t32 -105q0 -88 -65.5 -132.5t-158.5 -44.5q-3 0 -9 0.5t-10 0.5q-7 4 -8 13t5 13q54 18 72.5 52t18.5 97q0 53 -28.5 96t-79.5 43q-30 0 -37.5 -9.5t-7.5 -41.5z" />
    <glyph glyph-name="germandbls" unicode="&#xdf;" horiz-adv-x="573" 
d="M214 423v-307q0 -52 6 -65t31 -18l5 -1q6 -4 6 -17.5t-7 -17.5q-29 3 -108 3q-71 0 -117 -3q-7 4 -7.5 17.5t5.5 17.5l16 2q27 3 33.5 16.5t6.5 65.5v202q0 20 -4 24t-21 4h-37q-4 3 -5.5 13t2.5 14l43 22q22 12 22 26q0 89 26 144q29 64 90 107t146 43q92 0 139.5 -42.5
t47.5 -100.5q0 -40 -14.5 -62t-49.5 -50l-16 -13q-45 -37 -45 -73q0 -10 3 -19.5t12.5 -21t15 -17t21.5 -20t21 -19.5q75 -69 75 -140q0 -68 -48 -109.5t-130 -41.5q-39 0 -67.5 15t-28.5 51q0 20 7.5 35.5t21.5 15.5q8 0 24 -17.5t36.5 -35.5t38.5 -18q15 0 25.5 12
t10.5 33q0 44 -60 96q-41 35 -63.5 65.5t-22.5 67.5q0 26 11 50.5t19 34.5t31 35q59 63 59 121q0 55 -25.5 88.5t-61.5 33.5q-56 0 -87.5 -65t-31.5 -181z" />
    <glyph glyph-name="agrave" unicode="&#xe0;" horiz-adv-x="443" 
d="M378 269l-7 -132q-3 -46 11.5 -66t33.5 -20q17 0 38 12q7 -1 10.5 -8.5t1.5 -14.5q-13 -17 -45.5 -35.5t-70.5 -18.5q-43 0 -84 35q-9 8 -16 8q-5 0 -21 -11q-44 -32 -85 -32q-47 0 -79.5 27.5t-32.5 77.5q0 38 24.5 63t79.5 41q38 12 94 28q22 6 24 20q2 22 2 34
q0 34 -14.5 60t-43.5 26q-43 0 -52 -57q-3 -21 -17 -32q-11 -8 -34.5 -15.5t-37.5 -7.5q-23 0 -23 25q0 39 48 77q77 61 168 61q135 0 128 -145zM249 100l2 63q1 12 -0.5 15.5t-6.5 2.5q-84 -11 -84 -70q0 -24 15 -42t36 -18q22 0 29.5 11.5t8.5 37.5zM191 653l91 -182
q-3 -19 -25 -16l-141 139q-22 22 -22 37t27 36q23 16 39 16q17 0 31 -30z" />
    <glyph glyph-name="aacute" unicode="&#xe1;" horiz-adv-x="443" 
d="M378 269l-7 -132q-3 -46 11.5 -66t33.5 -20q17 0 38 12q7 -1 10.5 -8.5t1.5 -14.5q-13 -17 -45.5 -35.5t-70.5 -18.5q-43 0 -84 35q-9 8 -16 8q-5 0 -21 -11q-44 -32 -85 -32q-47 0 -79.5 27.5t-32.5 77.5q0 38 24.5 63t79.5 41q38 12 94 28q22 6 24 20q2 22 2 34
q0 34 -14.5 60t-43.5 26q-43 0 -52 -57q-3 -21 -17 -32q-11 -8 -34.5 -15.5t-37.5 -7.5q-23 0 -23 25q0 39 48 77q77 61 168 61q135 0 128 -145zM249 100l2 63q1 12 -0.5 15.5t-6.5 2.5q-84 -11 -84 -70q0 -24 15 -42t36 -18q22 0 29.5 11.5t8.5 37.5zM186 463l91 182
q14 30 31 30q16 0 39 -16q27 -21 27 -36t-22 -37l-141 -139q-22 -3 -25 16z" />
    <glyph glyph-name="acircumflex" unicode="&#xe2;" horiz-adv-x="443" 
d="M378 269l-7 -132q-3 -46 11.5 -66t33.5 -20q17 0 38 12q7 -1 10.5 -8.5t1.5 -14.5q-13 -17 -45.5 -35.5t-70.5 -18.5q-43 0 -84 35q-9 8 -16 8q-5 0 -21 -11q-44 -32 -85 -32q-47 0 -79.5 27.5t-32.5 77.5q0 38 24.5 63t79.5 41q38 12 94 28q22 6 24 20q2 22 2 34
q0 34 -14.5 60t-43.5 26q-43 0 -52 -57q-3 -21 -17 -32q-11 -8 -34.5 -15.5t-37.5 -7.5q-23 0 -23 25q0 39 48 77q77 61 168 61q135 0 128 -145zM249 100l2 63q1 12 -0.5 15.5t-6.5 2.5q-84 -11 -84 -70q0 -24 15 -42t36 -18q22 0 29.5 11.5t8.5 37.5zM93 468l106 191
q7 13 23 13t23 -13l106 -191q-7 -16 -29 -18l-80 92q-16 19 -20 19t-21 -18l-80 -93q-21 2 -28 18z" />
    <glyph glyph-name="atilde" unicode="&#xe3;" horiz-adv-x="443" 
d="M378 269l-7 -132q-3 -46 11.5 -66t33.5 -20q17 0 38 12q7 -1 10.5 -8.5t1.5 -14.5q-13 -17 -45.5 -35.5t-70.5 -18.5q-43 0 -84 35q-9 8 -16 8q-5 0 -21 -11q-44 -32 -85 -32q-47 0 -79.5 27.5t-32.5 77.5q0 38 24.5 63t79.5 41q38 12 94 28q22 6 24 20q2 22 2 34
q0 34 -14.5 60t-43.5 26q-43 0 -52 -57q-3 -21 -17 -32q-11 -8 -34.5 -15.5t-37.5 -7.5q-23 0 -23 25q0 39 48 77q77 61 168 61q135 0 128 -145zM249 100l2 63q1 12 -0.5 15.5t-6.5 2.5q-84 -11 -84 -70q0 -24 15 -42t36 -18q22 0 29.5 11.5t8.5 37.5zM262 510h-56
q-58 0 -86 -49q-4 -3 -16 -1.5t-15 7.5q19 59 41 87q23 28 61 28h56q33 0 50 9t28 38q6 2 16.5 0.5t13.5 -5.5q-9 -50 -33 -86q-19 -28 -60 -28z" />
    <glyph glyph-name="adieresis" unicode="&#xe4;" horiz-adv-x="443" 
d="M378 269l-7 -132q-3 -46 11.5 -66t33.5 -20q17 0 38 12q7 -1 10.5 -8.5t1.5 -14.5q-13 -17 -45.5 -35.5t-70.5 -18.5q-43 0 -84 35q-9 8 -16 8q-5 0 -21 -11q-44 -32 -85 -32q-47 0 -79.5 27.5t-32.5 77.5q0 38 24.5 63t79.5 41q38 12 94 28q22 6 24 20q2 22 2 34
q0 34 -14.5 60t-43.5 26q-43 0 -52 -57q-3 -21 -17 -32q-11 -8 -34.5 -15.5t-37.5 -7.5q-23 0 -23 25q0 39 48 77q77 61 168 61q135 0 128 -145zM249 100l2 63q1 12 -0.5 15.5t-6.5 2.5q-84 -11 -84 -70q0 -24 15 -42t36 -18q22 0 29.5 11.5t8.5 37.5zM133 482
q-27 0 -44.5 15.5t-18.5 43.5q0 28 18 46t45 18q26 0 43.5 -17.5t17.5 -41.5q0 -29 -17 -46.5t-44 -17.5zM313 482q-27 0 -44.5 15.5t-18.5 43.5q0 28 18 46t45 18q26 0 43.5 -17.5t17.5 -41.5q0 -29 -17 -46.5t-44 -17.5z" />
    <glyph glyph-name="aring" unicode="&#xe5;" horiz-adv-x="443" 
d="M378 269l-7 -132q-3 -46 11.5 -66t33.5 -20q17 0 38 12q7 -1 10.5 -8.5t1.5 -14.5q-13 -17 -45.5 -35.5t-70.5 -18.5q-43 0 -84 35q-9 8 -16 8q-5 0 -21 -11q-44 -32 -85 -32q-47 0 -79.5 27.5t-32.5 77.5q0 38 24.5 63t79.5 41q38 12 94 28q22 6 24 20q2 22 2 34
q0 34 -14.5 60t-43.5 26q-43 0 -52 -57q-3 -21 -17 -32q-11 -8 -34.5 -15.5t-37.5 -7.5q-23 0 -23 25q0 39 48 77q77 61 168 61q135 0 128 -145zM249 100l2 63q1 12 -0.5 15.5t-6.5 2.5q-84 -11 -84 -70q0 -24 15 -42t36 -18q22 0 29.5 11.5t8.5 37.5zM222 458
q-48 0 -78 29.5t-30 69.5q0 39 30 68.5t78 29.5q49 0 78.5 -29t29.5 -69t-29.5 -69.5t-78.5 -29.5zM222 496q22 0 35 17.5t13 43.5t-13 44t-35 19q-22 -1 -35 -19t-13 -44t13 -43.5t35 -17.5z" />
    <glyph glyph-name="ae" unicode="&#xe6;" horiz-adv-x="627" 
d="M249 102v66q0 14 -10 14q-19 -2 -43 -13q-39 -17 -39 -58q0 -27 15.5 -42.5t35.5 -15.5q41 0 41 49zM442 -14q-99 0 -142 59q-6 8 -11 8q-2 0 -14 -7q-3 -2 -18.5 -13t-19.5 -13.5l-17 -10.5t-19.5 -10t-17.5 -6t-21.5 -5.5t-21.5 -1.5q-41 0 -74.5 30t-33.5 77
q0 74 100 103l104 30q8 2 10.5 7t2.5 19v11q0 22 -1 34.5t-5.5 30.5t-16 26.5t-30.5 8.5q-42 0 -51 -57q-3 -21 -17 -32q-11 -8 -35 -15.5t-36 -7.5q-23 0 -23 24q0 38 49 79q30 24 72.5 42t81.5 18q68 0 100 -44q54 44 135 44q64 0 105 -33t41 -73q0 -28 -34 -36l-197 -53
q-11 -3 -14 -7t-3 -18q0 -59 35 -95t99 -36q59 0 93 56q22 0 25 -20q-49 -113 -180 -113zM496 313q0 24 -14.5 39.5t-36.5 15.5q-31 0 -51.5 -25.5t-20.5 -55.5q0 -15 4 -19.5t16 -0.5l82 22q21 6 21 24z" />
    <glyph glyph-name="ccedilla" unicode="&#xe7;" horiz-adv-x="416" 
d="M153 -106l64 94q-84 7 -135 62t-51 138q0 103 72.5 164.5t177.5 61.5q59 0 105 -17q21 -18 21 -52q0 -22 -8.5 -39.5t-17.5 -17.5q-13 0 -16 5q-53 75 -103 75q-46 0 -73 -43.5t-27 -99.5q0 -64 38.5 -111.5t104.5 -47.5q60 0 89 49q10 1 18 -5t8 -17q-17 -38 -56 -68.5
t-95 -36.5l-29 -40q-6 -8 -4 -11.5t13 -9.5q61 -33 61 -85q0 -40 -38 -66.5t-89 -26.5q-77 0 -77 44q0 14 9 23.5t23 9.5q15 0 36.5 -18.5t31.5 -18.5q9 0 17.5 7t8.5 18q0 40 -76 72z" />
    <glyph glyph-name="egrave" unicode="&#xe8;" horiz-adv-x="420" 
d="M372 237h-192q-17 0 -21 -3t-4 -15q0 -60 37.5 -104t103.5 -44q62 0 93 52q9 2 17.5 -4.5t8.5 -18.5q-28 -59 -76 -86.5t-99 -27.5q-97 0 -152.5 59t-55.5 145q0 95 61.5 159.5t154.5 64.5q75 0 117.5 -41.5t42.5 -102.5q0 -16 -7.5 -24.5t-28.5 -8.5zM209 281h37
q27 0 41 9q7 4 7 23q0 25 -14 40t-39 15q-30 0 -54 -23.5t-24 -48.5q0 -10 9.5 -12.5t36.5 -2.5zM199 655l91 -182q-3 -19 -25 -16l-141 139q-22 22 -22 37t27 36q23 16 39 16q17 0 31 -30z" />
    <glyph glyph-name="eacute" unicode="&#xe9;" horiz-adv-x="420" 
d="M372 237h-192q-17 0 -21 -3t-4 -15q0 -60 37.5 -104t103.5 -44q62 0 93 52q9 2 17.5 -4.5t8.5 -18.5q-28 -59 -76 -86.5t-99 -27.5q-97 0 -152.5 59t-55.5 145q0 95 61.5 159.5t154.5 64.5q75 0 117.5 -41.5t42.5 -102.5q0 -16 -7.5 -24.5t-28.5 -8.5zM209 281h37
q27 0 41 9q7 4 7 23q0 25 -14 40t-39 15q-30 0 -54 -23.5t-24 -48.5q0 -10 9.5 -12.5t36.5 -2.5zM199 469l91 182q14 30 31 30q16 0 39 -16q27 -21 27 -36t-22 -37l-141 -139q-22 -3 -25 16z" />
    <glyph glyph-name="ecircumflex" unicode="&#xea;" horiz-adv-x="420" 
d="M372 237h-192q-17 0 -21 -3t-4 -15q0 -60 37.5 -104t103.5 -44q62 0 93 52q9 2 17.5 -4.5t8.5 -18.5q-28 -59 -76 -86.5t-99 -27.5q-97 0 -152.5 59t-55.5 145q0 95 61.5 159.5t154.5 64.5q75 0 117.5 -41.5t42.5 -102.5q0 -16 -7.5 -24.5t-28.5 -8.5zM209 281h37
q27 0 41 9q7 4 7 23q0 25 -14 40t-39 15q-30 0 -54 -23.5t-24 -48.5q0 -10 9.5 -12.5t36.5 -2.5zM103 463l106 191q7 13 23 13t23 -13l106 -191q-7 -16 -29 -18l-80 92q-16 19 -20 19t-21 -18l-80 -93q-21 2 -28 18z" />
    <glyph glyph-name="edieresis" unicode="&#xeb;" horiz-adv-x="420" 
d="M372 237h-192q-17 0 -21 -3t-4 -15q0 -60 37.5 -104t103.5 -44q62 0 93 52q9 2 17.5 -4.5t8.5 -18.5q-28 -59 -76 -86.5t-99 -27.5q-97 0 -152.5 59t-55.5 145q0 95 61.5 159.5t154.5 64.5q75 0 117.5 -41.5t42.5 -102.5q0 -16 -7.5 -24.5t-28.5 -8.5zM209 281h37
q27 0 41 9q7 4 7 23q0 25 -14 40t-39 15q-30 0 -54 -23.5t-24 -48.5q0 -10 9.5 -12.5t36.5 -2.5zM141 482q-27 0 -44.5 15.5t-18.5 43.5q0 28 18 46t45 18q26 0 43.5 -17.5t17.5 -41.5q0 -29 -17 -46.5t-44 -17.5zM321 482q-27 0 -44.5 15.5t-18.5 43.5q0 28 18 46t45 18
q26 0 43.5 -17.5t17.5 -41.5q0 -29 -17 -46.5t-44 -17.5z" />
    <glyph glyph-name="igrave" unicode="&#xec;" horiz-adv-x="286" 
d="M214 300v-184q0 -53 6 -66.5t31 -15.5l19 -2q6 -4 6 -17.5t-7 -17.5q-53 3 -120 3q-71 0 -120 -3q-7 4 -7 17.5t6 17.5l19 2q25 2 31 15.5t6 66.5v151q0 33 -3 44.5t-16 19.5l-14 9q-5 4 -5 15t5 15q95 26 148 58q12 0 18 -9q-3 -45 -3 -119zM111 655l91 -182
q-3 -19 -25 -16l-141 139q-22 22 -22 37t27 36q23 16 39 16q17 0 31 -30z" />
    <glyph glyph-name="iacute" unicode="&#xed;" horiz-adv-x="286" 
d="M214 300v-184q0 -53 6 -66.5t31 -15.5l19 -2q6 -4 6 -17.5t-7 -17.5q-53 3 -120 3q-71 0 -120 -3q-7 4 -7 17.5t6 17.5l19 2q25 2 31 15.5t6 66.5v151q0 33 -3 44.5t-16 19.5l-14 9q-5 4 -5 15t5 15q95 26 148 58q12 0 18 -9q-3 -45 -3 -119zM96 470l91 182q14 30 31 30
q16 0 39 -16q27 -21 27 -36t-22 -37l-141 -139q-22 -3 -25 16z" />
    <glyph glyph-name="icircumflex" unicode="&#xee;" horiz-adv-x="286" 
d="M214 300v-184q0 -53 6 -66.5t31 -15.5l19 -2q6 -4 6 -17.5t-7 -17.5q-53 3 -120 3q-71 0 -120 -3q-7 4 -7 17.5t6 17.5l19 2q25 2 31 15.5t6 66.5v151q0 33 -3 44.5t-16 19.5l-14 9q-5 4 -5 15t5 15q95 26 148 58q12 0 18 -9q-3 -45 -3 -119zM14 473l106 191q7 13 23 13
t23 -13l106 -191q-7 -16 -29 -18l-80 92q-16 19 -20 19q-5 0 -21 -18l-80 -93q-21 2 -28 18z" />
    <glyph glyph-name="idieresis" unicode="&#xef;" horiz-adv-x="286" 
d="M214 300v-184q0 -53 6 -66.5t31 -15.5l19 -2q6 -4 6 -17.5t-7 -17.5q-53 3 -120 3q-71 0 -120 -3q-7 4 -7 17.5t6 17.5l19 2q25 2 31 15.5t6 66.5v151q0 33 -3 44.5t-16 19.5l-14 9q-5 4 -5 15t5 15q95 26 148 58q12 0 18 -9q-3 -45 -3 -119zM54 482q-27 0 -44.5 15.5
t-18.5 43.5q0 28 18 46t45 18q26 0 43.5 -17.5t17.5 -41.5q0 -29 -17 -46.5t-44 -17.5zM234 482q-27 0 -44.5 15.5t-18.5 43.5q0 28 18 46t45 18q26 0 43.5 -17.5t17.5 -41.5q0 -29 -17 -46.5t-44 -17.5z" />
    <glyph glyph-name="eth" unicode="&#xf0;" horiz-adv-x="516" 
d="M491 630l-115 -55q31 -37 50 -69q60 -103 60 -224q0 -157 -65.5 -226.5t-173.5 -69.5q-91 0 -153 54t-63 152q-1 103 68.5 162.5t168.5 59.5q40 0 67 -12q-6 53 -53 127l-144 -70q-13 6 -17.5 22t1.5 26l131 63q-38 49 -87 79q-48 29 -82 33q-8 4 -9 16.5t10 16.5
q83 0 149 -32q58 -26 104 -70l134 64q12 -5 17.5 -20t1.5 -27zM269 368q-41 0 -67.5 -41t-26.5 -128q0 -75 23.5 -121t66.5 -46q44 0 64 62q19 58 17 183q-1 45 -24 68q-25 23 -53 23z" />
    <glyph glyph-name="ntilde" unicode="&#xf1;" horiz-adv-x="550" 
d="M84 116v151q0 33 -3 44.5t-16 19.5l-14 9q-5 4 -5 15t5 15q98 27 148 58q12 0 18 -9q0 -8 -1.5 -25t-1.5 -20q0 -8 5 -8q3 0 19 8q68 40 115 40q60 0 92.5 -36t32.5 -90v-172q0 -52 6.5 -65.5t33.5 -16.5l16 -2q6 -4 6 -17.5t-7 -17.5q-47 3 -121 3q-64 0 -108 -3
q-7 4 -7 17.5t6 17.5l18 3q18 3 22.5 14t4.5 52v169q0 32 -17 51.5t-53 19.5q-39 0 -56 -24q-8 -9 -8 -37v-179q0 -41 5 -53t24 -14l16 -2q6 -4 6 -17.5t-7 -17.5q-46 3 -111 3q-66 0 -118 -3q-7 4 -7 17.5t6 17.5l16 2q27 3 33.5 16.5t6.5 65.5zM318 520h-59q-60 0 -90 -51
q-5 -4 -17.5 -2t-15.5 8q18 60 43 91q25 30 64 30h59q34 0 52 9.5t30 39.5q6 2 17 0.5t14 -5.5q-9 -52 -34 -91q-20 -29 -63 -29z" />
    <glyph glyph-name="ograve" unicode="&#xf2;" horiz-adv-x="516" 
d="M255 -14q-95 0 -159 53.5t-65 152.5q-1 102 67.5 162t162.5 60t159 -56t65 -157q0 -104 -65.5 -159.5t-164.5 -55.5zM255 368q-35 0 -57.5 -38t-22.5 -116q0 -81 24 -131.5t67 -50.5q77 0 75 155q-1 78 -23 129.5t-63 51.5zM208 649l91 -182q-3 -19 -25 -16l-141 139
q-22 22 -22 37t27 36q23 16 39 16q17 0 31 -30z" />
    <glyph glyph-name="oacute" unicode="&#xf3;" horiz-adv-x="516" 
d="M255 -14q-95 0 -159 53.5t-65 152.5q-1 102 67.5 162t162.5 60t159 -56t65 -157q0 -104 -65.5 -159.5t-164.5 -55.5zM255 368q-35 0 -57.5 -38t-22.5 -116q0 -81 24 -131.5t67 -50.5q77 0 75 155q-1 78 -23 129.5t-63 51.5zM204 468l91 182q14 30 31 30q16 0 39 -16
q27 -21 27 -36t-22 -37l-141 -139q-22 -3 -25 16z" />
    <glyph glyph-name="ocircumflex" unicode="&#xf4;" horiz-adv-x="516" 
d="M255 -14q-95 0 -159 53.5t-65 152.5q-1 102 67.5 162t162.5 60t159 -56t65 -157q0 -104 -65.5 -159.5t-164.5 -55.5zM255 368q-35 0 -57.5 -38t-22.5 -116q0 -81 24 -131.5t67 -50.5q77 0 75 155q-1 78 -23 129.5t-63 51.5zM129 463l106 191q7 13 23 13t23 -13l106 -191
q-7 -16 -29 -18l-80 92q-16 19 -20 19t-21 -18l-80 -93q-21 2 -28 18z" />
    <glyph glyph-name="otilde" unicode="&#xf5;" horiz-adv-x="516" 
d="M255 -14q-95 0 -159 53.5t-65 152.5q-1 102 67.5 162t162.5 60t159 -56t65 -157q0 -104 -65.5 -159.5t-164.5 -55.5zM255 368q-35 0 -57.5 -38t-22.5 -116q0 -81 24 -131.5t67 -50.5q77 0 75 155q-1 78 -23 129.5t-63 51.5zM298 510h-56q-58 0 -86 -49q-4 -3 -16 -1.5
t-15 7.5q19 59 41 87q23 28 61 28h56q33 0 50 9t28 38q6 2 16.5 0.5t13.5 -5.5q-9 -50 -33 -86q-19 -28 -60 -28z" />
    <glyph glyph-name="odieresis" unicode="&#xf6;" horiz-adv-x="516" 
d="M255 -14q-95 0 -159 53.5t-65 152.5q-1 102 67.5 162t162.5 60t159 -56t65 -157q0 -104 -65.5 -159.5t-164.5 -55.5zM255 368q-35 0 -57.5 -38t-22.5 -116q0 -81 24 -131.5t67 -50.5q77 0 75 155q-1 78 -23 129.5t-63 51.5zM169 482q-27 0 -44.5 15.5t-18.5 43.5
q0 28 18 46t45 18q26 0 43.5 -17.5t17.5 -41.5q0 -29 -17 -46.5t-44 -17.5zM349 482q-27 0 -44.5 15.5t-18.5 43.5q0 28 18 46t45 18q26 0 43.5 -17.5t17.5 -41.5q0 -29 -17 -46.5t-44 -17.5z" />
    <glyph glyph-name="divide" unicode="&#xf7;" horiz-adv-x="520" 
d="M261 10q-25 0 -43 18t-18 43t18 42.5t43 17.5q23 0 41 -17.5t18 -42.5t-17.5 -43t-41.5 -18zM261 295q-25 0 -43 17.5t-18 43.5q0 25 18 42.5t43 17.5q23 0 41 -18t18 -42q0 -25 -17.5 -43t-41.5 -18zM461 177h-401v72h401v-72z" />
    <glyph glyph-name="oslash" unicode="&#xf8;" horiz-adv-x="516" 
d="M183 129l134 192q-21 47 -62 47q-38 0 -60.5 -38t-22.5 -116q0 -48 11 -85zM334 271l-134 -191q21 -48 66 -48q80 0 78 155q0 45 -10 84zM147 9l-41 -56q-28 4 -34 26l38 51q-78 55 -79 162q-1 102 67.5 162t162.5 60q64 0 107 -23l35 48q29 -2 35 -26l-33 -44
q80 -57 80 -168q0 -104 -65.5 -159.5t-164.5 -55.5q-63 0 -108 23z" />
    <glyph glyph-name="ugrave" unicode="&#xf9;" horiz-adv-x="544" 
d="M471 314v-182q0 -48 5 -66.5t22 -18.5q16 0 40 8q7 -1 6.5 -20t-9.5 -23q-27 -1 -56 -5t-51 -9.5l-39.5 -10l-28.5 -7.5l-10 -4q-10 1 -12 12q3 18 3 36q0 10 -11 10q-26 -17 -40 -24.5t-40.5 -15.5t-55.5 -8q-61 0 -89 31.5t-28 96.5v170q0 38 -5.5 48.5t-24.5 16.5
l-13 4q-5 7 -4 18.5t8 16.5q54 2 97 9q13 2 28 6.5l24.5 7.5t10.5 3q10 0 12 -12q-3 -37 -3 -88v-165q0 -44 13.5 -67t57.5 -23q27 0 52 19q11 8 11 30v189q0 30 -8 40t-35 14l-14 2q-6 5 -5 18.5t10 16.5q43 2 104 10q15 2 31.5 6t27 7t12.5 3q8 0 10 -12q-3 -54 -3 -88z
M237 644l91 -182q-3 -19 -25 -16l-141 139q-22 22 -22 37t27 36q23 16 39 16q17 0 31 -30z" />
    <glyph glyph-name="uacute" unicode="&#xfa;" horiz-adv-x="544" 
d="M471 314v-182q0 -48 5 -66.5t22 -18.5q16 0 40 8q7 -1 6.5 -20t-9.5 -23q-27 -1 -56 -5t-51 -9.5l-39.5 -10l-28.5 -7.5l-10 -4q-10 1 -12 12q3 18 3 36q0 10 -11 10q-26 -17 -40 -24.5t-40.5 -15.5t-55.5 -8q-61 0 -89 31.5t-28 96.5v170q0 38 -5.5 48.5t-24.5 16.5
l-13 4q-5 7 -4 18.5t8 16.5q54 2 97 9q13 2 28 6.5l24.5 7.5t10.5 3q10 0 12 -12q-3 -37 -3 -88v-165q0 -44 13.5 -67t57.5 -23q27 0 52 19q11 8 11 30v189q0 30 -8 40t-35 14l-14 2q-6 5 -5 18.5t10 16.5q43 2 104 10q15 2 31.5 6t27 7t12.5 3q8 0 10 -12q-3 -54 -3 -88z
M225 473l91 182q14 30 31 30q16 0 39 -16q27 -21 27 -36t-22 -37l-141 -139q-22 -3 -25 16z" />
    <glyph glyph-name="ucircumflex" unicode="&#xfb;" horiz-adv-x="544" 
d="M471 314v-182q0 -48 5 -66.5t22 -18.5q16 0 40 8q7 -1 6.5 -20t-9.5 -23q-27 -1 -56 -5t-51 -9.5l-39.5 -10l-28.5 -7.5l-10 -4q-10 1 -12 12q3 18 3 36q0 10 -11 10q-26 -17 -40 -24.5t-40.5 -15.5t-55.5 -8q-61 0 -89 31.5t-28 96.5v170q0 38 -5.5 48.5t-24.5 16.5
l-13 4q-5 7 -4 18.5t8 16.5q54 2 97 9q13 2 28 6.5l24.5 7.5t10.5 3q10 0 12 -12q-3 -37 -3 -88v-165q0 -44 13.5 -67t57.5 -23q27 0 52 19q11 8 11 30v189q0 30 -8 40t-35 14l-14 2q-6 5 -5 18.5t10 16.5q43 2 104 10q15 2 31.5 6t27 7t12.5 3q8 0 10 -12q-3 -54 -3 -88z
M143 472l106 191q7 13 23 13t23 -13l106 -191q-7 -16 -29 -18l-80 92q-16 19 -20 19t-21 -18l-80 -93q-21 2 -28 18z" />
    <glyph glyph-name="udieresis" unicode="&#xfc;" horiz-adv-x="544" 
d="M471 314v-182q0 -48 5 -66.5t22 -18.5q16 0 40 8q7 -1 6.5 -20t-9.5 -23q-27 -1 -56 -5t-51 -9.5l-39.5 -10l-28.5 -7.5l-10 -4q-10 1 -12 12q3 18 3 36q0 10 -11 10q-26 -17 -40 -24.5t-40.5 -15.5t-55.5 -8q-61 0 -89 31.5t-28 96.5v170q0 38 -5.5 48.5t-24.5 16.5
l-13 4q-5 7 -4 18.5t8 16.5q54 2 97 9q13 2 28 6.5l24.5 7.5t10.5 3q10 0 12 -12q-3 -37 -3 -88v-165q0 -44 13.5 -67t57.5 -23q27 0 52 19q11 8 11 30v189q0 30 -8 40t-35 14l-14 2q-6 5 -5 18.5t10 16.5q43 2 104 10q15 2 31.5 6t27 7t12.5 3q8 0 10 -12q-3 -54 -3 -88z
M183 482q-27 0 -44.5 15.5t-18.5 43.5q0 28 18 46t45 18q26 0 43.5 -17.5t17.5 -41.5q0 -29 -17 -46.5t-44 -17.5zM363 482q-27 0 -44.5 15.5t-18.5 43.5q0 28 18 46t45 18q26 0 43.5 -17.5t17.5 -41.5q0 -29 -17 -46.5t-44 -17.5z" />
    <glyph glyph-name="yacute" unicode="&#xfd;" horiz-adv-x="469" 
d="M12 365l-18 3q-6 5 -5 18.5t8 16.5q54 -3 132 -3q57 0 112 3q7 -3 8 -16.5t-5 -18.5l-20 -4q-20 -4 -25 -8t-5 -11q0 -8 30 -89q44 -112 45 -114q8 14 31 66l18 41q37 85 37 101q0 10 -22 14l-20 4q-7 5 -6 19t9 16q33 -3 97 -3q39 0 78 3q7 -3 8 -17t-6 -18l-19 -2
q-32 -3 -46 -22q-24 -32 -59 -105l-53 -109l-152 -315q-30 -64 -86 -66q-64 -1 -64 60q0 23 15.5 37.5t41.5 14.5h24q33 0 49 21q8 11 29 55q14 28 14 42q0 24 -19 73l-96 242q-16 39 -26.5 53t-33.5 18zM218 467l91 182q14 30 31 30q16 0 39 -16q27 -21 27 -36t-22 -37
l-141 -139q-22 -3 -25 16z" />
    <glyph glyph-name="thorn" unicode="&#xfe;" horiz-adv-x="533" 
d="M73 -139v675q0 33 -3 44t-17 19l-17 10q-5 5 -5 15t5 15q49 12 153 56q11 0 17 -7q-3 -62 -3 -146v-159q0 -7 8 -9q75 40 127 40q78 0 124 -54t46 -137q0 -105 -68 -171t-177 -66q-31 0 -45 3q-15 -3 -15 -29v-99q0 -52 6 -65.5t31 -15.5l34 -3q6 -4 6 -17.5t-7 -17.5
q-75 3 -137 3q-65 0 -119 -3q-7 4 -7 17.5t6 17.5l20 2q25 2 31 15.5t6 66.5zM203 273v-160q0 -35 23 -58q21 -23 48 -23q45 0 70.5 43.5t25.5 115.5t-31.5 113t-82.5 41q-31 0 -42 -14q-11 -13 -11 -58z" />
    <glyph glyph-name="ydieresis" unicode="&#xff;" horiz-adv-x="469" 
d="M12 365l-18 3q-6 5 -5 18.5t8 16.5q54 -3 132 -3q57 0 112 3q7 -3 8 -16.5t-5 -18.5l-20 -4q-20 -4 -25 -8t-5 -11q0 -8 30 -89q44 -112 45 -114q8 14 31 66l18 41q37 85 37 101q0 10 -22 14l-20 4q-7 5 -6 19t9 16q33 -3 97 -3q39 0 78 3q7 -3 8 -17t-6 -18l-19 -2
q-32 -3 -46 -22q-24 -32 -59 -105l-53 -109l-152 -315q-30 -64 -86 -66q-64 -1 -64 60q0 23 15.5 37.5t41.5 14.5h24q33 0 49 21q8 11 29 55q14 28 14 42q0 24 -19 73l-96 242q-16 39 -26.5 53t-33.5 18zM161 492q-27 0 -44.5 15.5t-18.5 43.5q0 28 18 46t45 18
q26 0 43.5 -17.5t17.5 -41.5q0 -29 -17 -46.5t-44 -17.5zM347 492q-27 0 -44.5 15.5t-18.5 43.5q0 28 18 46t45 18q26 0 43.5 -17.5t17.5 -41.5q0 -29 -17 -46.5t-44 -17.5z" />
    <glyph glyph-name="Amacron" unicode="&#x100;" horiz-adv-x="624" 
d="M324 226h-119q-18 0 -23.5 -3t-9.5 -17l-39 -116q-7 -23 -7 -36q0 -10 41 -17l30 -5q5 -6 5 -19t-7 -16q-9 1 -113 3q-16 0 -47 -1.5t-56 -1.5q-8 4 -8.5 16.5t5.5 18.5l27 3q21 3 35 13t26 37q26 60 63 160l91 244l13 34l11.5 30.5t7.5 22.5t5 22.5t0 17.5q13 3 27 10.5
t24 15.5t18 16l13 13l5 5q18 0 23 -20q12 -42 45 -137l136 -392q18 -50 29.5 -67.5t37.5 -21.5l38 -6q5 -4 5 -17t-6 -18q-72 3 -154 3q-66 0 -135 -3q-8 5 -9 17t7 18l32 5q27 5 27 17q0 9 -19 68l-27 86q-4 12 -12.5 15t-35.5 3zM225 279h94q18 0 21.5 4.5t-1.5 24.5
l-26 81q-30 93 -41 118q-2 -6 -10.5 -29.5l-17 -48.5l-15.5 -45l-25 -75q-6 -20 -2 -25t23 -5zM438 725h-253q-9 12 -9 37.5t9 37.5h253q10 -12 10 -37.5t-10 -37.5z" />
    <glyph glyph-name="amacron" unicode="&#x101;" horiz-adv-x="443" 
d="M378 269l-7 -132q-3 -46 11.5 -66t33.5 -20q17 0 38 12q7 -1 10.5 -8.5t1.5 -14.5q-13 -17 -45.5 -35.5t-70.5 -18.5q-43 0 -84 35q-9 8 -16 8q-5 0 -21 -11q-44 -32 -85 -32q-47 0 -79.5 27.5t-32.5 77.5q0 38 24.5 63t79.5 41q38 12 94 28q22 6 24 20q2 22 2 34
q0 34 -14.5 60t-43.5 26q-43 0 -52 -57q-3 -21 -17 -32q-11 -8 -34.5 -15.5t-37.5 -7.5q-23 0 -23 25q0 39 48 77q77 61 168 61q135 0 128 -145zM249 100l2 63q1 12 -0.5 15.5t-6.5 2.5q-84 -11 -84 -70q0 -24 15 -42t36 -18q22 0 29.5 11.5t8.5 37.5zM348 496h-253
q-9 12 -9 36t9 36h253q10 -8 10 -34t-10 -38z" />
    <glyph glyph-name="Abreve" unicode="&#x102;" horiz-adv-x="624" 
d="M324 226h-119q-18 0 -23.5 -3t-9.5 -17l-39 -116q-7 -23 -7 -36q0 -10 41 -17l30 -5q5 -6 5 -19t-7 -16q-9 1 -113 3q-16 0 -47 -1.5t-56 -1.5q-8 4 -8.5 16.5t5.5 18.5l27 3q21 3 35 13t26 37q26 60 63 160l91 244l13 34l11.5 30.5t7.5 22.5t5 22.5t0 17.5q13 3 27 10.5
t24 15.5t18 16l13 13l5 5q18 0 23 -20q12 -42 45 -137l136 -392q18 -50 29.5 -67.5t37.5 -21.5l38 -6q5 -4 5 -17t-6 -18q-72 3 -154 3q-66 0 -135 -3q-8 5 -9 17t7 18l32 5q27 5 27 17q0 9 -19 68l-27 86q-4 12 -12.5 15t-35.5 3zM225 279h94q18 0 21.5 4.5t-1.5 24.5
l-26 81q-30 93 -41 118q-2 -6 -10.5 -29.5l-17 -48.5l-15.5 -45l-25 -75q-6 -20 -2 -25t23 -5zM312 720q-68 0 -103 37.5t-31 105.5q15 8 29 0q8 -32 38 -52t67 -20t67 20t38 52q14 8 29 0q4 -68 -31 -105.5t-103 -37.5z" />
    <glyph glyph-name="abreve" unicode="&#x103;" horiz-adv-x="443" 
d="M378 269l-7 -132q-3 -46 11.5 -66t33.5 -20q17 0 38 12q7 -1 10.5 -8.5t1.5 -14.5q-13 -17 -45.5 -35.5t-70.5 -18.5q-43 0 -84 35q-9 8 -16 8q-5 0 -21 -11q-44 -32 -85 -32q-47 0 -79.5 27.5t-32.5 77.5q0 38 24.5 63t79.5 41q38 12 94 28q22 6 24 20q2 22 2 34
q0 34 -14.5 60t-43.5 26q-43 0 -52 -57q-3 -21 -17 -32q-11 -8 -34.5 -15.5t-37.5 -7.5q-23 0 -23 25q0 39 48 77q77 61 168 61q135 0 128 -145zM249 100l2 63q1 12 -0.5 15.5t-6.5 2.5q-84 -11 -84 -70q0 -24 15 -42t36 -18q22 0 29.5 11.5t8.5 37.5zM222 478q-64 0 -97 42
t-30 120q5 4 16 4t15 -4q8 -38 34.5 -60.5t61.5 -22.5t61.5 22.5t34.5 60.5q4 4 15 4t16 -4q3 -78 -30 -120t-97 -42z" />
    <glyph glyph-name="Aogonek" unicode="&#x104;" horiz-adv-x="624" 
d="M225 279h94q18 0 21.5 4.5t-1.5 24.5l-26 81q-28 85 -41 116q-13 -28 -43 -121l-25 -75q-6 -20 -2 -25t23 -5zM324 226h-120q-18 0 -23.5 -3t-9.5 -17l-37 -116q-7 -23 -7 -36q0 -10 40 -17l30 -5q5 -6 5 -19t-7 -16q-9 1 -113 3q-16 0 -47 -1.5t-56 -1.5q-8 4 -8.5 16.5
t5.5 18.5l27 3q21 3 35 13t26 37q26 60 63 160l92 244q4 10 12.5 33.5l11.5 31.5t7 22t5 23t0 17q13 3 27 10.5t24 15.5t18 16l13 13l5 5q18 0 23 -20q12 -42 45 -137l136 -392q18 -50 29.5 -67.5t37.5 -21.5l38 -6q5 -4 5 -17t-6 -18q-72 3 -74 3q-32 -21 -52.5 -56.5
t-20.5 -58.5q0 -62 65 -62q27 0 45 9q9 -4 9 -24q-41 -49 -109 -49q-51 0 -78 26.5t-27 66.5q0 72 117 148q-30 0 -95.5 -1.5t-68.5 -1.5q-8 5 -9 17t7 18l32 5q27 5 27 17q0 9 -19 68l-27 86q-4 12 -12.5 15t-35.5 3z" />
    <glyph glyph-name="aogonek" unicode="&#x105;" horiz-adv-x="443" 
d="M249 100l2 63q1 12 -0.5 15.5t-6.5 2.5q-84 -11 -84 -70q0 -24 15 -42t36 -18q22 0 29.5 11.5t8.5 37.5zM250 414q135 0 128 -145l-7 -132q-3 -46 11.5 -66t33.5 -20q17 0 38 12q7 -1 10.5 -8.5t1.5 -14.5q-10 -11 -27 -26q-85 -77 -85 -139q0 -26 14.5 -41.5t41.5 -15.5
q26 0 50 13q10 -3 10 -21q-18 -27 -48 -41t-58 -14q-53 0 -77.5 26.5t-24.5 63.5q0 72 112 148q-18 -7 -39 -7q-17 0 -38.5 9t-32.5 24q-6 10 -14 10q-5 0 -21 -11q-44 -32 -85 -32q-47 0 -79.5 27.5t-32.5 77.5q0 38 24.5 63t79.5 41q38 12 94 28q22 6 24 20q2 22 2 34
q0 34 -14.5 60t-43.5 26q-43 0 -52 -57q-3 -21 -17 -32q-11 -8 -34.5 -15.5t-37.5 -7.5q-23 0 -23 25q0 39 48 77q77 61 168 61z" />
    <glyph glyph-name="Cacute" unicode="&#x106;" horiz-adv-x="689" 
d="M438 676q45 0 89 -6t76 -12.5t41 -7.5q0 -79 12 -156q-3 -9 -18 -11.5t-20 4.5q-42 143 -188 143q-92 0 -161 -77t-69 -217q0 -142 69.5 -224t165.5 -82q142 0 204 155q6 6 20 4t18 -11q-11 -112 -38 -157q-133 -37 -203 -37q-167 0 -269 76q-127 97 -127 262t121 265
q107 89 277 89zM352 731l162 121q23 17 33 17q18 0 34 -31q15 -26 10 -43q-4 -17 -32 -25l-196 -64q-16 6 -11 25z" />
    <glyph glyph-name="cacute" unicode="&#x107;" horiz-adv-x="416" 
d="M281 414q59 0 105 -17q21 -18 21 -52q0 -22 -8.5 -39.5t-17.5 -17.5q-13 0 -16 5q-53 75 -103 75q-46 0 -73 -43.5t-27 -99.5q0 -64 38.5 -111.5t104.5 -47.5q60 0 89 49q10 1 18 -5t8 -17q-19 -43 -65 -75t-112 -32q-94 0 -153 56.5t-59 145.5q0 103 72.5 164.5
t177.5 61.5zM213 465l91 182q14 30 31 30q16 0 39 -16q27 -21 27 -36t-22 -37l-141 -139q-22 -3 -25 16z" />
    <glyph glyph-name="Ccaron" unicode="&#x10c;" horiz-adv-x="689" 
d="M438 676q45 0 89 -6t76 -12.5t41 -7.5q0 -79 12 -156q-3 -9 -18 -11.5t-20 4.5q-42 143 -188 143q-92 0 -161 -77t-69 -217q0 -142 69.5 -224t165.5 -82q142 0 204 155q6 6 20 4t18 -11q-11 -112 -38 -157q-133 -37 -203 -37q-167 0 -269 76q-127 97 -127 262t121 265
q107 89 277 89zM264 861l121 -58q18 -8 35 0l120 58q7 0 11 -8.5t2 -17.5l-129 -117q-23 -20 -44 0l-128 117q-1 9 3 17t9 9z" />
    <glyph glyph-name="ccaron" unicode="&#x10d;" horiz-adv-x="416" 
d="M281 414q59 0 105 -17q21 -18 21 -52q0 -22 -8.5 -39.5t-17.5 -17.5q-13 0 -16 5q-53 75 -103 75q-46 0 -73 -43.5t-27 -99.5q0 -64 38.5 -111.5t104.5 -47.5q60 0 89 49q10 1 18 -5t8 -17q-19 -43 -65 -75t-112 -32q-94 0 -153 56.5t-59 145.5q0 103 72.5 164.5
t177.5 61.5zM380 657l-106 -191q-7 -13 -23 -13t-23 13l-106 191q7 16 29 18l80 -92q16 -19 20 -19q5 0 21 18l80 93q21 -2 28 -18z" />
    <glyph glyph-name="Dcaron" unicode="&#x10e;" horiz-adv-x="793" 
d="M114 144v354q0 75 -7.5 95t-40.5 24l-19 2q-8 4 -7.5 19t9.5 16q151 9 268 9q142 0 233 -33q96 -34 149.5 -113.5t53.5 -176.5q0 -101 -46.5 -178.5t-132.5 -120.5q-94 -47 -253 -47q-25 0 -70.5 3t-62.5 3q-70 0 -156 -3q-6 5 -6 18t6 17l31 5q34 5 42.5 22t8.5 85z
M257 546v-365q0 -89 20 -112q26 -29 83 -29q62 0 108.5 25.5t72.5 69t38.5 92.5t12.5 103q0 137 -71 212t-205 75q-42 0 -52 -13q-7 -9 -7 -58zM236 861l121 -58q18 -8 35 0l120 58q7 0 11 -8.5t2 -17.5l-129 -117q-23 -20 -44 0l-128 117q-1 9 3 17t9 9z" />
    <glyph glyph-name="dcaron" unicode="&#x10f;" horiz-adv-x="537" 
d="M466 562v-398q0 -71 4.5 -94t18.5 -23q20 0 43 8q8 -7 8.5 -21.5t-7.5 -21.5q-28 -2 -56.5 -6t-49.5 -9t-37.5 -10l-26.5 -8l-10 -3q-13 0 -17 14l3 31q-2 13 -9 8q-68 -43 -108 -43q-84 0 -137.5 57t-53.5 140q0 104 68.5 167.5t169.5 63.5q39 0 57 -5q10 4 10 19v128
q0 33 -3 44t-17 19l-17 10q-6 5 -5.5 15t5.5 15q59 14 153 56q11 0 17 -7q-3 -61 -3 -146zM336 103v194q0 20 -7 34q-21 37 -57 37q-41 0 -71 -41.5t-30 -116.5q0 -59 28 -108t84 -49q21 0 41 12q12 8 12 38zM597 715q22 0 22 -52q0 -49 -24.5 -109t-54.5 -90
q-9 -3 -18.5 -1t-6.5 9q26 64 26 129q0 8 -3.5 18.5t-8.5 20.5l-6 12q-2 7 -2 17q0 11 25.5 28.5t50.5 17.5z" />
    <glyph glyph-name="Dcroat" unicode="&#x110;" horiz-adv-x="803" 
d="M120 144v173h-84q-8 9 -8 25.5t8 27.5h84v128q0 75 -7.5 95t-40.5 24l-19 2q-8 4 -7.5 19t9.5 16q151 9 268 9q142 0 233 -33q96 -34 149.5 -113.5t53.5 -176.5q0 -101 -46.5 -178.5t-132.5 -120.5q-94 -47 -253 -47q-25 0 -70.5 3t-62.5 3q-70 0 -156 -3q-6 5 -6 18
t6 17l31 5q34 5 42.5 22t8.5 85zM263 546v-176h134q8 -8 8 -26t-8 -27h-134v-136q0 -89 20 -112q26 -29 83 -29q62 0 108.5 25.5t72.5 69t38.5 92.5t12.5 103q0 137 -71 212t-205 75q-42 0 -52 -13q-7 -9 -7 -58z" />
    <glyph glyph-name="dcroat" unicode="&#x111;" horiz-adv-x="537" 
d="M336 103v194q0 20 -7 34q-21 37 -57 37q-41 0 -71 -41.5t-30 -116.5q0 -59 28 -108t84 -49q21 0 41 12q12 8 12 38zM532 562v-52h-66v-346q0 -71 4.5 -94t18.5 -23q20 0 43 8q8 -7 8.5 -21.5t-7.5 -21.5q-28 -2 -56.5 -6t-49.5 -9t-37.5 -10l-26.5 -8l-10 -3
q-13 0 -17 14l3 31q-2 13 -9 8q-68 -43 -108 -43q-84 0 -137.5 57t-53.5 140q0 104 68.5 167.5t169.5 63.5q39 0 57 -5q10 4 10 19v82h-94v52h94q0 29 -3 39t-17 18l-17 10q-6 5 -5.5 15t5.5 15q59 14 153 56q11 0 17 -7q-3 -61 -3 -146h66z" />
    <glyph glyph-name="Emacron" unicode="&#x112;" horiz-adv-x="593" 
d="M257 575v-175q0 -21 4 -25.5t24 -4.5h69q40 0 53.5 9.5t20.5 45.5l5 25q5 6 19 6t18 -7q-3 -48 -3 -106t3 -106q-4 -7 -18 -7.5t-19 6.5l-5 25q-7 36 -21 46t-53 10h-69q-20 0 -24 -4.5t-4 -26.5v-119q0 -72 16 -95q10 -14 31.5 -20t73.5 -6q39 0 57.5 2.5t41.5 13.5
t39.5 34.5t37.5 65.5q6 8 20 6t17 -11q-3 -37 -17 -87.5t-25 -72.5q-79 3 -231 3h-130q-60 0 -172 -3q-6 5 -6 18t6 17l47 7q35 5 43 21t8 84v373q0 67 -8 83t-43 23l-25 5q-7 4 -6 17.5t8 17.5q71 -3 144 -3h212q115 0 134 3q0 -6 2.5 -30.5t5.5 -60t5 -64.5
q-3 -8 -16.5 -9.5t-20.5 5.5q-18 58 -38 79q-31 31 -98 31h-80q-24 0 -28.5 -5.5t-4.5 -33.5zM423 725h-253q-9 12 -9 37.5t9 37.5h253q10 -12 10 -37.5t-10 -37.5z" />
    <glyph glyph-name="emacron" unicode="&#x113;" horiz-adv-x="420" 
d="M372 237h-192q-17 0 -21 -3t-4 -15q0 -60 37.5 -104t103.5 -44q62 0 93 52q9 2 17.5 -4.5t8.5 -18.5q-28 -59 -76 -86.5t-99 -27.5q-97 0 -152.5 59t-55.5 145q0 95 61.5 159.5t154.5 64.5q75 0 117.5 -41.5t42.5 -102.5q0 -16 -7.5 -24.5t-28.5 -8.5zM209 281h37
q27 0 41 9q7 4 7 23q0 25 -14 40t-39 15q-30 0 -54 -23.5t-24 -48.5q0 -10 9.5 -12.5t36.5 -2.5zM358 491h-253q-9 12 -9 36t9 36h253q10 -8 10 -34t-10 -38z" />
    <glyph glyph-name="Edotaccent" unicode="&#x116;" horiz-adv-x="593" 
d="M257 575v-175q0 -21 4 -25.5t24 -4.5h69q40 0 53.5 9.5t20.5 45.5l5 25q5 6 19 6t18 -7q-3 -48 -3 -106t3 -106q-4 -7 -18 -7.5t-19 6.5l-5 25q-7 36 -21 46t-53 10h-69q-20 0 -24 -4.5t-4 -26.5v-119q0 -72 16 -95q10 -14 31.5 -20t73.5 -6q39 0 57.5 2.5t41.5 13.5
t39.5 34.5t37.5 65.5q6 8 20 6t17 -11q-3 -37 -17 -87.5t-25 -72.5q-79 3 -231 3h-130q-60 0 -172 -3q-6 5 -6 18t6 17l47 7q35 5 43 21t8 84v373q0 67 -8 83t-43 23l-25 5q-7 4 -6 17.5t8 17.5q71 -3 144 -3h212q115 0 134 3q0 -6 2.5 -30.5t5.5 -60t5 -64.5
q-3 -8 -16.5 -9.5t-20.5 5.5q-18 58 -38 79q-31 31 -98 31h-80q-24 0 -28.5 -5.5t-4.5 -33.5zM298 712q-28 0 -46.5 16t-19.5 45q0 29 19 48t47 19q26 0 44.5 -18t18.5 -43q0 -30 -18 -48.5t-45 -18.5z" />
    <glyph glyph-name="edotaccent" unicode="&#x117;" horiz-adv-x="420" 
d="M372 237h-192q-17 0 -21 -3t-4 -15q0 -60 37.5 -104t103.5 -44q62 0 93 52q9 2 17.5 -4.5t8.5 -18.5q-28 -59 -76 -86.5t-99 -27.5q-97 0 -152.5 59t-55.5 145q0 95 61.5 159.5t154.5 64.5q75 0 117.5 -41.5t42.5 -102.5q0 -16 -7.5 -24.5t-28.5 -8.5zM209 281h37
q27 0 41 9q7 4 7 23q0 25 -14 40t-39 15q-30 0 -54 -23.5t-24 -48.5q0 -10 9.5 -12.5t36.5 -2.5zM239 487q-27 0 -44.5 15.5t-18.5 43.5q0 28 18 46t45 18q26 0 43.5 -17.5t17.5 -41.5q0 -29 -17 -46.5t-44 -17.5z" />
    <glyph glyph-name="Eogonek" unicode="&#x118;" horiz-adv-x="593" 
d="M114 144v373q0 67 -8 83t-43 23l-25 5q-7 4 -6 17.5t8 17.5q58 -3 144 -3h212q115 0 134 3q0 -6 2.5 -30.5t5.5 -60t5 -64.5q-3 -8 -16.5 -9.5t-20.5 5.5q-18 58 -38 79q-31 31 -98 31h-80q-24 0 -28.5 -5.5t-4.5 -33.5v-175q0 -21 4 -25.5t24 -4.5h69q40 0 53.5 9.5
t20.5 45.5l5 25q5 6 19 6t18 -7q-3 -48 -3 -106t3 -106q-4 -7 -18 -7.5t-19 6.5l-5 25q-7 36 -21 46t-53 10h-69q-20 0 -24 -4.5t-4 -26.5v-119q0 -72 16 -95q10 -14 31.5 -20t73.5 -6q39 0 57.5 2.5t41.5 13.5t39.5 34.5t37.5 65.5q6 8 20 6t17 -11q-3 -37 -17 -87.5
t-25 -72.5h-21q-69 -53 -69 -115q0 -59 62 -59q32 0 48 9q9 -3 9 -23q-20 -25 -51 -38t-60 -13q-49 0 -76.5 28t-27.5 65q0 67 117 148q-37 1 -162 1h-130q-60 0 -172 -3q-6 5 -6 18t6 17l47 7q35 5 43 21t8 84z" />
    <glyph glyph-name="eogonek" unicode="&#x119;" horiz-adv-x="420" 
d="M209 281h37q27 0 41 9q7 4 7 23q0 25 -14 40t-39 15q-30 0 -54 -23.5t-24 -48.5q0 -10 9.5 -12.5t36.5 -2.5zM248 414q75 0 117.5 -41.5t42.5 -102.5q0 -16 -7.5 -24.5t-28.5 -8.5h-192q-17 0 -21 -3t-4 -15q0 -60 37.5 -104t103.5 -44q62 0 93 52q9 2 17.5 -4.5
t8.5 -18.5q-14 -30 -68 -84q-81 -80 -81 -143q0 -56 54 -56q27 0 53 12q10 -3 10 -19q-37 -55 -109 -55q-53 0 -77 26.5t-24 63.5q0 32 22.5 65.5t81.5 80.5q-17 -5 -37 -5q-97 0 -152.5 59t-55.5 145q0 95 61.5 159.5t154.5 64.5z" />
    <glyph glyph-name="Ecaron" unicode="&#x11a;" horiz-adv-x="593" 
d="M257 575v-175q0 -21 4 -25.5t24 -4.5h69q40 0 53.5 9.5t20.5 45.5l5 25q5 6 19 6t18 -7q-3 -48 -3 -106t3 -106q-4 -7 -18 -7.5t-19 6.5l-5 25q-7 36 -21 46t-53 10h-69q-20 0 -24 -4.5t-4 -26.5v-119q0 -72 16 -95q10 -14 31.5 -20t73.5 -6q39 0 57.5 2.5t41.5 13.5
t39.5 34.5t37.5 65.5q6 8 20 6t17 -11q-3 -37 -17 -87.5t-25 -72.5q-79 3 -231 3h-130q-60 0 -172 -3q-6 5 -6 18t6 17l47 7q35 5 43 21t8 84v373q0 67 -8 83t-43 23l-25 5q-7 4 -6 17.5t8 17.5q71 -3 144 -3h212q115 0 134 3q0 -6 2.5 -30.5t5.5 -60t5 -64.5
q-3 -8 -16.5 -9.5t-20.5 5.5q-18 58 -38 79q-31 31 -98 31h-80q-24 0 -28.5 -5.5t-4.5 -33.5zM156 861l121 -50q20 -8 35 -1l120 51q7 0 11 -8.5t2 -17.5l-129 -117q-23 -20 -44 0l-128 117q-1 9 3 17t9 9z" />
    <glyph glyph-name="ecaron" unicode="&#x11b;" horiz-adv-x="420" 
d="M372 237h-192q-17 0 -21 -3t-4 -15q0 -60 37.5 -104t103.5 -44q62 0 93 52q9 2 17.5 -4.5t8.5 -18.5q-28 -59 -76 -86.5t-99 -27.5q-97 0 -152.5 59t-55.5 145q0 95 61.5 159.5t154.5 64.5q75 0 117.5 -41.5t42.5 -102.5q0 -16 -7.5 -24.5t-28.5 -8.5zM209 281h37
q27 0 41 9q7 4 7 23q0 25 -14 40t-39 15q-30 0 -54 -23.5t-24 -48.5q0 -10 9.5 -12.5t36.5 -2.5zM369 660l-106 -191q-7 -13 -23 -13t-23 13l-106 191q7 16 29 18l80 -92q16 -19 20 -19t21 18l80 93q21 -2 28 -18z" />
    <glyph glyph-name="Gbreve" unicode="&#x11e;" horiz-adv-x="734" 
d="M663 169v-56q0 -35 4 -49t17 -17q3 -3 2 -12.5t-5 -11.5q-53 -9 -70 -15q-28 -9 -82.5 -16.5t-94.5 -7.5q-108 0 -197 35q-90 36 -143.5 116t-53.5 186q0 96 44 174.5t132 127.5q97 53 234 53q65 0 128.5 -12t69.5 -12q1 -9 2.5 -39t4.5 -62.5t7 -59.5q-3 -8 -18 -9
t-20 7q-48 141 -188 141q-114 0 -175 -82t-61 -208q0 -195 114 -272q57 -38 137 -38q43 0 56 14t13 62v63q0 40 -9 51t-45 16l-44 6q-8 4 -8 17t8 18q107 -3 169 -3q80 0 131 3q6 -4 6 -17t-6 -18l-23 -4q-23 -4 -29.5 -16.5t-6.5 -52.5zM417 720q-68 0 -103 37.5t-31 105.5
q15 8 29 0q8 -32 38 -52t67 -20t67 20t38 52q14 8 29 0q4 -68 -31 -105.5t-103 -37.5z" />
    <glyph glyph-name="gbreve" unicode="&#x11f;" horiz-adv-x="479" 
d="M377 377h115q9 -8 9 -25q0 -31 -15 -40h-74q3 -13 3 -35q0 -32 -10.5 -61t-32.5 -55.5t-64 -42.5t-98 -16q-8 0 -41 3q-17 -7 -17 -24q0 -16 14 -26t37 -10q15 0 56 1t66 1q155 0 155 -121q0 -46 -25 -86t-65 -65q-74 -44 -175 -44q-100 0 -148 37.5t-48 90.5q0 31 32 50
q10 6 26.5 17t22.5 14q17 10 1 14q-28 9 -45 31.5t-17 48.5q0 14 7 21q48 31 64 47q14 11 8 22q-38 15 -61.5 49.5t-23.5 79.5q0 67 51 114t144 47q81 0 149 -37zM163 270q0 -56 19.5 -89.5t49.5 -33.5q25 0 41 25t16 77q0 58 -18 88.5t-47 30.5q-25 0 -43 -25t-18 -73z
M277 -56h-67q-39 0 -56 -13q-14 -13 -14 -35q0 -51 35.5 -81.5t94.5 -30.5q47 0 76 21.5t29 57.5q0 41 -27 61t-71 20zM240 481q-64 0 -97 42t-30 120q5 4 16 4t15 -4q8 -38 34.5 -60.5t61.5 -22.5t61.5 22.5t34.5 60.5q4 4 15 4t16 -4q3 -78 -30 -120t-97 -42z" />
    <glyph glyph-name="Gcommaaccent" unicode="&#x122;" horiz-adv-x="734" 
d="M663 169v-56q0 -35 4 -49t17 -17q3 -3 2 -12.5t-5 -11.5q-53 -9 -70 -15q-28 -9 -82.5 -16.5t-94.5 -7.5q-108 0 -197 35q-90 36 -143.5 116t-53.5 186q0 96 44 174.5t132 127.5q97 53 234 53q65 0 128.5 -12t69.5 -12q1 -9 2.5 -39t4.5 -62.5t7 -59.5q-3 -8 -18 -9
t-20 7q-48 141 -188 141q-114 0 -175 -82t-61 -208q0 -195 114 -272q57 -38 137 -38q43 0 56 14t13 62v63q0 40 -9 51t-45 16l-44 6q-8 4 -8 17t8 18q107 -3 169 -3q80 0 131 3q6 -4 6 -17t-6 -18l-23 -4q-23 -4 -29.5 -16.5t-6.5 -52.5zM404 -55q35 0 61.5 -25.5
t26.5 -76.5q0 -60 -37.5 -96.5t-98.5 -48.5q-10 1 -13 15t4 18q26 10 48.5 31.5t22.5 44.5q0 37 -46 48q-25 8 -25 39q0 21 17 36t40 15z" />
    <glyph glyph-name="gcommaaccent" unicode="&#x123;" horiz-adv-x="479" 
d="M377 377h115q9 -8 9 -25q0 -31 -15 -40h-74q3 -13 3 -35q0 -32 -10.5 -61t-32.5 -55.5t-64 -42.5t-98 -16q-8 0 -41 3q-17 -7 -17 -24q0 -16 14 -26t37 -10q15 0 56 1t66 1q155 0 155 -121q0 -46 -25 -86t-65 -65q-74 -44 -175 -44q-100 0 -148 37.5t-48 90.5q0 31 32 50
q10 6 26.5 17t22.5 14q17 10 1 14q-28 9 -45 31.5t-17 48.5q0 14 7 21q48 31 64 47q14 11 8 22q-38 15 -61.5 49.5t-23.5 79.5q0 67 51 114t144 47q81 0 149 -37zM163 270q0 -56 19.5 -89.5t49.5 -33.5q25 0 41 25t16 77q0 58 -18 88.5t-47 30.5q-25 0 -43 -25t-18 -73z
M277 -56h-67q-39 0 -56 -13q-14 -13 -14 -35q0 -51 35.5 -81.5t94.5 -30.5q47 0 76 21.5t29 57.5q0 41 -27 61t-71 20zM245 476q-33 0 -59.5 24t-26.5 71q0 52 38 86.5t97 45.5q10 -1 13 -13.5t-4 -16.5q-26 -9 -45.5 -27.5t-19.5 -42.5q0 -32 40 -44q25 -7 25 -35
q0 -20 -17 -34t-41 -14z" />
    <glyph glyph-name="Imacron" unicode="&#x12a;" horiz-adv-x="371" 
d="M257 514v-368q0 -69 8.5 -86t43.5 -23l28 -5q6 -5 5.5 -17.5t-6.5 -17.5q-81 3 -150 3q-71 0 -152 -3q-6 5 -6 18t6 17l28 5q35 6 43.5 23t8.5 86v368q0 69 -8.5 86t-43.5 23l-28 5q-6 4 -6 17t6 18q81 -3 152 -3q70 0 151 3q6 -5 6 -18t-6 -17l-28 -5q-35 -6 -43.5 -23
t-8.5 -86zM312 725h-253q-9 12 -9 35t9 35h253q10 -12 10 -35t-10 -35z" />
    <glyph glyph-name="imacron" unicode="&#x12b;" horiz-adv-x="286" 
d="M214 300v-184q0 -53 6 -66.5t31 -15.5l19 -2q6 -4 6 -17.5t-7 -17.5q-53 3 -120 3q-71 0 -120 -3q-7 4 -7 17.5t6 17.5l19 2q25 2 31 15.5t6 66.5v151q0 33 -3 44.5t-16 19.5l-14 9q-5 4 -5 15t5 15q95 26 148 58q12 0 18 -9q-3 -45 -3 -119zM274 500h-253q-9 12 -9 33.5
t9 33.5h253q10 -12 10 -33.5t-10 -33.5z" />
    <glyph glyph-name="Iogonek" unicode="&#x12e;" horiz-adv-x="371" 
d="M114 146v368q0 69 -8.5 86t-43.5 23l-28 5q-6 4 -6 17t6 18q81 -3 152 -3q70 0 151 3q6 -5 6 -18t-6 -17l-28 -5q-35 -6 -43.5 -23t-8.5 -86v-368q0 -69 8.5 -86t43.5 -23l28 -5q6 -5 5.5 -17.5t-6.5 -17.5q-76 3 -112 3q-21 -21 -33 -50t-12 -51q0 -64 73 -64q27 0 45 9
q8 -4 8 -23q-46 -54 -108 -54q-47 0 -74.5 28.5t-27.5 68.5q0 60 85 136q-78 0 -146 -3q-6 5 -6 18t6 17l28 5q35 6 43.5 23t8.5 86z" />
    <glyph glyph-name="iogonek" unicode="&#x12f;" horiz-adv-x="286" 
d="M214 300v-184q0 -53 6 -66.5t31 -15.5l19 -2q6 -4 6 -17.5t-7 -17.5q-44 3 -81 3q-17 -19 -28.5 -51t-11.5 -53q0 -68 54 -68q30 0 54 12q10 -5 10 -21q-40 -54 -107 -54q-48 0 -75 25.5t-27 70.5q0 56 87 139q-66 0 -115 -3q-7 4 -7 17.5t6 17.5l19 2q25 2 31 15.5
t6 66.5v151q0 33 -3 44.5t-16 19.5l-14 9q-5 4 -5 15t5 15q95 26 148 58q12 0 18 -9q-3 -45 -3 -119zM152 639q31 0 50.5 -20.5t19.5 -50.5q0 -34 -22 -53.5t-53 -19.5q-32 0 -51 20t-19 51q0 32 22 52.5t53 20.5z" />
    <glyph glyph-name="Idotaccent" unicode="&#x130;" horiz-adv-x="371" 
d="M257 514v-368q0 -69 8.5 -86t43.5 -23l28 -5q6 -5 5.5 -17.5t-6.5 -17.5q-81 3 -150 3q-71 0 -152 -3q-6 5 -6 18t6 17l28 5q35 6 43.5 23t8.5 86v368q0 69 -8.5 86t-43.5 23l-28 5q-6 4 -6 17t6 18q81 -3 152 -3q70 0 151 3q6 -5 6 -18t-6 -17l-28 -5q-35 -6 -43.5 -23
t-8.5 -86zM187 712q-28 0 -46.5 16t-19.5 45q0 29 19 48t47 19q27 0 45 -18t18 -43q0 -30 -18 -48.5t-45 -18.5z" />
    <glyph glyph-name="dotlessi" unicode="&#x131;" horiz-adv-x="286" 
d="M214 300v-184q0 -53 6 -66.5t31 -15.5l19 -2q6 -4 6 -17.5t-7 -17.5q-53 3 -120 3q-71 0 -120 -3q-7 4 -7 17.5t6 17.5l19 2q25 2 31 15.5t6 66.5v151q0 33 -3 44.5t-16 19.5l-14 9q-5 4 -5 15t5 15q95 26 148 58q12 0 18 -9q-3 -45 -3 -119z" />
    <glyph glyph-name="Kcommaaccent" unicode="&#x136;" horiz-adv-x="715" 
d="M257 516v-122q0 -23 4 -30t14 -7q14 0 38 19.5t39 38.5q103 124 134 170q13 19 13 26q0 10 -17 13l-23 4q-8 5 -7 18.5t11 16.5q76 -3 124 -3q61 0 121 3q9 -3 10 -16t-5 -19q-60 -7 -86 -18q-55 -22 -148 -128l-46 -52q-13 -14 -13 -23q0 -8 36 -62l48.5 -74.5
l67.5 -102t61 -84.5q19 -25 35 -34.5t39 -12.5l32 -5q5 -7 4 -19t-7 -16q-75 3 -144 3q-73 0 -157 -3q-10 3 -10 17t8 18l25 6q17 5 17 10q0 8 -8 20l-58 89l-53 81q-30 46 -45 62.5t-30 16.5q-16 0 -20 -12.5t-4 -55.5v-105q0 -69 8.5 -86t42.5 -22l28 -4q6 -5 6 -17.5
t-6 -17.5q-80 3 -151 3q-70 0 -150 -3q-6 5 -6 18t6 17l28 4q34 5 42.5 22t8.5 86v372q0 69 -8.5 86t-42.5 22l-28 4q-8 4 -8 17t8 18q75 -3 150 -3q71 0 151 3q7 -5 7 -18t-7 -17l-28 -4q-34 -5 -42.5 -22t-8.5 -86zM347 -55q35 0 61.5 -25.5t26.5 -76.5q0 -60 -37.5 -96.5
t-98.5 -48.5q-10 1 -13 15t4 18q26 10 48.5 31.5t22.5 44.5q0 37 -46 48q-25 8 -25 39q0 21 17 36t40 15z" />
    <glyph glyph-name="kcommaaccent" unicode="&#x137;" horiz-adv-x="532" 
d="M76 116v440q0 33 -3 44t-17 19l-17 10q-5 5 -5 15t5 15q53 13 153 56q11 0 17 -7q-3 -61 -3 -146v-314q0 -8 3 -11t11 -3q34 0 58 28l42 49q24 29 24 40q0 8 -19 10l-25 4q-7 7 -6 19.5t8 15.5h24q97 0 189 14q7 -4 8 -16.5t-4 -18.5l-32 -7q-30 -6 -67 -35
q-38 -29 -67 -58q-6 -7 -6 -13t7 -17q18 -31 66 -103.5t65 -87.5q16 -15 59 -23l15 -3q6 -5 4.5 -18.5t-8.5 -16.5q-47 3 -126 3q-81 0 -123 -3q-7 4 -8.5 16t4.5 19l13 3q16 3 16 8q0 7 -17 32l-71 108q-10 15 -25 15q-12 0 -12 -24v-58q0 -52 6.5 -65.5t32.5 -16.5l16 -2
q6 -4 6 -17.5t-7 -17.5q-48 3 -120 3q-70 0 -122 -3q-7 4 -7 17.5t6 17.5l19 2q27 3 33.5 16.5t6.5 65.5zM255 -45q30 0 57 -25.5t27 -73.5q0 -58 -36.5 -93t-94.5 -47q-10 1 -12.5 15t4.5 18q25 9 46.5 28.5t21.5 42.5q0 38 -44 50q-24 7 -24 35q0 21 16 35.5t39 14.5z" />
    <glyph glyph-name="Lacute" unicode="&#x139;" horiz-adv-x="585" 
d="M257 516v-350q0 -74 17 -95q11 -14 31.5 -19.5t72.5 -5.5q40 0 59 2t41 14t39 35.5t39 67.5q6 7 19.5 5t18.5 -11q-4 -37 -18 -88.5t-25 -73.5q-79 3 -231 3h-134q-65 0 -158 -3q-7 5 -8 17.5t5 17.5l38 5q34 5 42.5 21.5t8.5 85.5v372q0 69 -8.5 86t-42.5 22l-29 4
q-8 4 -7.5 17.5t9.5 17.5q78 -3 150 -3q73 0 148 3q6 -5 6 -18t-6 -17l-26 -4q-34 -5 -42.5 -22t-8.5 -86zM180 731l162 121q23 17 33 17q18 0 34 -31q15 -26 10 -43q-4 -17 -32 -25l-196 -64q-16 6 -11 25z" />
    <glyph glyph-name="lacute" unicode="&#x13a;" horiz-adv-x="278" 
d="M76 116v440q0 33 -3 44t-17 19l-17 10q-5 5 -5 15t5 15q55 13 153 56q11 0 17 -7q-3 -61 -3 -146v-446q0 -52 6.5 -65.5t32.5 -16.5l17 -2q6 -4 6 -17.5t-7 -17.5q-49 3 -120 3q-67 0 -120 -3q-7 4 -7 17.5t6 17.5l19 2q25 2 31 15.5t6 66.5zM56 761l162 121q23 17 33 17
q18 0 34 -31q15 -26 10 -43q-4 -17 -32 -25l-196 -64q-16 6 -11 25z" />
    <glyph glyph-name="Lcommaaccent" unicode="&#x13b;" horiz-adv-x="585" 
d="M257 516v-350q0 -74 17 -95q11 -14 31.5 -19.5t72.5 -5.5q40 0 59 2t41 14t39 35.5t39 67.5q6 7 19.5 5t18.5 -11q-4 -37 -18 -88.5t-25 -73.5q-79 3 -231 3h-134q-65 0 -158 -3q-7 5 -8 17.5t5 17.5l38 5q34 5 42.5 21.5t8.5 85.5v372q0 69 -8.5 86t-42.5 22l-29 4
q-8 4 -7.5 17.5t9.5 17.5q78 -3 150 -3q73 0 148 3q6 -5 6 -18t-6 -17l-26 -4q-34 -5 -42.5 -22t-8.5 -86zM297 -55q35 0 61.5 -25.5t26.5 -76.5q0 -60 -37.5 -96.5t-98.5 -48.5q-10 1 -13 15t4 18q26 10 48.5 31.5t22.5 44.5q0 37 -46 48q-25 8 -25 39q0 21 17 36t40 15z
" />
    <glyph glyph-name="lcommaaccent" unicode="&#x13c;" horiz-adv-x="278" 
d="M76 116v440q0 33 -3 44t-17 19l-17 10q-5 5 -5 15t5 15q55 13 153 56q11 0 17 -7q-3 -61 -3 -146v-446q0 -52 6.5 -65.5t32.5 -16.5l17 -2q6 -4 6 -17.5t-7 -17.5q-49 3 -120 3q-67 0 -120 -3q-7 4 -7 17.5t6 17.5l19 2q25 2 31 15.5t6 66.5zM128 -45q30 0 57 -25.5
t27 -73.5q0 -58 -36.5 -93t-94.5 -47q-10 1 -12.5 15t4.5 18q25 9 46.5 28.5t21.5 42.5q0 38 -44 50q-24 7 -24 35q0 21 16 35.5t39 14.5z" />
    <glyph glyph-name="Lcaron" unicode="&#x13d;" horiz-adv-x="585" 
d="M257 516v-350q0 -74 17 -95q11 -14 31.5 -19.5t72.5 -5.5q40 0 59 2t41 14t39 35.5t39 67.5q6 7 19.5 5t18.5 -11q-4 -37 -18 -88.5t-25 -73.5q-79 3 -231 3h-134q-65 0 -158 -3q-7 5 -8 17.5t5 17.5l38 5q34 5 42.5 21.5t8.5 85.5v372q0 69 -8.5 86t-42.5 22l-29 4
q-8 4 -7.5 17.5t9.5 17.5q78 -3 150 -3q73 0 148 3q6 -5 6 -18t-6 -17l-26 -4q-34 -5 -42.5 -22t-8.5 -86zM446 700q32 0 59 -28t27 -82q0 -62 -39 -103t-98 -55q-11 1 -14 15t5 18q29 13 51.5 35.5t22.5 50.5q0 40 -48 54q-11 3 -18.5 14t-7.5 25q0 23 17.5 39.5t42.5 16.5
z" />
    <glyph glyph-name="lcaron" unicode="&#x13e;" horiz-adv-x="278" 
d="M76 116v440q0 33 -3 44t-17 19l-17 10q-5 5 -5 15t5 15q55 13 153 56q11 0 17 -7q-3 -61 -3 -146v-446q0 -52 6.5 -65.5t32.5 -16.5l17 -2q6 -4 6 -17.5t-7 -17.5q-49 3 -120 3q-67 0 -120 -3q-7 4 -7 17.5t6 17.5l19 2q25 2 31 15.5t6 66.5zM339 715q22 0 22 -52
q0 -49 -24.5 -109t-54.5 -90q-9 -3 -18.5 -1t-6.5 9q26 64 26 129q0 8 -3.5 18.5t-8.5 20.5l-6 12q-2 7 -2 17q0 11 25.5 28.5t50.5 17.5z" />
    <glyph glyph-name="Lslash" unicode="&#x141;" horiz-adv-x="591" 
d="M402 407l-139 -86v-155q0 -74 17 -95q11 -14 31.5 -19.5t72.5 -5.5q40 0 59 2t41 14t39 35.5t39 67.5q6 7 19.5 5t18.5 -11q-4 -37 -18 -88.5t-25 -73.5q-80 3 -231 3h-134q-65 0 -158 -3q-7 5 -8 17.5t5 17.5l38 5q34 5 42.5 21.5t8.5 85.5v88l-82 -51q-8 6 -14.5 20.5
t-3.5 27.5l100 62v225q0 69 -8.5 86t-42.5 22l-29 4q-8 4 -8 17t8 18q78 -3 152 -3q72 0 148 3q6 -5 6 -18t-6 -17l-26 -4q-34 -5 -42.5 -22t-8.5 -86v-137l118 73q11 -2 17 -17t4 -28z" />
    <glyph glyph-name="lslash" unicode="&#x142;" horiz-adv-x="286" 
d="M293 421l-81 -44v-261q0 -52 6.5 -65.5t32.5 -16.5l17 -2q6 -4 6 -17.5t-7 -17.5q-50 3 -120 3q-67 0 -120 -3q-7 4 -7 17.5t6 17.5l19 2q25 2 31 15.5t6 66.5v197l-56 -28q-8 4 -12.5 18t-2.5 21l71 38v184q0 40 -3 52t-17 21l-17 10q-5 5 -5 15t5 15q53 12 153 56
q11 0 17 -7q-3 -61 -3 -146v-135l65 34q7 -4 12 -16.5t4 -23.5z" />
    <glyph glyph-name="Nacute" unicode="&#x143;" horiz-adv-x="748" 
d="M652 409v-239q0 -128 2 -161q-5 -9 -23 -16t-36 -7l-10 14q-10 15 -30 42.5t-41 52.5l-231 286q-95 116 -109 128q-5 -10 -5 -64v-194q0 -146 15 -183q11 -25 58 -32l28 -4q6 -6 5.5 -18t-5.5 -17q-81 3 -134 3q-55 0 -112 -3q-5 5 -5.5 17t5.5 18l17 3q46 8 55 33
q14 34 14 183v254q0 69 -7 85q-13 28 -57 34l-28 4q-6 6 -4.5 19.5t8.5 15.5q70 -3 138 -3q52 0 84 3q4 -16 15.5 -36.5t39.5 -57t45.5 -57.5l64.5 -77l84 -99q77 -91 96 -110q4 10 4 45v138q0 146 -15 183q-11 25 -58 32l-27 4q-6 6 -5.5 18t5.5 17q81 -3 134 -3
q54 0 112 3q5 -5 5.5 -17t-5.5 -18l-18 -3q-43 -7 -54 -33q-15 -37 -15 -183zM321 731l162 121q23 17 33 17q18 0 34 -31q15 -26 10 -43q-4 -17 -32 -25l-196 -64q-16 6 -11 25z" />
    <glyph glyph-name="nacute" unicode="&#x144;" horiz-adv-x="550" 
d="M84 116v151q0 33 -3 44.5t-16 19.5l-14 9q-5 4 -5 15t5 15q98 27 148 58q12 0 18 -9q0 -8 -1.5 -25t-1.5 -20q0 -8 5 -8q3 0 19 8q68 40 115 40q60 0 92.5 -36t32.5 -90v-172q0 -52 6.5 -65.5t33.5 -16.5l16 -2q6 -4 6 -17.5t-7 -17.5q-47 3 -121 3q-64 0 -108 -3
q-7 4 -7 17.5t6 17.5l18 3q18 3 22.5 14t4.5 52v169q0 32 -17 51.5t-53 19.5q-39 0 -56 -24q-8 -9 -8 -37v-179q0 -41 5 -53t24 -14l16 -2q6 -4 6 -17.5t-7 -17.5q-46 3 -111 3q-66 0 -118 -3q-7 4 -7 17.5t6 17.5l16 2q27 3 33.5 16.5t6.5 65.5zM239 473l91 182
q14 30 31 30q16 0 39 -16q27 -21 27 -36t-22 -37l-141 -139q-22 -3 -25 16z" />
    <glyph glyph-name="Ncommaaccent" unicode="&#x145;" horiz-adv-x="748" 
d="M652 409v-239q0 -128 2 -161q-5 -9 -23 -16t-36 -7l-10 14q-10 15 -30 42.5t-41 52.5l-231 286q-95 116 -109 128q-5 -10 -5 -64v-194q0 -146 15 -183q11 -25 58 -32l28 -4q6 -6 5.5 -18t-5.5 -17q-81 3 -134 3q-55 0 -112 -3q-5 5 -5.5 17t5.5 18l17 3q46 8 55 33
q14 34 14 183v254q0 69 -7 85q-13 28 -57 34l-28 4q-6 6 -4.5 19.5t8.5 15.5q70 -3 138 -3q52 0 84 3q4 -16 15.5 -36.5t39.5 -57t45.5 -57.5l64.5 -77l84 -99q77 -91 96 -110q4 10 4 45v138q0 146 -15 183q-11 25 -58 32l-27 4q-6 6 -5.5 18t5.5 17q81 -3 134 -3
q54 0 112 3q5 -5 5.5 -17t-5.5 -18l-18 -3q-43 -7 -54 -33q-15 -37 -15 -183zM363 -55q35 0 61.5 -25.5t26.5 -76.5q0 -60 -37.5 -96.5t-98.5 -48.5q-10 1 -13 15t4 18q26 10 48.5 31.5t22.5 44.5q0 37 -46 48q-25 8 -25 39q0 21 17 36t40 15z" />
    <glyph glyph-name="ncommaaccent" unicode="&#x146;" horiz-adv-x="550" 
d="M84 116v151q0 33 -3 44.5t-16 19.5l-14 9q-5 4 -5 15t5 15q98 27 148 58q12 0 18 -9q0 -8 -1.5 -25t-1.5 -20q0 -8 5 -8q3 0 19 8q68 40 115 40q60 0 92.5 -36t32.5 -90v-172q0 -52 6.5 -65.5t33.5 -16.5l16 -2q6 -4 6 -17.5t-7 -17.5q-47 3 -121 3q-64 0 -108 -3
q-7 4 -7 17.5t6 17.5l18 3q18 3 22.5 14t4.5 52v169q0 32 -17 51.5t-53 19.5q-39 0 -56 -24q-8 -9 -8 -37v-179q0 -41 5 -53t24 -14l16 -2q6 -4 6 -17.5t-7 -17.5q-46 3 -111 3q-66 0 -118 -3q-7 4 -7 17.5t6 17.5l16 2q27 3 33.5 16.5t6.5 65.5zM264 -45q30 0 57 -25.5
t27 -73.5q0 -58 -36.5 -93t-94.5 -47q-10 1 -12.5 15t4.5 18q25 9 46.5 28.5t21.5 42.5q0 38 -44 50q-24 7 -24 35q0 21 16 35.5t39 14.5z" />
    <glyph glyph-name="Ncaron" unicode="&#x147;" horiz-adv-x="748" 
d="M652 409v-239q0 -128 2 -161q-5 -9 -23 -16t-36 -7l-10 14q-10 15 -30 42.5t-41 52.5l-231 286q-95 116 -109 128q-5 -10 -5 -64v-194q0 -146 15 -183q11 -25 58 -32l28 -4q6 -6 5.5 -18t-5.5 -17q-81 3 -134 3q-55 0 -112 -3q-5 5 -5.5 17t5.5 18l17 3q46 8 55 33
q14 34 14 183v254q0 69 -7 85q-13 28 -57 34l-28 4q-6 6 -4.5 19.5t8.5 15.5q70 -3 138 -3q52 0 84 3q4 -16 15.5 -36.5t39.5 -57t45.5 -57.5l64.5 -77l84 -99q77 -91 96 -110q4 10 4 45v138q0 146 -15 183q-11 25 -58 32l-27 4q-6 6 -5.5 18t5.5 17q81 -3 134 -3
q54 0 112 3q5 -5 5.5 -17t-5.5 -18l-18 -3q-43 -7 -54 -33q-15 -37 -15 -183zM233 861l121 -50q20 -8 35 -1l120 51q7 0 11 -8.5t2 -17.5l-129 -117q-23 -20 -44 0l-128 117q-1 9 3 17t9 9z" />
    <glyph glyph-name="ncaron" unicode="&#x148;" horiz-adv-x="550" 
d="M84 116v151q0 33 -3 44.5t-16 19.5l-14 9q-5 4 -5 15t5 15q98 27 148 58q12 0 18 -9q0 -8 -1.5 -25t-1.5 -20q0 -8 5 -8q3 0 19 8q68 40 115 40q60 0 92.5 -36t32.5 -90v-172q0 -52 6.5 -65.5t33.5 -16.5l16 -2q6 -4 6 -17.5t-7 -17.5q-47 3 -121 3q-64 0 -108 -3
q-7 4 -7 17.5t6 17.5l18 3q18 3 22.5 14t4.5 52v169q0 32 -17 51.5t-53 19.5q-39 0 -56 -24q-8 -9 -8 -37v-179q0 -41 5 -53t24 -14l16 -2q6 -4 6 -17.5t-7 -17.5q-46 3 -111 3q-66 0 -118 -3q-7 4 -7 17.5t6 17.5l16 2q27 3 33.5 16.5t6.5 65.5zM404 660l-106 -191
q-7 -13 -23 -13t-23 13l-106 191q7 16 29 18l80 -92q16 -19 20 -19q5 0 21 18l80 93q21 -2 28 -18z" />
    <glyph glyph-name="Omacron" unicode="&#x14c;" horiz-adv-x="788" 
d="M397 676q156 0 253.5 -95.5t97.5 -247.5q0 -162 -99 -255.5t-262 -93.5q-153 0 -250 93t-97 248q0 150 101 250.5t256 100.5zM588 320q0 132 -54 221t-145 89q-90 0 -139.5 -77t-49.5 -205q0 -51 10 -102t31.5 -102t64 -82.5t100.5 -31.5q93 0 137.5 79.5t44.5 210.5z
M520 725h-253q-9 12 -9 37.5t9 37.5h253q10 -12 10 -37.5t-10 -37.5z" />
    <glyph glyph-name="omacron" unicode="&#x14d;" horiz-adv-x="516" 
d="M255 -14q-95 0 -159 53.5t-65 152.5q-1 102 67.5 162t162.5 60t159 -56t65 -157q0 -104 -65.5 -159.5t-164.5 -55.5zM255 368q-35 0 -57.5 -38t-22.5 -116q0 -81 24 -131.5t67 -50.5q77 0 75 155q-1 78 -23 129.5t-63 51.5zM384 496h-253q-9 12 -9 36t9 36h253
q10 -12 10 -36t-10 -36z" />
    <glyph glyph-name="Ohungarumlaut" unicode="&#x150;" horiz-adv-x="788" 
d="M397 676q156 0 253.5 -95.5t97.5 -247.5q0 -162 -99 -255.5t-262 -93.5q-153 0 -250 93t-97 248q0 150 101 250.5t256 100.5zM588 320q0 132 -54 221t-145 89q-90 0 -139.5 -77t-49.5 -205q0 -51 10 -102t31.5 -102t64 -82.5t100.5 -31.5q93 0 137.5 79.5t44.5 210.5z
M441 726l73 134q14 20 27 20q16 0 38 -19q24 -23 24 -42q0 -12 -32 -36l-106 -77q-6 0 -14.5 6.5t-9.5 13.5zM269 726l73 134q14 20 27 20q17 0 41 -21q22 -19 22 -40q0 -12 -33 -36l-106 -77q-6 0 -14.5 6.5t-9.5 13.5z" />
    <glyph glyph-name="ohungarumlaut" unicode="&#x151;" horiz-adv-x="516" 
d="M255 -14q-95 0 -159 53.5t-65 152.5q-1 102 67.5 162t162.5 60t159 -56t65 -157q0 -104 -65.5 -159.5t-164.5 -55.5zM255 368q-35 0 -57.5 -38t-22.5 -116q0 -81 24 -131.5t67 -50.5q77 0 75 155q-1 78 -23 129.5t-63 51.5zM139 463l64 181q10 31 28 31q16 0 39 -16
q27 -21 27 -36q0 -13 -20 -38l-110 -138q-25 -4 -28 16zM314 463l64 181q10 31 28 31q16 0 39 -16q27 -21 27 -36q0 -13 -20 -38l-109 -138q-11 -2 -19.5 2.5t-9.5 13.5z" />
    <glyph glyph-name="OE" unicode="&#x152;" horiz-adv-x="1018" 
d="M650 660h171q115 0 134 3q0 -6 2.5 -30.5t5.5 -60t5 -64.5q-3 -8 -16.5 -9.5t-20.5 5.5q-18 58 -38 79q-31 31 -98 31h-80q-24 0 -28.5 -5.5t-4.5 -33.5v-175q0 -21 4 -25.5t24 -4.5h69q40 0 53.5 9.5t20.5 45.5l5 25q5 6 19 6t18 -7q-3 -48 -3 -106t3 -106
q-4 -7 -18 -7.5t-19 6.5l-5 25q-7 36 -21 46t-53 10h-69q-20 0 -24 -4.5t-4 -26.5v-119q0 -72 16 -95q10 -14 31.5 -20t73.5 -6q39 0 57.5 2.5t41.5 13.5t39.5 34.5t37.5 65.5q6 8 20 6t17 -11q-3 -37 -17 -87.5t-25 -72.5q-79 3 -231 3h-100q-41 0 -110.5 -3t-101.5 -3
q-187 0 -289 89.5t-102 232.5q0 154 109 252t307 98q38 0 101.5 -3t92.5 -3zM539 121v404q0 41 -7 59.5t-24 25.5q-26 10 -65 10q-115 0 -178.5 -83t-63.5 -208q0 -116 65 -202.5t186 -86.5q47 0 67 16.5t20 64.5z" />
    <glyph glyph-name="oe" unicode="&#x153;" horiz-adv-x="740" 
d="M348 187q-1 78 -23.5 129.5t-63.5 51.5q-36 0 -58.5 -38t-22.5 -116q0 -82 24.5 -132t67.5 -50q78 0 76 155zM696 237h-198q-19 0 -23 -3t-4 -17q0 -61 38.5 -103.5t106.5 -42.5q62 0 95 52q24 0 24 -23q-27 -59 -73.5 -86.5t-99.5 -27.5q-96 0 -152 65
q-24 -29 -67.5 -47t-91.5 -18q-92 0 -155.5 54t-64.5 153q-1 102 67.5 161.5t161.5 59.5q50 0 92 -20t64 -53q26 32 67.5 52.5t84.5 20.5q79 0 121.5 -41.5t42.5 -102.5q0 -16 -7.5 -24.5t-28.5 -8.5zM526 281h44q27 0 41 9q7 4 7 23q0 25 -15.5 40t-39.5 15q-32 0 -58 -24
t-26 -48q0 -10 10 -12.5t37 -2.5z" />
    <glyph glyph-name="Racute" unicode="&#x154;" horiz-adv-x="664" 
d="M114 144v354q0 76 -6.5 94.5t-37.5 22.5l-27 4q-8 4 -7.5 17.5t9.5 17.5q135 9 248 9q137 0 196 -36q88 -52 88 -148q0 -59 -30 -93t-76 -57q-12 -6 -5 -22q54 -110 87.5 -165.5t67.5 -84.5q32 -26 67 -28q6 -4 7 -13t-3 -13q-21 -9 -79 -9q-68 0 -114.5 25.5t-79.5 79.5
q-38 63 -78 155q-16 35 -53 35q-26 0 -31.5 -3.5t-5.5 -18.5v-123q0 -68 8.5 -84.5t42.5 -22.5l27 -5q5 -4 5 -17t-5 -18q-79 3 -147 3t-146 -3q-6 5 -6 18t6 17l27 5q34 6 42.5 22.5t8.5 84.5zM251 566v-195q0 -27 9 -32.5t53 -5.5q48 0 76 28q36 36 36 108q0 67 -36 107.5
t-95 40.5q-31 0 -37 -7.5t-6 -43.5zM259 731l162 121q23 17 33 17q18 0 34 -31q15 -26 10 -43q-4 -17 -32 -25l-196 -64q-16 6 -11 25z" />
    <glyph glyph-name="racute" unicode="&#x155;" horiz-adv-x="371" 
d="M84 116v149q0 33 -3 44.5t-16 19.5l-14 9q-5 4 -5 15t5 15q94 27 146 60q12 0 18 -9q-4 -40 -4 -43q0 -10 10 -12q5 3 25.5 19t37 23.5t35.5 7.5q22 0 38.5 -16t16.5 -43q0 -32 -18.5 -48.5t-45.5 -16.5q-19 0 -39 18q-24 20 -38 20q-19 0 -19 -60v-152q0 -52 6 -65.5
t31 -15.5l32 -3q6 -4 6 -17.5t-7 -17.5q-72 3 -135 3q-69 0 -118 -3q-7 4 -7 17.5t6 17.5l19 2q25 2 31 15.5t6 66.5zM152 473l91 182q14 30 31 30q16 0 39 -16q27 -21 27 -36t-22 -37l-141 -139q-22 -3 -25 16z" />
    <glyph glyph-name="Rcommaaccent" unicode="&#x156;" horiz-adv-x="664" 
d="M114 144v354q0 76 -6.5 94.5t-37.5 22.5l-27 4q-8 4 -7.5 17.5t9.5 17.5q135 9 248 9q137 0 196 -36q88 -52 88 -148q0 -59 -30 -93t-76 -57q-12 -6 -5 -22q54 -110 87.5 -165.5t67.5 -84.5q32 -26 67 -28q6 -4 7 -13t-3 -13q-21 -9 -79 -9q-68 0 -114.5 25.5t-79.5 79.5
q-38 63 -78 155q-16 35 -53 35q-26 0 -31.5 -3.5t-5.5 -18.5v-123q0 -68 8.5 -84.5t42.5 -22.5l27 -5q5 -4 5 -17t-5 -18q-79 3 -147 3t-146 -3q-6 5 -6 18t6 17l27 5q34 6 42.5 22.5t8.5 84.5zM251 566v-195q0 -27 9 -32.5t53 -5.5q48 0 76 28q36 36 36 108q0 67 -36 107.5
t-95 40.5q-31 0 -37 -7.5t-6 -43.5zM329 -55q35 0 61.5 -25.5t26.5 -76.5q0 -60 -37.5 -96.5t-98.5 -48.5q-10 1 -13 15t4 18q26 10 48.5 31.5t22.5 44.5q0 37 -46 48q-25 8 -25 39q0 21 17 36t40 15z" />
    <glyph glyph-name="rcommaaccent" unicode="&#x157;" horiz-adv-x="371" 
d="M84 116v149q0 33 -3 44.5t-16 19.5l-14 9q-5 4 -5 15t5 15q94 27 146 60q12 0 18 -9q-4 -40 -4 -43q0 -10 10 -12q5 3 25.5 19t37 23.5t35.5 7.5q22 0 38.5 -16t16.5 -43q0 -32 -18.5 -48.5t-45.5 -16.5q-19 0 -39 18q-24 20 -38 20q-19 0 -19 -60v-152q0 -52 6 -65.5
t31 -15.5l32 -3q6 -4 6 -17.5t-7 -17.5q-72 3 -135 3q-69 0 -118 -3q-7 4 -7 17.5t6 17.5l19 2q25 2 31 15.5t6 66.5zM143 -45q30 0 57 -25.5t27 -73.5q0 -58 -36.5 -93t-94.5 -47q-10 1 -12.5 15t4.5 18q25 9 46.5 28.5t21.5 42.5q0 38 -44 50q-24 7 -24 35q0 21 16 35.5
t39 14.5z" />
    <glyph glyph-name="Rcaron" unicode="&#x158;" horiz-adv-x="664" 
d="M114 144v354q0 76 -6.5 94.5t-37.5 22.5l-27 4q-8 4 -7.5 17.5t9.5 17.5q135 9 248 9q137 0 196 -36q88 -52 88 -148q0 -59 -30 -93t-76 -57q-12 -6 -5 -22q54 -110 87.5 -165.5t67.5 -84.5q32 -26 67 -28q6 -4 7 -13t-3 -13q-21 -9 -79 -9q-68 0 -114.5 25.5t-79.5 79.5
q-38 63 -78 155q-16 35 -53 35q-26 0 -31.5 -3.5t-5.5 -18.5v-123q0 -68 8.5 -84.5t42.5 -22.5l27 -5q5 -4 5 -17t-5 -18q-79 3 -147 3t-146 -3q-6 5 -6 18t6 17l27 5q34 6 42.5 22.5t8.5 84.5zM251 566v-195q0 -27 9 -32.5t53 -5.5q48 0 76 28q36 36 36 108q0 67 -36 107.5
t-95 40.5q-31 0 -37 -7.5t-6 -43.5zM164 861l127 -54q19 -9 37 0l126 54q7 0 11 -8.5t2 -17.5l-135 -117q-24 -21 -46 0l-135 117q-1 9 3 17t10 9z" />
    <glyph glyph-name="rcaron" unicode="&#x159;" horiz-adv-x="371" 
d="M84 116v149q0 33 -3 44.5t-16 19.5l-14 9q-5 4 -5 15t5 15q94 27 146 60q12 0 18 -9q-4 -40 -4 -43q0 -10 10 -12q5 3 25.5 19t37 23.5t35.5 7.5q22 0 38.5 -16t16.5 -43q0 -32 -18.5 -48.5t-45.5 -16.5q-19 0 -39 18q-24 20 -38 20q-19 0 -19 -60v-152q0 -52 6 -65.5
t31 -15.5l32 -3q6 -4 6 -17.5t-7 -17.5q-72 3 -135 3q-69 0 -118 -3q-7 4 -7 17.5t6 17.5l19 2q25 2 31 15.5t6 66.5zM330 660l-106 -191q-7 -13 -23 -13t-23 13l-106 191q7 16 29 18l80 -92q16 -19 20 -19q5 0 21 18l80 93q21 -2 28 -18z" />
    <glyph glyph-name="Sacute" unicode="&#x15a;" horiz-adv-x="506" 
d="M477 187q0 -92 -69 -147.5t-183 -55.5q-103 0 -170 38q-14 16 -23 63t-9 99q5 10 18.5 10.5t19.5 -7.5q18 -57 66 -107t106 -50q52 0 80 30t28 71q0 91 -136 159q-151 76 -151 195q-1 86 61.5 138.5t170.5 52.5q61 0 114 -16q17 -5 34 -8q18 -49 18 -143q-4 -9 -18 -10
t-21 7q-16 48 -49.5 86t-82.5 38q-48 0 -75 -27t-27 -66q0 -33 25.5 -63t65.5 -51l66 -35q141 -75 141 -201zM190 731l162 121q23 17 33 17q18 0 34 -31q15 -26 10 -43q-4 -17 -32 -25l-196 -64q-16 6 -11 25z" />
    <glyph glyph-name="sacute" unicode="&#x15b;" horiz-adv-x="358" 
d="M164 -14q-84 0 -124 31q-19 35 -16 113q4 7 17 8t17 -6q12 -37 39.5 -68.5t62.5 -31.5q23 0 37.5 13.5t14.5 38.5q0 42 -66 75q-103 51 -103 126q0 62 45 95.5t114 33.5q35 0 66 -7t41 -14q15 -33 15 -100q-3 -8 -17 -9t-18 5q-27 79 -78 79q-22 0 -36 -12t-14 -32
q0 -33 64 -64q110 -53 110 -140q-1 -64 -49 -99t-122 -35zM151 462l91 182q14 30 31 30q16 0 39 -16q27 -21 27 -36t-22 -37l-141 -139q-22 -3 -25 16z" />
    <glyph glyph-name="Scedilla" unicode="&#x15e;" horiz-adv-x="506" 
d="M185 -96l55 81q-4 -1 -15 -1q-103 0 -170 38q-14 16 -23 63t-9 99q5 10 18.5 10.5t19.5 -7.5q18 -57 66 -107t106 -50q52 0 80 30t28 71q0 91 -136 159q-151 76 -151 195q-1 86 61.5 138.5t170.5 52.5q61 0 114 -16q17 -5 34 -8q18 -49 18 -143q-4 -9 -18 -10t-21 7
q-16 48 -49.5 86t-82.5 38q-48 0 -75 -27t-27 -66q0 -33 25.5 -63t65.5 -51l66 -35q141 -75 141 -201q0 -77 -50 -129.5t-136 -67.5l-27 -37q-6 -7 -4.5 -10.5t12.5 -8.5q55 -30 55 -77q0 -36 -34.5 -60t-80.5 -24q-69 0 -69 40q0 12 8 21t20 9q14 0 33.5 -16.5t28.5 -16.5
q8 0 15.5 6t7.5 16q0 37 -68 65z" />
    <glyph glyph-name="scedilla" unicode="&#x15f;" horiz-adv-x="358" 
d="M99 -106l63 92q-82 0 -122 31q-19 35 -16 113q4 7 17 8t17 -6q12 -37 39.5 -68.5t62.5 -31.5q23 0 37.5 13.5t14.5 38.5q0 42 -66 75q-103 51 -103 126q0 62 45 95.5t114 33.5q35 0 66 -7t41 -14q15 -33 15 -100q-3 -8 -17 -9t-18 5q-27 79 -78 79q-22 0 -36 -12t-14 -32
q0 -33 64 -64q110 -53 110 -140q-1 -52 -32.5 -84.5t-84.5 -43.5l-32 -44q-6 -8 -4 -11.5t13 -9.5q61 -33 61 -85q0 -40 -38 -66.5t-89 -26.5q-77 0 -77 44q0 14 9 23.5t23 9.5q15 0 36.5 -18.5t31.5 -18.5q9 0 17.5 7t8.5 18q0 40 -76 72z" />
    <glyph glyph-name="Scaron" unicode="&#x160;" horiz-adv-x="506" 
d="M477 187q0 -92 -69 -147.5t-183 -55.5q-103 0 -170 38q-14 16 -23 63t-9 99q5 10 18.5 10.5t19.5 -7.5q18 -57 66 -107t106 -50q52 0 80 30t28 71q0 91 -136 159q-151 76 -151 195q-1 86 61.5 138.5t170.5 52.5q61 0 114 -16q17 -5 34 -8q18 -49 18 -143q-4 -9 -18 -10
t-21 7q-16 48 -49.5 86t-82.5 38q-48 0 -75 -27t-27 -66q0 -33 25.5 -63t65.5 -51l66 -35q141 -75 141 -201zM120 861l121 -50q20 -8 35 -1l120 51q7 0 11 -8.5t2 -17.5l-129 -117q-23 -20 -44 0l-128 117q-1 9 3 17t9 9z" />
    <glyph glyph-name="scaron" unicode="&#x161;" horiz-adv-x="358" 
d="M164 -14q-84 0 -124 31q-19 35 -16 113q4 7 17 8t17 -6q12 -37 39.5 -68.5t62.5 -31.5q23 0 37.5 13.5t14.5 38.5q0 42 -66 75q-103 51 -103 126q0 62 45 95.5t114 33.5q35 0 66 -7t41 -14q15 -33 15 -100q-3 -8 -17 -9t-18 5q-27 79 -78 79q-22 0 -36 -12t-14 -32
q0 -33 64 -64q110 -53 110 -140q-1 -64 -49 -99t-122 -35zM327 660l-106 -191q-7 -13 -23 -13t-23 13l-106 191q7 16 29 18l80 -92q16 -19 20 -19t21 18l80 93q21 -2 28 -18z" />
    <glyph glyph-name="uni0162" unicode="&#x162;" horiz-adv-x="645" 
d="M245 -106l72 106q-62 0 -158 -3q-6 5 -6 18t6 17l45 5q34 4 42.5 21t8.5 86v441q0 19 -3.5 24t-20.5 5h-62q-51 0 -74.5 -25t-49.5 -88q-9 -5 -21 -2.5t-16 11.5q9 31 15.5 62.5t11.5 65.5t6 42q7 5 14 5q9 0 14 -4q4 -14 17 -17.5t67 -3.5h372q52 0 68 3.5t22 18.5
q6 3 13 3q10 0 15 -7q-19 -64 -15 -172q-4 -7 -18.5 -8t-18.5 5q-8 30 -13.5 45.5t-17 33t-30 25t-45.5 7.5h-60q-18 0 -22.5 -5t-4.5 -24v-441q0 -69 8.5 -85.5t42.5 -21.5l40 -5q5 -5 5 -17.5t-5 -17.5q-69 3 -119 3l-38 -52q-6 -8 -4 -11.5t13 -9.5q61 -33 61 -85
q0 -40 -38 -66.5t-89 -26.5q-77 0 -77 44q0 14 9 23.5t23 9.5q15 0 36.5 -18.5t31.5 -18.5q9 0 17.5 7t8.5 18q0 40 -76 72z" />
    <glyph glyph-name="uni0163" unicode="&#x163;" horiz-adv-x="323" 
d="M311 346h-90q-10 0 -12 -3.5t-2 -19.5v-150q0 -23 0.5 -34.5t4 -30.5t10.5 -28.5t21 -17t34 -7.5q19 0 42 15q17 -5 14 -26q-36 -40 -100 -53l-31 -43q-6 -8 -4 -11.5t13 -9.5q61 -33 61 -85q0 -40 -38 -66.5t-89 -26.5q-77 0 -77 44q0 14 9 23.5t23 9.5q15 0 36.5 -18.5
t31.5 -18.5q9 0 17.5 7t8.5 18q0 40 -76 72l-3 8l63 93q-101 5 -101 113v223q0 16 -3 19.5t-16 3.5h-31q-8 3 -10 14.5t4 16.5q33 12 83 45q39 28 74 78q5 3 15.5 2t14.5 -7v-75q0 -14 2.5 -17t16.5 -3h89q8 -6 8 -19q0 -27 -13 -35z" />
    <glyph glyph-name="Tcaron" unicode="&#x164;" horiz-adv-x="645" 
d="M255 144v441q0 19 -3.5 24t-20.5 5h-62q-51 0 -74.5 -25t-49.5 -88q-9 -5 -21 -2.5t-16 11.5q9 31 15.5 62.5t11.5 65.5t6 42q7 5 14 5q9 0 14 -4q4 -14 17 -17.5t67 -3.5h372q52 0 68 3.5t22 18.5q6 3 13 3q10 0 15 -7q-19 -64 -15 -172q-4 -7 -18.5 -8t-18.5 5
q-8 30 -13.5 45.5t-17 33t-30 25t-45.5 7.5h-60q-18 0 -22.5 -5t-4.5 -24v-441q0 -69 8.5 -85.5t42.5 -21.5l40 -5q5 -5 5 -17.5t-5 -17.5q-97 3 -160 3q-65 0 -170 -3q-6 5 -6 18t6 17l45 5q34 4 42.5 21t8.5 86zM187 861l121 -50q20 -8 35 -1l120 51q7 0 11 -8.5t2 -17.5
l-129 -117q-23 -20 -44 0l-128 117q-1 9 3 17t9 9z" />
    <glyph glyph-name="tcaron" unicode="&#x165;" horiz-adv-x="323" 
d="M311 346h-90q-10 0 -12 -3.5t-2 -19.5v-150q0 -23 0.5 -34.5t4 -30.5t10.5 -28.5t21 -17t34 -7.5q19 0 42 15q17 -5 14 -26q-23 -24 -61.5 -41t-82.5 -17q-112 0 -112 114v223q0 16 -3 19.5t-16 3.5h-31q-8 3 -10 14.5t4 16.5q33 12 83 45q39 28 74 78q5 3 15.5 2
t14.5 -7v-75q0 -14 2.5 -17t16.5 -3h89q8 -6 8 -19q0 -27 -13 -35zM335 715q22 0 22 -52q0 -48 -21.5 -96t-51.5 -79q-9 -3 -17 3t-5 13q26 64 26 105q0 18 -15 37q-9 14 -9 23q0 11 25 28.5t46 17.5z" />
    <glyph glyph-name="Umacron" unicode="&#x16a;" horiz-adv-x="740" 
d="M109 266v250q0 68 -8 84.5t-43 23.5l-25 5q-6 4 -6 17t8 17q72 -3 146 -3t146 3q6 -5 6 -17t-6 -17l-24 -4q-34 -6 -42.5 -23t-8.5 -86v-231q0 -41 2.5 -71t12 -65.5t26.5 -57.5t48.5 -37t75.5 -15q167 0 167 249v121q0 148 -15 183q-10 23 -58 32l-27 5q-6 6 -5.5 17.5
t5.5 16.5q81 -3 134 -3q55 0 112 3q5 -5 5.5 -16.5t-5.5 -17.5l-18 -4q-44 -10 -54 -33q-15 -35 -15 -183v-112q0 -82 -13 -140.5t-51 -100.5q-67 -72 -198 -72q-129 0 -198 56q-74 61 -74 226zM514 725h-253q-9 12 -9 37.5t9 37.5h253q10 -8 10 -35.5t-10 -39.5z" />
    <glyph glyph-name="umacron" unicode="&#x16b;" horiz-adv-x="544" 
d="M471 314v-182q0 -48 5 -66.5t22 -18.5q16 0 40 8q7 -1 6.5 -20t-9.5 -23q-27 -1 -56 -5t-51 -9.5l-39.5 -10l-28.5 -7.5l-10 -4q-10 1 -12 12q3 18 3 36q0 10 -11 10q-26 -17 -40 -24.5t-40.5 -15.5t-55.5 -8q-61 0 -89 31.5t-28 96.5v170q0 38 -5.5 48.5t-24.5 16.5
l-13 4q-5 7 -4 18.5t8 16.5q54 2 97 9q13 2 28 6.5l24.5 7.5t10.5 3q10 0 12 -12q-3 -37 -3 -88v-165q0 -44 13.5 -67t57.5 -23q27 0 52 19q11 8 11 30v189q0 30 -8 40t-35 14l-14 2q-6 5 -5 18.5t10 16.5q43 2 104 10q15 2 31.5 6t27 7t12.5 3q8 0 10 -12q-3 -54 -3 -88z
M398 502h-253q-9 12 -9 36t9 36h253q10 -8 10 -34t-10 -38z" />
    <glyph glyph-name="Uring" unicode="&#x16e;" horiz-adv-x="740" 
d="M109 266v250q0 68 -8 84.5t-43 23.5l-25 5q-6 4 -6 17t8 17q72 -3 146 -3t146 3q6 -5 6 -17t-6 -17l-24 -4q-34 -6 -42.5 -23t-8.5 -86v-231q0 -41 2.5 -71t12 -65.5t26.5 -57.5t48.5 -37t75.5 -15q167 0 167 249v121q0 148 -15 183q-10 23 -58 32l-27 5q-6 6 -5.5 17.5
t5.5 16.5q81 -3 134 -3q55 0 112 3q5 -5 5.5 -16.5t-5.5 -17.5l-18 -4q-44 -10 -54 -33q-15 -35 -15 -183v-112q0 -82 -13 -140.5t-51 -100.5q-67 -72 -198 -72q-129 0 -198 56q-74 61 -74 226zM398 689q-46 0 -74.5 29.5t-28.5 69.5q0 39 28.5 68.5t74.5 29.5t74.5 -29.5
t28.5 -68.5q0 -40 -28.5 -69.5t-74.5 -29.5zM398 727q21 0 33 17.5t12 43.5t-12 44t-33 19q-21 -1 -33 -19t-12 -44t12 -43.5t33 -17.5z" />
    <glyph glyph-name="uring" unicode="&#x16f;" horiz-adv-x="544" 
d="M471 314v-182q0 -48 5 -66.5t22 -18.5q16 0 40 8q7 -1 6.5 -20t-9.5 -23q-27 -1 -56 -5t-51 -9.5l-39.5 -10l-28.5 -7.5l-10 -4q-10 1 -12 12q3 18 3 36q0 10 -11 10q-26 -17 -40 -24.5t-40.5 -15.5t-55.5 -8q-61 0 -89 31.5t-28 96.5v170q0 38 -5.5 48.5t-24.5 16.5
l-13 4q-5 7 -4 18.5t8 16.5q54 2 97 9q13 2 28 6.5l24.5 7.5t10.5 3q10 0 12 -12q-3 -37 -3 -88v-165q0 -44 13.5 -67t57.5 -23q27 0 52 19q11 8 11 30v189q0 30 -8 40t-35 14l-14 2q-6 5 -5 18.5t10 16.5q43 2 104 10q15 2 31.5 6t27 7t12.5 3q8 0 10 -12q-3 -54 -3 -88z
M272 457q-48 0 -78 29.5t-30 69.5q0 39 30 68.5t78 29.5q49 0 78.5 -29t29.5 -69t-29.5 -69.5t-78.5 -29.5zM272 495q22 0 35 17.5t13 43.5t-13 44t-35 19q-22 -1 -35 -19t-13 -44t13 -43.5t35 -17.5z" />
    <glyph glyph-name="Uhungarumlaut" unicode="&#x170;" horiz-adv-x="740" 
d="M109 266v250q0 68 -8 84.5t-43 23.5l-25 5q-6 4 -6 17t8 17q72 -3 146 -3t146 3q6 -5 6 -17t-6 -17l-24 -4q-34 -6 -42.5 -23t-8.5 -86v-231q0 -41 2.5 -71t12 -65.5t26.5 -57.5t48.5 -37t75.5 -15q167 0 167 249v121q0 148 -15 183q-10 23 -58 32l-27 5q-6 6 -5.5 17.5
t5.5 16.5q81 -3 134 -3q55 0 112 3q5 -5 5.5 -16.5t-5.5 -17.5l-18 -4q-44 -10 -54 -33q-15 -35 -15 -183v-112q0 -82 -13 -140.5t-51 -100.5q-67 -72 -198 -72q-129 0 -198 56q-74 61 -74 226zM437 726l73 134q14 20 27 20q16 0 38 -19q24 -23 24 -42q0 -12 -32 -36
l-106 -77q-6 0 -14.5 6.5t-9.5 13.5zM265 726l73 134q14 20 27 20q17 0 41 -21q22 -19 22 -40q0 -12 -33 -36l-106 -77q-6 0 -14.5 6.5t-9.5 13.5z" />
    <glyph glyph-name="uhungarumlaut" unicode="&#x171;" horiz-adv-x="544" 
d="M471 314v-182q0 -48 5 -66.5t22 -18.5q16 0 40 8q7 -1 6.5 -20t-9.5 -23q-27 -1 -56 -5t-51 -9.5l-39.5 -10l-28.5 -7.5l-10 -4q-10 1 -12 12q3 18 3 36q0 10 -11 10q-26 -17 -40 -24.5t-40.5 -15.5t-55.5 -8q-61 0 -89 31.5t-28 96.5v170q0 38 -5.5 48.5t-24.5 16.5
l-13 4q-5 7 -4 18.5t8 16.5q54 2 97 9q13 2 28 6.5l24.5 7.5t10.5 3q10 0 12 -12q-3 -37 -3 -88v-165q0 -44 13.5 -67t57.5 -23q27 0 52 19q11 8 11 30v189q0 30 -8 40t-35 14l-14 2q-6 5 -5 18.5t10 16.5q43 2 104 10q15 2 31.5 6t27 7t12.5 3q8 0 10 -12q-3 -54 -3 -88z
M153 468l64 181q10 31 28 31q16 0 39 -16q27 -21 27 -36q0 -13 -20 -38l-110 -138q-25 -4 -28 16zM328 468l64 181q10 31 28 31q16 0 39 -16q27 -21 27 -36q0 -13 -20 -38l-109 -138q-11 -2 -19.5 2.5t-9.5 13.5z" />
    <glyph glyph-name="Uogonek" unicode="&#x172;" horiz-adv-x="740" 
d="M109 266v250q0 68 -8 84.5t-43 23.5l-25 5q-6 4 -6 17t8 17q72 -3 146 -3t146 3q6 -5 6 -17t-6 -17l-24 -4q-34 -6 -42.5 -23t-8.5 -86v-231q0 -41 2.5 -71t12 -65.5t26.5 -57.5t48.5 -37t75.5 -15q92 0 129.5 62.5t37.5 186.5v121q0 148 -15 183q-10 23 -58 32l-27 5
q-6 6 -5.5 17.5t5.5 16.5q81 -3 134 -3q55 0 112 3q5 -5 5.5 -16.5t-5.5 -17.5l-18 -4q-44 -10 -54 -33q-15 -35 -15 -183v-112q0 -166 -67 -240q-13 -14 -25.5 -23.5t-26 -17.5t-16.5 -10q-63 -51 -63 -114q0 -25 15.5 -41.5t46.5 -16.5q13 0 47 13q9 -3 9 -22
q-18 -24 -49.5 -39.5t-66.5 -15.5q-46 0 -70.5 27t-24.5 60q0 60 95 136q-28 -9 -66 -9q-129 0 -198 56q-74 61 -74 226z" />
    <glyph glyph-name="uogonek" unicode="&#x173;" horiz-adv-x="544" 
d="M471 314v-182q0 -48 5 -66.5t22 -18.5q16 0 40 8q7 -1 6.5 -20t-9.5 -23q-11 0 -16 -1q-35 -27 -58 -66.5t-23 -67.5q0 -27 13.5 -43t40.5 -16q29 0 53 11q10 -3 10 -19q-37 -55 -106 -55q-55 0 -79 26.5t-24 63.5q0 78 122 160q-28 -5 -57 -12t-45 -12l-16 -5
q-10 1 -12 12q3 18 3 36q0 10 -11 10q-26 -17 -40 -24.5t-40.5 -15.5t-55.5 -8q-61 0 -89 31.5t-28 96.5v170q0 38 -5.5 48.5t-24.5 16.5l-13 4q-5 7 -4 18.5t8 16.5q54 2 97 9q13 2 28 6.5l24.5 7.5t10.5 3q10 0 12 -12q-3 -37 -3 -88v-165q0 -44 13.5 -67t57.5 -23
q27 0 52 19q11 8 11 30v189q0 30 -8 40t-35 14l-14 2q-6 5 -5 18.5t10 16.5q43 2 104 10q15 2 31.5 6t27 7t12.5 3q8 0 10 -12q-3 -54 -3 -88z" />
    <glyph glyph-name="Ydieresis" unicode="&#x178;" horiz-adv-x="575" 
d="M367 214v-70q0 -69 8.5 -85.5t42.5 -21.5l40 -5q5 -4 5 -17t-5 -18q-98 3 -162 3q-68 0 -157 -3q-6 5 -6 18t6 17l34 5q34 5 42.5 22t8.5 85v50q0 40 -4.5 60.5t-22.5 58.5l-119 246q-17 34 -28 46.5t-36 16.5l-34 6q-7 6 -6 19.5t10 15.5q67 -3 141 -3q95 0 146 3
q7 -3 8 -16t-6 -19l-34 -8q-24 -5 -24 -9q0 -12 26 -70l47 -107l16 -34.5l19.5 -40.5l14.5 -29q14 23 86 165q48 95 48 113q0 9 -40 16l-19 4q-6 4 -6 17.5t7 17.5q60 -3 112 -3q54 0 98 3q9 -3 9.5 -16.5t-5.5 -18.5l-26 -5q-38 -6 -52 -24q-29 -36 -87 -142l-63 -114
q-20 -36 -26.5 -61.5t-6.5 -67.5zM218 712q-26 0 -43 15t-18 43q0 28 17.5 46t43.5 18t43 -17.5t17 -41.5q0 -28 -17 -45.5t-43 -17.5zM427 712q-26 0 -43 15t-18 43q0 28 17.5 46t43.5 18t43 -17.5t17 -41.5q0 -28 -17 -45.5t-43 -17.5z" />
    <glyph glyph-name="Zacute" unicode="&#x179;" horiz-adv-x="614" 
d="M360 614h-108q-57 0 -89 -12.5t-47.5 -34t-34.5 -68.5q-10 -6 -23 -3.5t-18 10.5q18 68 39 177q3 3 11.5 3t14.5 -2q5 -16 18 -20t67 -4h286q92 0 117 3q8 -5 6 -15q-37 -39 -150 -214l-109 -169q-120 -186 -125 -200q-1 -4 -1 -6q0 -13 92 -13h93q77 0 112 22t75 104
q9 6 21.5 3.5t17.5 -10.5q-5 -42 -18.5 -96t-25.5 -72q-126 3 -209 3h-252q-77 0 -101 -3q-12 5 -8 17q11 12 92 134l197 300q65 101 84 136q10 19 10 24q0 6 -34 6zM253 732l171 127q26 18 34 18q19 0 36 -32q17 -28 10 -46q-4 -16 -33 -26l-206 -67q-6 2 -10 10t-2 16z
" />
    <glyph glyph-name="zacute" unicode="&#x17a;" horiz-adv-x="415" 
d="M223 0h-97q-73 0 -97 -3q-11 4 -7 16q46 69 88 144l93 165q11 21 11 29q0 5 -28 5h-31q-55 0 -71 -19q-19 -19 -32 -58q-7 -6 -19.5 -3t-16.5 11q13 87 31 132q4 4 11 4t10 -4q2 -13 10.5 -16t45.5 -3h180q65 0 83 3q8 -4 6 -13q-9 -12 -71 -117l-107 -182
q-18 -32 -18 -41q0 -6 40 -6h24q73 0 94 34q11 15 30 54q6 6 19 4t17 -9q-2 -28 -15 -71.5t-23 -58.5q-123 3 -160 3zM184 463l91 182q14 30 31 30q16 0 39 -16q27 -21 27 -36t-22 -37l-141 -139q-22 -3 -25 16z" />
    <glyph glyph-name="Zdotaccent" unicode="&#x17b;" horiz-adv-x="614" 
d="M360 614h-108q-57 0 -89 -12.5t-47.5 -34t-34.5 -68.5q-10 -6 -23 -3.5t-18 10.5q18 68 39 177q3 3 11.5 3t14.5 -2q5 -16 18 -20t67 -4h286q92 0 117 3q8 -5 6 -15q-37 -39 -150 -214l-109 -169q-120 -186 -125 -200q-1 -4 -1 -6q0 -13 92 -13h93q77 0 112 22t75 104
q9 6 21.5 3.5t17.5 -10.5q-5 -42 -18.5 -96t-25.5 -72q-126 3 -209 3h-252q-77 0 -101 -3q-12 5 -8 17q11 12 92 134l197 300q65 101 84 136q10 19 10 24q0 6 -34 6zM338 712q-28 0 -46.5 16t-19.5 45q0 29 19 48t47 19q26 0 44.5 -18t18.5 -43q0 -30 -18 -48.5t-45 -18.5z
" />
    <glyph glyph-name="zdotaccent" unicode="&#x17c;" horiz-adv-x="415" 
d="M223 0h-97q-73 0 -97 -3q-11 4 -7 16q46 69 88 144l93 165q11 21 11 29q0 5 -28 5h-31q-55 0 -71 -19q-19 -19 -32 -58q-7 -6 -19.5 -3t-16.5 11q13 87 31 132q4 4 11 4t10 -4q2 -13 10.5 -16t45.5 -3h180q65 0 83 3q8 -4 6 -13q-9 -12 -71 -117l-107 -182
q-18 -32 -18 -41q0 -6 40 -6h24q73 0 94 34q11 15 30 54q6 6 19 4t17 -9q-2 -28 -15 -71.5t-23 -58.5q-123 3 -160 3zM216 487q-27 0 -44.5 15.5t-18.5 43.5q0 28 18 46t45 18q26 0 43.5 -17.5t17.5 -41.5q0 -29 -17 -46.5t-44 -17.5z" />
    <glyph glyph-name="Zcaron" unicode="&#x17d;" horiz-adv-x="614" 
d="M360 614h-108q-57 0 -89 -12.5t-47.5 -34t-34.5 -68.5q-10 -6 -23 -3.5t-18 10.5q18 68 39 177q3 3 11.5 3t14.5 -2q5 -16 18 -20t67 -4h286q92 0 117 3q8 -5 6 -15q-37 -39 -150 -214l-109 -169q-120 -186 -125 -200q-1 -4 -1 -6q0 -13 92 -13h93q77 0 112 22t75 104
q9 6 21.5 3.5t17.5 -10.5q-5 -42 -18.5 -96t-25.5 -72q-126 3 -209 3h-252q-77 0 -101 -3q-12 5 -8 17q11 12 92 134l197 300q65 101 84 136q10 19 10 24q0 6 -34 6zM206 861l121 -50q20 -8 35 -1l120 51q7 0 11 -8.5t2 -17.5l-129 -117q-23 -20 -44 0l-128 117q-1 9 3 17
t9 9z" />
    <glyph glyph-name="zcaron" unicode="&#x17e;" horiz-adv-x="415" 
d="M223 0h-97q-73 0 -97 -3q-11 4 -7 16q46 69 88 144l93 165q11 21 11 29q0 5 -28 5h-31q-55 0 -71 -19q-19 -19 -32 -58q-7 -6 -19.5 -3t-16.5 11q13 87 31 132q4 4 11 4t10 -4q2 -13 10.5 -16t45.5 -3h180q65 0 83 3q8 -4 6 -13q-9 -12 -71 -117l-107 -182
q-18 -32 -18 -41q0 -6 40 -6h24q73 0 94 34q11 15 30 54q6 6 19 4t17 -9q-2 -28 -15 -71.5t-23 -58.5q-123 3 -160 3zM343 660l-106 -191q-7 -13 -23 -13t-23 13l-106 191q7 16 29 18l80 -92q16 -19 20 -19t21 18l80 93q21 -2 28 -18z" />
    <glyph glyph-name="florin" unicode="&#x192;" horiz-adv-x="520" 
d="M80 427h85q16 82 44 137q24 49 78 91t127 42q44 0 65 -14t21 -33q0 -26 -19 -45.5t-40 -19.5q-15 0 -25 18q-23 41 -42 41q-31 0 -70 -217h113q7 -4 4 -20t-14 -25h-111q-11 -54 -26 -145q-24 -144 -50 -205.5t-74 -104.5q-52 -49 -124 -49q-37 0 -55.5 19t-18.5 50
q0 23 7 40t16 17q12 0 29 -19q47 -50 66 -50q16 0 24 45l37 217l31 185h-88q-5 7 -2 24t12 21z" />
    <glyph glyph-name="Scommaaccent" unicode="&#x218;" horiz-adv-x="506" 
d="M477 187q0 -92 -69 -147.5t-183 -55.5q-103 0 -170 38q-14 16 -23 63t-9 99q5 10 18.5 10.5t19.5 -7.5q18 -57 66 -107t106 -50q52 0 80 30t28 71q0 91 -136 159q-151 76 -151 195q-1 86 61.5 138.5t170.5 52.5q61 0 114 -16q17 -5 34 -8q18 -49 18 -143q-4 -9 -18 -10
t-21 7q-16 48 -49.5 86t-82.5 38q-48 0 -75 -27t-27 -66q0 -33 25.5 -63t65.5 -51l66 -35q141 -75 141 -201zM232 -55q35 0 61.5 -25.5t26.5 -76.5q0 -60 -37.5 -96.5t-98.5 -48.5q-10 1 -13 15t4 18q26 10 48.5 31.5t22.5 44.5q0 37 -46 48q-25 8 -25 39q0 21 17 36t40 15z
" />
    <glyph glyph-name="scommaaccent" unicode="&#x219;" horiz-adv-x="358" 
d="M164 -14q-84 0 -124 31q-19 35 -16 113q4 7 17 8t17 -6q12 -37 39.5 -68.5t62.5 -31.5q23 0 37.5 13.5t14.5 38.5q0 42 -66 75q-103 51 -103 126q0 62 45 95.5t114 33.5q35 0 66 -7t41 -14q15 -33 15 -100q-3 -8 -17 -9t-18 5q-27 79 -78 79q-22 0 -36 -12t-14 -32
q0 -33 64 -64q110 -53 110 -140q-1 -64 -49 -99t-122 -35zM158 -45q30 0 57 -25.5t27 -73.5q0 -58 -36.5 -93t-94.5 -47q-10 1 -12.5 15t4.5 18q25 9 46.5 28.5t21.5 42.5q0 38 -44 50q-24 7 -24 35q0 21 16 35.5t39 14.5z" />
    <glyph glyph-name="uni021A" unicode="&#x21a;" horiz-adv-x="645" 
d="M255 144v441q0 19 -3.5 24t-20.5 5h-62q-51 0 -74.5 -25t-49.5 -88q-9 -5 -21 -2.5t-16 11.5q9 31 15.5 62.5t11.5 65.5t6 42q7 5 14 5q9 0 14 -4q4 -14 17 -17.5t67 -3.5h372q52 0 68 3.5t22 18.5q6 3 13 3q10 0 15 -7q-19 -64 -15 -172q-4 -7 -18.5 -8t-18.5 5
q-8 30 -13.5 45.5t-17 33t-30 25t-45.5 7.5h-60q-18 0 -22.5 -5t-4.5 -24v-441q0 -69 8.5 -85.5t42.5 -21.5l40 -5q5 -5 5 -17.5t-5 -17.5q-97 3 -160 3q-65 0 -170 -3q-6 5 -6 18t6 17l45 5q34 4 42.5 21t8.5 86zM312 -55q35 0 61.5 -25.5t26.5 -76.5q0 -60 -37.5 -96.5
t-98.5 -48.5q-10 1 -13 15t4 18q26 10 48.5 31.5t22.5 44.5q0 37 -46 48q-25 8 -25 39q0 21 17 36t40 15z" />
    <glyph glyph-name="uni021B" unicode="&#x21b;" horiz-adv-x="323" 
d="M311 346h-90q-10 0 -12 -3.5t-2 -19.5v-150q0 -23 0.5 -34.5t4 -30.5t10.5 -28.5t21 -17t34 -7.5q19 0 42 15q17 -5 14 -26q-23 -24 -61.5 -41t-82.5 -17q-112 0 -112 114v223q0 16 -3 19.5t-16 3.5h-31q-8 3 -10 14.5t4 16.5q33 12 83 45q39 28 74 78q5 3 15.5 2
t14.5 -7v-75q0 -14 2.5 -17t16.5 -3h89q8 -6 8 -19q0 -27 -13 -35zM181 -45q30 0 57 -25.5t27 -73.5q0 -58 -36.5 -93t-94.5 -47q-10 1 -12.5 15t4.5 18q25 9 46.5 28.5t21.5 42.5q0 38 -44 50q-24 7 -24 35q0 21 16 35.5t39 14.5z" />
    <glyph glyph-name="circumflex" unicode="&#x2c6;" horiz-adv-x="380" 
d="M61 473l106 191q7 13 23 13t23 -13l106 -191q-7 -16 -29 -18l-80 87q-18 19 -20 19q-4 0 -21 -18l-80 -88q-21 2 -28 18z" />
    <glyph glyph-name="caron" unicode="&#x2c7;" horiz-adv-x="380" 
d="M319 660l-106 -191q-7 -13 -23 -13t-23 13l-106 191q7 16 29 18l80 -87q18 -19 20 -19q4 0 21 18l80 88q21 -2 28 -18z" />
    <glyph glyph-name="uni02C9" unicode="&#x2c9;" horiz-adv-x="380" 
d="M316 501h-253q-9 12 -9 35.5t9 35.5h253q10 -12 10 -35.5t-10 -35.5z" />
    <glyph glyph-name="breve" unicode="&#x2d8;" horiz-adv-x="380" 
d="M190 488q-61 0 -92.5 40t-28.5 114q5 4 15 4t15 -4q7 -33 32.5 -53.5t58.5 -20.5q34 0 59 19t32 55q5 4 15 4t15 -4q3 -74 -28.5 -114t-92.5 -40z" />
    <glyph glyph-name="dotaccent" unicode="&#x2d9;" horiz-adv-x="380" 
d="M191 492q-27 0 -44.5 15.5t-18.5 43.5q0 28 18 46t45 18q26 0 43.5 -17.5t17.5 -41.5q0 -29 -17 -46.5t-44 -17.5z" />
    <glyph glyph-name="ring" unicode="&#x2da;" horiz-adv-x="380" 
d="M190 459q-48 0 -78 29.5t-30 69.5q0 39 30 68.5t78 29.5q49 0 78.5 -29t29.5 -69t-29.5 -69.5t-78.5 -29.5zM190 497q22 0 35 17.5t13 43.5t-13 44t-35 19q-22 -1 -35 -19t-13 -44t13 -43.5t35 -17.5z" />
    <glyph glyph-name="ogonek" unicode="&#x2db;" horiz-adv-x="380" 
d="M226 15h37q-43 -43 -63.5 -75t-20.5 -64q0 -58 54 -58q25 0 53 11q10 -3 10 -19q-37 -55 -109 -55q-53 0 -76.5 26.5t-23.5 63.5q0 40 31.5 78t107.5 92z" />
    <glyph glyph-name="tilde" unicode="&#x2dc;" horiz-adv-x="380" 
d="M230 515h-56q-58 0 -86 -49q-4 -3 -16 -1.5t-15 7.5q19 59 41 87q23 28 61 28h56q33 0 50 9t28 38q6 2 16.5 0.5t13.5 -5.5q-9 -50 -33 -86q-19 -28 -60 -28z" />
    <glyph glyph-name="hungarumlaut" unicode="&#x2dd;" horiz-adv-x="380" 
d="M71 473l64 181q10 31 28 31q16 0 39 -16q27 -21 27 -36q0 -13 -20 -38l-110 -138q-25 -4 -28 16zM246 473l64 181q10 31 28 31q16 0 39 -16q27 -21 27 -36q0 -13 -20 -38l-109 -138q-11 -2 -19.5 2.5t-9.5 13.5z" />
    <glyph glyph-name="pi" unicode="&#x3c0;" horiz-adv-x="539" 
d="M345 309h-127q-25 -161 -41 -231q-21 -92 -73 -92q-55 0 -54 54q0 18 20 32q64 44 96 237q-100 0 -129 -42q-5 -8 -11.5 -6.5t-7.5 13.5q-3 22 9 55t46 53q30 18 94 18h217q98 0 115 9q2 1 4 1.5t3.5 -2t1.5 -7.5q0 -23 -10 -48.5t-24 -34.5q-15 -9 -68 -9
q-19 -71 -20 -139q-1 -47 11 -71.5t34 -24.5q28 0 56 33q10 12 20 7.5t4 -23.5q-37 -105 -138 -105q-89 0 -89 104q0 72 61 219z" />
    <glyph glyph-name="uni2010" unicode="&#x2010;" horiz-adv-x="328" 
d="M45 237l239 22q14 -16 14 -42q0 -23 -13 -39l-240 -22q-15 15 -15 40q0 22 15 41z" />
    <glyph glyph-name="figuredash" unicode="&#x2012;" horiz-adv-x="520" 
d="M42 349h436v-69h-436v69z" />
    <glyph glyph-name="endash" unicode="&#x2013;" horiz-adv-x="500" 
d="M0 242h500v-69h-500v69z" />
    <glyph glyph-name="emdash" unicode="&#x2014;" horiz-adv-x="1000" 
d="M0 242h1000v-69h-1000v69z" />
    <glyph glyph-name="quoteleft" unicode="&#x2018;" horiz-adv-x="253" 
d="M139 414q-37 0 -68 31t-31 91q0 66 45.5 110.5t112.5 59.5q12 -1 15.5 -13.5t-5.5 -17.5q-33 -12 -59 -36.5t-26 -56.5q0 -48 55 -62q30 -9 30 -44q0 -26 -20.5 -44t-48.5 -18z" />
    <glyph glyph-name="quoteright" unicode="&#x2019;" horiz-adv-x="253" 
d="M114 700q36 0 67.5 -31t31.5 -91q0 -66 -45.5 -110.5t-112.5 -59.5q-12 1 -15.5 13.5t5.5 17.5q33 12 59 36.5t26 56.5q0 48 -55 62q-30 9 -30 44q0 26 20.5 44t48.5 18z" />
    <glyph glyph-name="quotesinglbase" unicode="&#x201a;" horiz-adv-x="253" 
d="M114 170q37 0 68 -31.5t31 -92.5q0 -67 -45 -109.5t-113 -58.5q-12 1 -15.5 13.5t5.5 17.5q33 12 59 36.5t26 56.5q0 48 -55 62q-30 9 -30 44q0 26 20.5 44t48.5 18z" />
    <glyph glyph-name="quotedblleft" unicode="&#x201c;" horiz-adv-x="472" 
d="M139 414q-37 0 -68 31t-31 91q0 66 45.5 110.5t112.5 59.5q12 -1 15.5 -13.5t-5.5 -17.5q-33 -12 -59 -36.5t-26 -56.5q0 -48 55 -62q30 -9 30 -44q0 -26 -20.5 -44t-48.5 -18zM358 414q-36 0 -67.5 31t-31.5 91q0 66 45.5 110.5t112.5 59.5q12 -1 15.5 -13.5t-5.5 -17.5
q-33 -12 -59 -36.5t-26 -56.5q0 -48 55 -62q30 -9 30 -44q0 -26 -20.5 -44t-48.5 -18z" />
    <glyph glyph-name="quotedblright" unicode="&#x201d;" horiz-adv-x="472" 
d="M114 700q36 0 67.5 -31t31.5 -91q0 -66 -45.5 -110.5t-112.5 -59.5q-12 1 -15.5 13.5t5.5 17.5q33 12 59 36.5t26 56.5q0 48 -55 62q-30 9 -30 44q0 26 20.5 44t48.5 18zM333 700q37 0 68 -31t31 -91q0 -66 -45.5 -110.5t-112.5 -59.5q-12 1 -15.5 13.5t5.5 17.5
q33 12 59 36.5t26 56.5q0 48 -55 62q-30 9 -30 44q0 26 20.5 44t48.5 18z" />
    <glyph glyph-name="quotedblbase" unicode="&#x201e;" horiz-adv-x="472" 
d="M114 170q37 0 68 -31.5t31 -92.5q0 -67 -45 -109.5t-113 -58.5q-12 1 -15.5 13.5t5.5 17.5q33 12 59 36.5t26 56.5q0 48 -55 62q-30 9 -30 44q0 26 20.5 44t48.5 18zM333 170q37 0 68 -31.5t31 -92.5q0 -67 -45 -109.5t-113 -58.5q-12 1 -15.5 13.5t5.5 17.5
q33 12 59 36.5t26 56.5q0 48 -55 62q-30 9 -30 44q0 26 20.5 44t48.5 18z" />
    <glyph glyph-name="dagger" unicode="&#x2020;" horiz-adv-x="490" 
d="M274 -127h-58v127q0 125 -41 262q40 49 40 158q-28 0 -64.5 -16t-53.5 -16q-25 0 -41 14.5t-16 40.5q0 24 16 39t41 15q17 0 53.5 -16t64.5 -16q-2 44 -20 84t-18 57q0 31 18 50.5t50 19.5t50 -19.5t18 -50.5q0 -17 -18 -57t-20 -84q28 0 65 16t54 16q24 0 40 -15t16 -39
q0 -25 -16 -40t-40 -15q-17 0 -54 16t-65 16q0 -109 40 -158q-41 -137 -41 -262v-127z" />
    <glyph glyph-name="daggerdbl" unicode="&#x2021;" horiz-adv-x="492" 
d="M246 676q36 0 50.5 -20t14.5 -45q0 -17 -17 -56.5t-19 -81.5q32 0 71.5 15.5t51.5 15.5q23 0 38.5 -15t15.5 -38q0 -24 -15.5 -39t-38.5 -15q-12 0 -51.5 15.5t-71.5 15.5q0 -99 42 -141q-42 -38 -42 -149q32 0 71.5 15.5t51.5 15.5q24 0 39 -15.5t15 -40.5
q0 -22 -15.5 -36.5t-38.5 -14.5q-12 0 -51.5 15.5t-71.5 15.5q0 -41 18 -85t18 -68q0 -27 -16.5 -45.5t-48.5 -18.5q-31 0 -48 18.5t-17 45.5q0 24 18 68t18 85q-32 0 -71 -15.5t-51 -15.5q-23 0 -39 14.5t-16 36.5q0 25 15.5 40.5t39.5 15.5q12 0 51 -15.5t71 -15.5
q0 111 -42 149q42 42 42 141q-32 0 -71 -15.5t-51 -15.5q-24 0 -39.5 15t-15.5 39q0 23 16 38t39 15q12 0 51 -15.5t71 -15.5q-2 42 -19 81.5t-17 56.5q0 25 14.5 45t50.5 20z" />
    <glyph glyph-name="bullet" unicode="&#x2022;" horiz-adv-x="395" 
d="M197 492q65 0 110.5 -45.5t45.5 -110.5q0 -66 -45.5 -111.5t-110.5 -45.5q-64 0 -109.5 45.5t-45.5 111.5q0 65 45 110.5t110 45.5z" />
    <glyph glyph-name="onedotenleader" unicode="&#x2024;" horiz-adv-x="500" 
d="M250 -14q-32 0 -56.5 23t-24.5 58t23.5 59t57.5 24q35 0 58 -25t23 -58q0 -35 -22.5 -58t-58.5 -23z" />
    <glyph glyph-name="twodotenleader" unicode="&#x2025;" horiz-adv-x="500" 
d="M125 -14q-32 0 -56.5 23t-24.5 58t23.5 59t57.5 24q35 0 58 -25t23 -58q0 -35 -22.5 -58t-58.5 -23zM375 -14q-32 0 -56.5 23t-24.5 58t23.5 59t57.5 24q35 0 58 -25t23 -58q0 -35 -22.5 -58t-58.5 -23z" />
    <glyph glyph-name="ellipsis" unicode="&#x2026;" horiz-adv-x="1000" 
d="M500 -14q-32 0 -56.5 23t-24.5 58t23.5 59t57.5 24q35 0 58 -25t23 -58q0 -35 -22.5 -58t-58.5 -23zM833 -14q-32 0 -56.5 23t-24.5 58t23.5 59t57.5 24q35 0 58 -25t23 -58q0 -35 -22.5 -58t-58.5 -23zM167 -14q-32 0 -56.5 23t-24.5 58t23.5 59t57.5 24q35 0 58 -25
t23 -58q0 -35 -22.5 -58t-58.5 -23z" />
    <glyph glyph-name="perthousand" unicode="&#x2030;" horiz-adv-x="1188" 
d="M620 -12q-54 0 -91.5 31.5t-51.5 71t-14 81.5q0 31 8.5 62t26 59.5t49.5 46t73 17.5t73 -17.5t49.5 -46t26 -59.5t8.5 -62q0 -42 -14 -81.5t-51.5 -71t-91.5 -31.5zM681 173q0 23 -2 44.5t-8 45.5t-18.5 39t-30.5 15t-31.5 -14.5t-20 -38t-9 -46t-2.5 -45.5
q0 -53 14.5 -99t48.5 -46q18 0 30.5 15t18.5 39.5t8 46.5t2 44zM193 271q-79 0 -118 57.5t-39 126.5t39 127t118 58q54 0 91.5 -31.5t51.5 -71.5t14 -82t-14 -81.5t-51.5 -71t-91.5 -31.5zM254 456q0 53 -13 98.5t-47 45.5t-48 -45t-14 -99q0 -53 14 -99t48 -46t47 45.5
t13 99.5zM990 -12q-54 0 -91.5 31.5t-51.5 71t-14 81.5q0 31 8.5 62t26 59.5t49.5 46t73 17.5t73 -17.5t49.5 -46t26 -59.5t8.5 -62q0 -42 -14 -81.5t-51.5 -71t-91.5 -31.5zM1051 173q0 23 -2 44.5t-8 45.5t-18.5 39t-30.5 15t-31.5 -14.5t-20 -38t-9 -46t-2.5 -45.5
q0 -53 14.5 -99t48.5 -46q18 0 30.5 15t18.5 39.5t8 46.5t2 44zM240 -40q-13 -3 -26.5 4t-18.5 20l370 670q12 2 26.5 -5t18.5 -19z" />
    <glyph glyph-name="guilsinglleft" unicode="&#x2039;" horiz-adv-x="255" 
d="M219 384l-76 -160q-7 -14 0 -29l76 -163q-8 -16 -22 -15l-152 174q-15 18 0 36l152 172q17 -4 22 -15z" />
    <glyph glyph-name="guilsinglright" unicode="&#x203a;" horiz-adv-x="255" 
d="M112 224l-76 160q5 11 22 15l152 -172q15 -18 0 -36l-152 -174q-14 -1 -22 15l76 163q7 15 0 29z" />
    <glyph glyph-name="fraction" unicode="&#x2044;" horiz-adv-x="100" 
d="M259 630l-370 -670q-14 -3 -28 4t-19 20l370 670q13 2 28.5 -5t18.5 -19z" />
    <glyph glyph-name="zero.superior" unicode="&#x2070;" 
d="M200 713q81 0 123.5 -60t42.5 -140q0 -81 -42.5 -140.5t-123.5 -59.5t-123 59.5t-42 140.5q0 80 42.5 140t122.5 60zM200 679q-29 0 -40.5 -53t-11.5 -113q0 -59 11.5 -112.5t40.5 -53.5q16 0 27 18t16.5 46t7.5 53t2 49q0 25 -2 50t-7.5 53t-16.5 45.5t-27 17.5z" />
    <glyph glyph-name="four.superior" unicode="&#x2074;" 
d="M200 396v14q0 13 -2 15.5t-13 2.5h-153q-11 6 -7 23l216 283q10 12 20 12h29q5 0 7.5 -3t1.5 -8t-6 -11l-196 -247q-1 -10 15 -11h73q10 0 12.5 3t2.5 14v75q0 17 18 22q60 18 82 18q11 0 11 -10v-105q0 -11 2.5 -14t12.5 -3h44q8 -3 8 -18.5t-8 -19.5h-44
q-11 0 -13 -2.5t-2 -15.5v-14q0 -30 5.5 -39t30.5 -11l13 -1q5 -4 5 -13.5t-6 -13.5q-78 2 -112 2q-48 0 -106 -2q-6 3 -6.5 13t4.5 14l20 1q30 1 35.5 9t5.5 41z" />
    <glyph glyph-name="five.superior" unicode="&#x2075;" 
d="M135 697l183 19q6 -1 7 -10q-10 -50 -41 -72l-140 -16q-15 -2 -16 -10l-2 -6q-2 -7 3 -11t16 -6q28 -4 50 -8.5t51 -15t48.5 -24.5t33 -37t13.5 -52q0 -56 -45.5 -95t-106 -54t-128.5 -16q-10 4 -11 17t7 20q29 0 57 4t59 13.5t49.5 30.5t17.5 51q-1 71 -154 85
q-16 2 -20.5 8t-0.5 23l40 143q3 10 9 13.5t21 5.5z" />
    <glyph glyph-name="six.superior" unicode="&#x2076;" 
d="M157 479q0 -55 16.5 -93.5t45.5 -38.5q42 0 42 64q0 40 -14 71.5t-38 37.5q-10 3 -28 1q-7 8 -4 20q26 26 71 26q55 0 87 -34.5t32 -82.5q0 -62 -44 -99.5t-118 -37.5q-81 0 -123.5 44.5t-42.5 122.5q0 100 82 176q37 35 97 57.5t129 22.5q6 -4 6 -13.5t-5 -13.5
q-95 -22 -144 -78q-47 -56 -47 -152z" />
    <glyph glyph-name="seven.superior" unicode="&#x2077;" 
d="M144 706h124q78 0 95 2q5 -1 5 -11q-8 -14 -29 -45.5t-34 -53.5l-188 -310q-13 -4 -24.5 3.5t-16.5 21.5l160 256q19 31 19 46q0 9 -19 9h-108q-26 0 -41.5 -8t-24.5 -30q-4 -6 -16 -3t-14 9q21 52 32 116q38 -2 80 -2z" />
    <glyph glyph-name="eight.superior" unicode="&#x2078;" 
d="M195 313q-68 0 -110 25t-42 77q0 32 23 57.5t58 34.5q-68 37 -68 93q0 50 38 81.5t110 31.5q65 0 101.5 -26t36.5 -75q0 -29 -20.5 -50t-45.5 -32q81 -43 81 -111q0 -46 -41.5 -76t-120.5 -30zM169 485q-33 -27 -33 -67q0 -29 18.5 -50t48.5 -21q24 0 39 13.5t15 35.5
q0 59 -88 89zM230 555q28 25 28 59q0 29 -17.5 47t-39.5 18q-23 0 -38 -14t-15 -38q0 -41 82 -72z" />
    <glyph glyph-name="nine.superior" unicode="&#x2079;" 
d="M151 460q-51 0 -83.5 30t-32.5 80q0 64 44.5 103.5t112.5 39.5q82 0 125.5 -45.5t43.5 -117.5q0 -79 -45 -139.5t-112 -91t-145 -36.5q-8 2 -10 14t5 17q92 24 140.5 86t48.5 149q0 54 -13.5 92t-40.5 38q-23 0 -35.5 -20.5t-12.5 -53.5q0 -34 16 -66t41 -36h14
q5 -2 6.5 -9.5t-1.5 -11.5q-29 -22 -66 -22z" />
    <glyph glyph-name="parenleft.superior" unicode="&#x207d;" horiz-adv-x="240" 
d="M36 508q0 85 45 154t125 106q7 -1 11.5 -7t2.5 -13q-87 -99 -87 -240t87 -240q2 -7 -2.5 -13t-11.5 -7q-80 37 -125 106t-45 154z" />
    <glyph glyph-name="parenright.superior" unicode="&#x207e;" horiz-adv-x="240" 
d="M204 508q0 -85 -45 -154t-125 -106q-7 1 -11.5 7t-2.5 13q87 99 87 240t-87 240q-2 7 2.5 13t11.5 7q80 -37 125 -106t45 -154z" />
    <glyph glyph-name="n.superior" unicode="&#x207f;" horiz-adv-x="449" 
d="M177 492v-111q0 -34 12 -37l11 -2q7 -3 6.5 -15t-7.5 -14q-27 2 -83 2q-52 0 -86 -2q-7 2 -7 13.5t5 15.5l17 2q16 2 20.5 12.5t4.5 44.5v101q0 23 -3 31.5t-17 16.5l-9 5q-5 4 -4.5 12t5.5 12q69 15 124 39q11 0 13 -8q-2 -26 -2 -31q0 -6 7 -7q56 36 95 36q50 0 75 -26
t25 -70v-111q0 -34 4.5 -45t19.5 -12l18 -2q5 -2 4.5 -14.5t-5.5 -14.5q-36 2 -91 2q-52 0 -79 -2q-7 2 -8 13.5t5 15.5l11 2q14 3 14 37v116q0 26 -12.5 42t-34.5 16q-23 0 -39 -16q-9 -9 -9 -47z" />
    <glyph glyph-name="zero.inferior" unicode="&#x2080;" 
d="M200 228q81 0 123.5 -60t42.5 -140q0 -81 -42.5 -140.5t-123.5 -59.5t-123 59.5t-42 140.5q0 80 42.5 140t122.5 60zM200 194q-29 0 -40.5 -53t-11.5 -113q0 -59 11.5 -112.5t40.5 -53.5q16 0 27 18t16.5 46t7.5 53t2 49q0 25 -2 50t-7.5 53t-16.5 45.5t-27 17.5z" />
    <glyph glyph-name="one.inferior" unicode="&#x2081;" 
d="M150 -68v160q0 29 -5.5 40t-26.5 14l-31 4q-6 4 -6 14t6 14q99 13 167 50q10 0 12 -8q-3 -51 -3 -88v-200q0 -31 1 -41t7.5 -17.5t21.5 -9.5l30 -4q5 -4 4 -14t-6 -13q-74 2 -115 2q-40 0 -114 -2q-5 3 -6 13t4 14l30 4q22 3 26 14.5t4 53.5z" />
    <glyph glyph-name="two.inferior" unicode="&#x2082;" 
d="M210 -165h-96q-43 0 -65 -2q-11 6 -7 19q50 39 101 91q75 79 75 158q0 31 -16 50t-43 19q-48 0 -81 -59q-8 -6 -18 -0.5t-10 17.5q25 49 66.5 74.5t88.5 25.5q64 0 99.5 -31t35.5 -81q0 -72 -98 -145l-31 -23l-25 -21q-7 -7 -4.5 -12t12.5 -5h62q38 0 55 6t29 28
q14 5 23 -4q-12 -65 -39 -107q-54 2 -114 2z" />
    <glyph glyph-name="three.inferior" unicode="&#x2083;" 
d="M116 -204q-29 0 -52.5 13.5t-23.5 39.5q0 15 10.5 28t32.5 13q6 0 11.5 -2t9.5 -5t9 -7.5t7 -7.5l5.5 -8.5t4.5 -6.5q11 -17 29 -17q26 -1 50.5 26.5t24.5 78.5q0 38 -18 61t-47 23q-39 0 -67 -25q-14 3 -18.5 15.5t2.5 20.5q25 9 38 15t38 19.5t37 30t12 35.5
q0 18 -12 29t-33 11q-41 0 -74 -50q-9 -4 -17.5 2t-7.5 15q21 40 59.5 62.5t82.5 22.5q48 0 78.5 -21t30.5 -53q0 -24 -16 -42t-61 -36q-9 -4 3 -8q2 -1 5 -1q45 -5 75 -28.5t30 -69.5q0 -74 -83 -126q-74 -47 -155 -47z" />
    <glyph glyph-name="four.inferior" unicode="&#x2084;" 
d="M200 -89v14q0 13 -2 15.5t-13 2.5h-153q-11 6 -7 23l216 283q10 12 20 12h29q5 0 7.5 -3t1.5 -8t-6 -11l-196 -247q-1 -10 15 -11h73q10 0 12.5 3t2.5 14v75q0 17 18 22q60 18 82 18q11 0 11 -10v-105q0 -11 2.5 -14t12.5 -3h44q8 -3 8 -18t-8 -20h-44q-11 0 -13 -2.5
t-2 -15.5v-14q0 -30 5.5 -39t30.5 -11l13 -1q5 -4 5 -13.5t-6 -13.5q-78 2 -112 2q-48 0 -106 -2q-6 3 -6.5 13t4.5 14l20 1q30 1 35.5 9t5.5 41z" />
    <glyph glyph-name="five.inferior" unicode="&#x2085;" 
d="M135 212l183 19q6 -1 7 -10q-10 -50 -41 -72l-140 -16q-15 -2 -16 -10l-2 -6q-2 -7 3 -11t16 -6q28 -4 50 -8.5t51 -15t48.5 -24.5t33 -37t13.5 -52q0 -56 -45.5 -95t-106 -54t-128.5 -16q-10 4 -11 17t7 20q29 0 57 4t59 13.5t49.5 30.5t17.5 51q-1 71 -154 85
q-16 2 -20.5 8t-0.5 23l40 143q3 10 9 13.5t21 5.5z" />
    <glyph glyph-name="six.inferior" unicode="&#x2086;" 
d="M157 -6q0 -55 16.5 -93.5t45.5 -38.5q42 0 42 64q0 40 -14 71.5t-38 37.5q-10 3 -28 1q-7 8 -4 20q26 26 71 26q55 0 87 -34.5t32 -82.5q0 -62 -44 -99.5t-118 -37.5q-81 0 -123.5 44.5t-42.5 122.5q0 100 82 176q37 35 97 57.5t129 22.5q6 -4 6 -13.5t-5 -13.5
q-95 -22 -144 -78q-47 -56 -47 -152z" />
    <glyph glyph-name="seven.inferior" unicode="&#x2087;" 
d="M144 221h124q78 0 95 2q5 -1 5 -11q-8 -14 -29 -45.5t-34 -53.5l-188 -310q-13 -4 -24.5 3.5t-16.5 21.5l160 256q19 31 19 46q0 9 -19 9h-108q-26 0 -41.5 -8t-24.5 -30q-4 -6 -16 -3t-14 9q21 52 32 116q38 -2 80 -2z" />
    <glyph glyph-name="eight.inferior" unicode="&#x2088;" 
d="M195 -172q-68 0 -110 25t-42 77q0 32 23 57.5t58 34.5q-68 37 -68 93q0 50 38 81.5t110 31.5q65 0 101.5 -26t36.5 -75q0 -29 -20.5 -50t-45.5 -32q81 -43 81 -111q0 -46 -41.5 -76t-120.5 -30zM169 0q-33 -27 -33 -67q0 -29 18.5 -50t48.5 -21q24 0 39 13.5t15 35.5
q0 59 -88 89zM230 70q28 24 28 59q0 29 -17.5 47t-39.5 18q-23 0 -38 -14t-15 -38q0 -41 82 -72z" />
    <glyph glyph-name="nine.inferior" unicode="&#x2089;" 
d="M151 -25q-51 0 -83.5 30t-32.5 80q0 64 44.5 103.5t112.5 39.5q82 0 125.5 -45.5t43.5 -117.5q0 -79 -45 -139.5t-112 -91t-145 -36.5q-8 2 -10 14t5 17q92 24 140.5 86t48.5 149q0 54 -13.5 92t-40.5 38q-23 0 -35.5 -20.5t-12.5 -53.5q0 -34 16 -66t41 -36h14
q5 -2 6.5 -9.5t-1.5 -11.5q-29 -22 -66 -22z" />
    <glyph glyph-name="parenleft.inferior" unicode="&#x208d;" horiz-adv-x="240" 
d="M36 28q0 85 45 154t125 106q7 -1 11.5 -7t2.5 -13q-87 -99 -87 -240t87 -240q2 -7 -2.5 -13t-11.5 -7q-80 37 -125 106t-45 154z" />
    <glyph glyph-name="parenright.inferior" unicode="&#x208e;" horiz-adv-x="240" 
d="M204 28q0 -85 -45 -154t-125 -106q-7 1 -11.5 7t-2.5 13q87 99 87 240t-87 240q-2 7 2.5 13t11.5 7q80 -37 125 -106t45 -154z" />
    <glyph glyph-name="colonmonetary" unicode="&#x20a1;" horiz-adv-x="613" 
d="M237 119l116 477q-71 -13 -120.5 -83t-49.5 -198q0 -122 54 -196zM394 598l-124 -515q20 -19 49 -30l129 532q-23 11 -54 13zM515 694l-17 -67q31 -7 58 -14q-2 -25 11 -143q-7 -7 -16.5 -7.5t-13.5 6.5q-19 63 -54 94l-125 -520q5 -2 16 -2q61 0 106 42.5t70 97.5
q6 5 16.5 4t12.5 -8q-15 -90 -42 -146q-9 -2 -34.5 -9t-41.5 -11t-41 -7.5t-48 -3.5q-17 0 -24 2l-17 -67q-7 -5 -20.5 -5t-20.5 5l17 70q-22 2 -53 11l-20 -81q-7 -5 -20.5 -5t-20.5 5l23 95q-88 34 -131 110.5t-43 172.5q0 156 108 246q88 74 213 79l14 56q6 5 20.5 5
t20.5 -5l-14 -55q14 0 56 -5l14 60q6 5 20.5 5t20.5 -5z" />
    <glyph glyph-name="franc" unicode="&#x20a3;" horiz-adv-x="520" 
d="M26 210h70v280q0 65 -8 81.5t-40 21.5l-19 3q-7 4 -6.5 17t8.5 16q60 -3 133 -3h196q108 0 128 3q0 -84 2 -128q-3 -7 -15 -8t-19 4q-12 32 -30 54q-26 32 -93 32h-74q-23 0 -27 -5.5t-4 -33.5v-137q0 -20 3.5 -24t22.5 -4h74q37 0 49 7.5t21 35.5l4 12q5 7 18.5 6.5
t18.5 -6.5q-3 -31 -3 -82q0 -36 3 -79q-5 -6 -18.5 -6.5t-18.5 5.5l-7 22q-7 21 -19 27.5t-48 6.5h-74q-18 0 -22 -4.5t-4 -23.5v-90h172q6 -4 6 -19.5t-6 -25.5h-172v-28q0 -46 3.5 -65.5t12.5 -26.5t32 -10l35 -5q5 -4 5 -16t-5 -17q-87 3 -147 3q-62 0 -148 -3
q-5 5 -5 17t5 16l32 5q32 5 40 21t8 81v28h-70q-6 5 -6 23t6 22z" />
    <glyph glyph-name="lira" unicode="&#x20a4;" horiz-adv-x="520" 
d="M13 377h80q14 0 14 16q-1 108 70.5 177.5t175.5 69.5q43 0 65 -15q12 -11 12 -33q0 -21 -13 -39t-23 -18q-13 0 -24 10q-48 39 -78 39q-10 0 -19.5 -11t-18 -41t-8.5 -74q0 -48 4 -66q2 -10 6 -12.5t17 -2.5h128q6 -8 4 -22t-9 -23h-122q-14 0 -18 -2.5t-4 -11.5v-23
q0 -10 4 -12.5t18 -2.5h124q6 -8 4 -22t-9 -23h-133q-9 0 -16 -15q-23 -58 -98 -95l1 -2q36 5 69 -1q33 -4 99 -38q56 -29 95 -29q21 0 22.5 12t-11.5 42q-10 26 0 39.5t28 13.5q19 0 34.5 -15t15.5 -47q0 -47 -49 -93.5t-111 -46.5q-48 0 -116 43q-77 48 -113 48
q-17 0 -26 -12t-11 -26q-2 -9 -28 -18t-38 -9q-19 0 -19 18q0 26 50 65q67 54 70 161q0 12 -15 12h-85q-6 6 -5 21t10 24h84q7 0 9.5 3t2.5 13v17q0 12 -15 12h-86q-6 6 -5 21t10 24z" />
    <glyph glyph-name="peseta" unicode="&#x20a7;" horiz-adv-x="520" 
d="M197 461h150q-7 52 -36.5 88t-74.5 36q-26 0 -32.5 -9.5t-6.5 -41.5v-73zM-19 461h84v5q0 77 -6.5 95.5t-37.5 22.5l-31 4q-7 4 -6.5 16.5t8.5 17.5q119 9 216 9q93 0 156 -24q101 -38 115 -146h39q8 -5 8 -23t-8 -22h-38q-3 -42 -20.5 -75t-40 -50.5t-51 -29
t-48.5 -14.5t-36 -3q-21 0 -32 1q-6 4 -7 13t4 14q54 17 75.5 52.5t23.5 91.5h-151v-272q0 -69 8.5 -86t42.5 -22l32 -5q8 -4 8 -16.5t-8 -17.5q-84 3 -142 3q-69 0 -150 -3q-8 5 -9 17.5t7 16.5l28 5q34 6 42.5 23t8.5 85v272h-84q-7 4 -7 22t7 23z" />
    <glyph glyph-name="Euro" unicode="&#x20ac;" horiz-adv-x="520" 
d="M35 391h39q18 109 89 178.5t178 69.5q24 0 44.5 -3.5t46.5 -10.5l25 -7l8 -2t8.5 -2t7.5 -2q0 -75 10 -127q-4 -9 -16 -11t-16 4q-13 37 -24 58.5t-36.5 39t-62.5 17.5q-109 0 -126 -202h251q3 -8 0.5 -24.5t-10.5 -20.5h-244q-3 -26 0 -60h225q6 -4 2.5 -22.5
t-11.5 -22.5h-212q9 -209 138 -209q47 0 78 33.5t47 77.5q5 6 15.5 4.5t14.5 -8.5q-15 -80 -35 -124q-13 -3 -29 -8q-57 -21 -114 -21q-110 0 -178 68.5t-80 186.5h-55q-5 5 -1 22.5t10 22.5h43q0 44 2 60h-41q-5 5 -1 22.5t10 22.5z" />
    <glyph glyph-name="uni2113" unicode="&#x2113;" horiz-adv-x="435" 
d="M94 256v166q0 116 47 185t132 69q55 0 86 -35t31 -97q0 -131 -164 -266v-114q0 -114 54 -114q23 0 42 16t44 59q4 7 19 -2t15 -17q-45 -120 -168 -120q-75 0 -106.5 49.5t-31.5 146.5v17q-40 -29 -60 -42q-8 0 -18 13t-8 19q32 23 86 67zM226 505v-164q102 93 102 201
q0 38 -15 65t-46 27q-18 0 -29.5 -33.5t-11.5 -95.5z" />
    <glyph glyph-name="trademark" unicode="&#x2122;" horiz-adv-x="614" 
d="M114 524v97q0 9 -1.5 10.5t-9.5 1.5h-8q-32 0 -45 -35q-2 -5 -10.5 -4t-9.5 7q8 51 14 71q2 4 8 4t7 -4q7 -8 11.5 -10t19.5 -2h127q18 0 30 12q2 4 7.5 4t7.5 -4q-7 -31 -5 -74q-1 -7 -9.5 -7t-9.5 5q-4 19 -12.5 28t-26.5 9h-13q-6 0 -7 -1.5t-1 -10.5v-100
q0 -25 3 -33.5t15 -10.5l16 -3q3 -2 2.5 -10.5t-3.5 -9.5q-22 1 -72 1q-40 0 -58 -1q-3 1 -3 8.5t2 11.5l16 3q11 2 14.5 12.5t3.5 34.5zM519 502l-2 98q0 10 -2 11q-1 0 -19 -43l-19 -44q-23 -54 -28 -70q-16 -5 -25 1q-2 7 -23 60l-23 55q-20 45 -23 47q-1 -3 -4 -52v-61
q1 -17 4.5 -22.5t15.5 -6.5l9 -1q2 -2 2 -9t-2 -11q-10 1 -47 1q-36 0 -47 -1q-2 1 -2.5 9t1.5 11l6 1q24 4 25 24q9 83 9 112q0 25 -24 28l-8 2q-6 2 -5.5 10.5t6.5 9.5q9 0 22 -0.5t18 -0.5q30 0 66 1q0 -12 23 -56l19 -37q8 -15 12 -15q5 0 12 12l17 37q15 32 23 59
q31 -1 48 -1q38 0 50 1q4 -1 4.5 -10t-3.5 -10l-10 -2q-12 -2 -15.5 -7t-3.5 -17q0 -66 3 -108q1 -17 3.5 -22t10.5 -7l15 -4q4 -2 4 -10t-4 -10q-14 1 -61 1q-40 0 -55 -1q-2 2 -2.5 10t2.5 10l15 4q8 2 10 6.5t2 17.5z" />
    <glyph glyph-name="Omega" unicode="&#x2126;" horiz-adv-x="823" 
d="M409 676q150 0 248.5 -82.5t95.5 -226.5q-1 -51 -16.5 -93t-45.5 -75t-54.5 -52.5t-62.5 -44.5h61q50 0 73 14t46 46q4 8 20.5 8t18.5 -8q-6 -20 -11.5 -46.5t-11.5 -63t-11 -59.5q-81 7 -100 7h-205v30q66 80 106 161.5t40 180.5q0 114 -52 186t-137 72
q-89 0 -141 -72.5t-53 -189.5q0 -53 12 -102t36.5 -93t45.5 -74t53 -69v-30h-205q-18 0 -49.5 -3t-50.5 -4q-5 23 -11 57t-11.5 60.5t-11.5 51.5q2 8 18.5 8t20.5 -8q13 -19 19 -26t19.5 -17t32.5 -13.5t48 -3.5h61l-36.5 25t-43.5 36.5t-49.5 53.5t-33.5 65t-16 81
q0 143 98.5 228t245.5 85z" />
    <glyph glyph-name="estimated" unicode="&#x212e;" horiz-adv-x="810" 
d="M770 306h-591q-5 0 -5 -5v-178q0 -11 8 -21q91 -96 224 -96q69 0 130 28.5t105 79.5h53q-51 -59 -126.5 -93.5t-162.5 -34.5q-151 0 -258 96t-107 232t107 232.5t258 96.5t258 -96.5t107 -232.5v-8zM636 329v180q0 12 -9 21q-91 93 -221 93q-131 0 -223 -95q-9 -9 -9 -23
v-176q0 -5 5 -5h453q4 0 4 5z" />
    <glyph glyph-name="onethird" unicode="&#x2153;" horiz-adv-x="840" 
d="M118 344v160q0 29 -5.5 40t-26.5 14l-31 4q-6 4 -6 14t6 14q99 13 167 50q10 0 12 -8q-3 -51 -3 -88v-200q0 -31 1 -41t7.5 -17.5t21.5 -9.5l30 -4q5 -4 4 -14t-6 -13q-74 2 -115 2q-40 0 -114 -2q-5 3 -6 13t4 14l30 4q22 3 26 14.5t4 53.5zM613 630l-370 -670
q-14 -3 -28 4t-19 20l370 670q13 2 28.5 -5t18.5 -19zM553 -39q-29 0 -52.5 13.5t-23.5 39.5q0 15 10.5 28t32.5 13q6 0 11.5 -2t9.5 -5t9 -7.5t7 -7.5l5.5 -8.5t4.5 -6.5q11 -17 29 -17q26 -1 50.5 26.5t24.5 78.5q0 38 -18 61t-47 23q-39 0 -67 -25q-14 3 -18.5 15.5
t2.5 20.5q25 9 38 15t38 19.5t37 30t12 35.5q0 18 -12 29t-33 11q-41 0 -74 -50q-9 -4 -17.5 2t-7.5 15q21 40 59.5 62.5t82.5 22.5q48 0 78.5 -21t30.5 -53q0 -24 -16 -42t-61 -36q-9 -4 3 -8q2 -1 5 -1q45 -5 75 -28.5t30 -69.5q0 -74 -83 -126q-74 -47 -155 -47z" />
    <glyph glyph-name="twothirds" unicode="&#x2154;" horiz-adv-x="840" 
d="M197 247h-96q-43 0 -65 -2q-11 6 -7 19q50 39 101 91q75 79 75 158q0 31 -16 50t-43 19q-48 0 -81 -59q-7 -6 -17.5 -0.5t-10.5 17.5q25 49 66.5 74.5t88.5 25.5q64 0 99.5 -31t35.5 -81q0 -72 -98 -145l-31 -23l-25 -21q-7 -7 -4.5 -12t12.5 -5h62q38 0 55 6t29 28
q14 5 23 -4q-12 -65 -39 -107q-54 2 -114 2zM647 630l-370 -670q-14 -3 -28 4t-19 20l370 670q13 2 28.5 -5t18.5 -19zM575 -39q-29 0 -52.5 13.5t-23.5 39.5q0 15 10.5 28t32.5 13q6 0 11.5 -2t9.5 -5t9 -7.5t7 -7.5l5.5 -8.5t4.5 -6.5q11 -17 29 -17q26 -1 50.5 26.5
t24.5 78.5q0 38 -18 61t-47 23q-39 0 -67 -25q-14 3 -18.5 15.5t2.5 20.5q25 9 38 15t38 19.5t37 30t12 35.5q0 18 -12 29t-33 11q-41 0 -74 -50q-9 -4 -17.5 2t-7.5 15q21 40 59.5 62.5t82.5 22.5q48 0 78.5 -21t30.5 -53q0 -24 -16 -42t-61 -36q-9 -4 3 -8q2 -1 5 -1
q45 -5 75 -28.5t30 -69.5q0 -74 -83 -126q-74 -47 -155 -47z" />
    <glyph glyph-name="oneeighth" unicode="&#x215b;" horiz-adv-x="840" 
d="M632 -7q-68 0 -110 25t-42 77q0 32 23 57.5t58 34.5q-68 37 -68 93q0 50 38 81.5t110 31.5q65 0 101.5 -26t36.5 -75q0 -29 -20.5 -50t-45.5 -32q81 -43 81 -111q0 -46 -41.5 -76t-120.5 -30zM606 165q-33 -27 -33 -67q0 -29 18.5 -50t48.5 -21q24 0 39 13.5t15 35.5
q0 59 -88 89zM667 235q28 25 28 59q0 29 -17.5 47t-39.5 18q-23 0 -38 -14t-15 -38q0 -41 82 -72zM115 344v160q0 29 -5.5 40t-26.5 14l-31 4q-6 4 -6 14t6 14q99 13 167 50q10 0 12 -8q-3 -51 -3 -88v-200q0 -31 1 -41t7.5 -17.5t21.5 -9.5l30 -4q5 -4 4 -14t-6 -13
q-74 2 -115 2q-40 0 -114 -2q-5 3 -6 13t4 14l30 4q22 3 26 14.5t4 53.5zM607 630l-370 -670q-14 -3 -28 4t-19 20l370 670q13 2 28.5 -5t18.5 -19z" />
    <glyph glyph-name="threeeighths" unicode="&#x215c;" horiz-adv-x="840" 
d="M653 -7q-68 0 -110 25t-42 77q0 32 23 57.5t58 34.5q-68 37 -68 93q0 50 38 81.5t110 31.5q65 0 101.5 -26t36.5 -75q0 -29 -20.5 -50t-45.5 -32q81 -43 81 -111q0 -46 -41.5 -76t-120.5 -30zM627 165q-33 -27 -33 -67q0 -29 18.5 -50t48.5 -21q24 0 39 13.5t15 35.5
q0 59 -88 89zM688 235q28 25 28 59q0 29 -17.5 47t-39.5 18q-23 0 -38 -14t-15 -38q0 -41 82 -72zM102 208q-29 0 -52.5 13.5t-23.5 39.5q0 15 10.5 28t32.5 13q6 0 11.5 -2t9.5 -5t9 -7.5t7 -7.5l5.5 -8.5t4.5 -6.5q11 -17 29 -17q26 -1 50.5 26.5t24.5 78.5q0 38 -18 61
t-47 23q-39 0 -67 -25q-14 3 -18.5 15.5t2.5 20.5q25 9 38 15t38 19.5t37 30t12 35.5q0 18 -12 29t-33 11q-41 0 -74 -50q-9 -4 -17.5 2t-7.5 15q21 40 59.5 62.5t82.5 22.5q48 0 78.5 -21t30.5 -53q0 -24 -16 -42t-61 -36q-9 -4 3 -8q2 -1 5 -1q45 -5 75 -28.5t30 -69.5
q0 -74 -83 -126q-74 -47 -155 -47zM628 630l-370 -670q-14 -3 -28 4t-19 20l370 670q13 2 28.5 -5t18.5 -19z" />
    <glyph glyph-name="fiveeighths" unicode="&#x215d;" horiz-adv-x="840" 
d="M638 -7q-68 0 -110 25t-42 77q0 32 23 57.5t58 34.5q-68 37 -68 93q0 50 38 81.5t110 31.5q65 0 101.5 -26t36.5 -75q0 -29 -20.5 -50t-45.5 -32q81 -43 81 -111q0 -46 -41.5 -76t-120.5 -30zM612 165q-33 -27 -33 -67q0 -29 18.5 -50t48.5 -21q24 0 39 13.5t15 35.5
q0 59 -88 89zM673 235q28 25 28 59q0 29 -17.5 47t-39.5 18q-23 0 -38 -14t-15 -38q0 -41 82 -72zM126 624l183 19q6 -1 7 -10q-10 -50 -41 -72l-140 -16q-15 -2 -16 -10l-2 -6q-2 -7 3 -11t16 -6q28 -4 50 -8.5t51 -15t48.5 -24.5t33 -37t13.5 -52q0 -56 -45.5 -95
t-106 -54t-128.5 -16q-10 4 -11 17t7 20q29 0 57 4t59 13.5t49.5 30.5t17.5 51q-1 71 -154 85q-16 2 -20.5 8t-0.5 23l40 143q3 10 9 13.5t21 5.5zM613 630l-370 -670q-14 -3 -28 4t-19 20l370 670q13 2 28.5 -5t18.5 -19z" />
    <glyph glyph-name="seveneighths" unicode="&#x215e;" horiz-adv-x="840" 
d="M640 -7q-68 0 -110 25t-42 77q0 32 23 57.5t58 34.5q-68 37 -68 93q0 50 38 81.5t110 31.5q65 0 101.5 -26t36.5 -75q0 -29 -20.5 -50t-45.5 -32q81 -43 81 -111q0 -46 -41.5 -76t-120.5 -30zM614 165q-33 -27 -33 -67q0 -29 18.5 -50t48.5 -21q24 0 39 13.5t15 35.5
q0 59 -88 89zM675 235q28 25 28 59q0 29 -17.5 47t-39.5 18q-23 0 -38 -14t-15 -38q0 -41 82 -72zM151 633h124q78 0 95 2q5 -1 5 -11q-8 -14 -29 -45.5t-34 -53.5l-188 -310q-13 -4 -24.5 3.5t-16.5 21.5l160 256q19 31 19 46q0 9 -19 9h-108q-26 0 -41.5 -8t-24.5 -30
q-4 -6 -16 -3t-14 9q21 52 32 116q38 -2 80 -2zM584 630l-370 -670q-14 -3 -28 4t-19 20l370 670q13 2 28.5 -5t18.5 -19z" />
    <glyph glyph-name="partialdiff" unicode="&#x2202;" horiz-adv-x="548" 
d="M254 417q81 0 130 -64q9 35 10 95q2 88 -28 143t-98 55q-39 0 -136 -53q-18 -10 -28.5 3.5t-10.5 41.5q0 39 34 55q40 21 95 21q91 0 157.5 -54.5t97.5 -135t31 -172.5q0 -125 -53 -227q-31 -60 -85 -99.5t-125 -39.5q-93 0 -149 58t-56 145q0 93 60.5 160.5t153.5 67.5z
M280 358q-44 0 -72.5 -61t-28.5 -138q0 -58 16.5 -92.5t46.5 -34.5q28 0 51.5 27t39 71t25 85t15.5 82q-14 22 -39 41.5t-54 19.5z" />
    <glyph glyph-name="Delta" unicode="&#x2206;" horiz-adv-x="680" 
d="M642 0h-603q-7 0 -8 12.5t1.5 25.5t5.5 20l114 239l119 261q26 55 23 70q36 7 74 48q16 0 19 -9l56 -134l200 -467q7 -16 7 -41t-8 -25zM159 80h289q24 0 29 6t-1 17l-137 337q-6 15 -17 39t-14 32h-3l-28 -63l-149 -347q-5 -11 2 -16t29 -5z" />
    <glyph glyph-name="product" unicode="&#x220f;" horiz-adv-x="807" 
d="M498 654h-189q-36 0 -43 -4.5t-7 -27.5v-583q0 -54 5 -76.5t14.5 -29t35.5 -9.5l23 -3q5 -5 4.5 -18t-6.5 -16q-66 3 -160 3q-69 0 -135 -3q-6 3 -6.5 16t4.5 18l22 3q27 3 36.5 9.5t14.5 29t5 76.5v517q0 51 -5 72.5t-14.5 28t-36.5 9.5l-22 3q-5 5 -4.5 18t6.5 16
q66 -3 133 -3h461q67 0 133 3q6 -3 6.5 -16t-4.5 -18l-22 -3q-27 -3 -36.5 -9.5t-14.5 -28t-5 -72.5v-522q0 -51 5 -72.5t14.5 -28t36.5 -9.5l22 -3q5 -9 4.5 -20t-6.5 -14q-66 3 -133 3q-96 0 -162 -3q-6 3 -6.5 16t4.5 18l22 3q26 3 36 10.5t15 29t5 70.5v588
q0 23 -7 27.5t-43 4.5z" />
    <glyph glyph-name="summation" unicode="&#x2211;" horiz-adv-x="700" 
d="M600 700l6 -153q-2 -7 -18 -7t-18 7q-11 29 -19 44t-26.5 32t-49 24t-77.5 7h-180l219 -322q15 -21 1 -36l-252 -290h307q60 0 86.5 14t52.5 65q4 9 20.5 6.5t18.5 -16.5l-14.5 -69l-13.5 -67l-11 -56q-5 0 -31 3.5t-39 3.5h-459q-28 0 -64 -2q-4 0 -6.5 6.5t-2 15.5
t4.5 14l270 316q11 14 1 29l-265 399q-5 8 -1.5 21t9.5 13q24 -2 98 -2h453z" />
    <glyph glyph-name="minus" unicode="&#x2212;" horiz-adv-x="520" 
d="M461 177h-401v72h401v-72z" />
    <glyph glyph-name="uni2215" unicode="&#x2215;" horiz-adv-x="100" 
d="M259 630l-370 -670q-14 -3 -28 4t-19 20l370 670q13 2 28.5 -5t18.5 -19z" />
    <glyph glyph-name="uni2219" unicode="&#x2219;" horiz-adv-x="260" 
d="M130 126q-32 0 -56.5 23t-24.5 58t23.5 59t57.5 24q35 0 58 -25t23 -58q0 -35 -22.5 -58t-58.5 -23z" />
    <glyph glyph-name="radical" unicode="&#x221a;" horiz-adv-x="549" 
d="M39 414l-19 40l172 88l169 -337l109 688l54 -6l-153 -948l-256 510z" />
    <glyph glyph-name="infinity" unicode="&#x221e;" horiz-adv-x="786" 
d="M191 430q23 0 45 -5.5t36.5 -11t35.5 -20.5t29 -22t30 -28t28 -26q35 35 59 55t63.5 39t76.5 19q60 0 106 -47.5t46 -115.5q0 -74 -44 -120t-116 -46q-29 0 -56.5 8.5t-49.5 23.5t-37 27t-30.5 28.5t-18.5 18.5l-18 -19q-18 -19 -31 -29.5t-36 -26t-51 -23.5t-58 -8
q-74 0 -117 49t-43 120q0 69 45 114.5t106 45.5zM204 357q-41 0 -64.5 -28.5t-23.5 -58.5q0 -47 26.5 -74.5t63.5 -27.5q61 0 145 88q-2 2 -11.5 12.5l-12.5 14t-12.5 13t-14.5 13.5t-14 12t-15.5 12l-15.5 9.5t-16.5 8t-16.5 4.5t-18 2zM582 356q-19 0 -41.5 -11
t-34.5 -20.5t-37 -32t-28 -25.5q2 -3 13 -14.5t14.5 -15.5t14 -14.5t16 -14.5t15.5 -12t17 -11.5l16.5 -8t19 -6t19.5 -1.5q33 0 58.5 26t25.5 67q0 37 -24 65.5t-64 28.5z" />
    <glyph glyph-name="integral" unicode="&#x222b;" 
d="M118 390v64q0 132 49 227q23 45 60.5 70.5t79.5 25.5q25 0 42.5 -13.5t17.5 -37.5t-14.5 -37.5t-33.5 -13.5q-28 0 -53 22q-28 25 -30 -9q-1 -11 4.5 -60t11.5 -136t5 -182l-1 -115q-1 -165 -56 -254t-141 -89q-29 0 -48.5 14.5t-19.5 38.5q0 37 27 51q36 19 73 -21
q32 -33 39 17q3 17 2 44q-14 272 -14 394z" />
    <glyph glyph-name="approxequal" unicode="&#x2248;" horiz-adv-x="520" 
d="M435 378l44 -52q-83 -101 -183 -67l-84 29q-13 5 -25 7t-21.5 1t-18 -2t-15.5 -5.5l-12 -7.5t-11 -8.5t-8 -8l-7 -8.5l-4 -6l-49 46q76 111 184 73l89 -31q62 -22 121 40zM433 191l46 -55q-41 -48 -92.5 -63.5t-90.5 2.5l-84 30q-13 5 -25 7t-21.5 1.5t-18 -1.5
t-15.5 -5.5l-12 -7.5t-11 -8.5t-8 -8l-7 -8.5l-4 -6l-49 46q76 110 184 72l89 -32q27 -10 60 0t59 37z" />
    <glyph glyph-name="notequal" unicode="&#x2260;" horiz-adv-x="520" 
d="M60 322h230l61 92l68 -24l-45 -68h87v-72h-134l-48 -72h182v-72h-230l-70 -106l-68 24l54 82h-87v72h135l48 72h-183v72z" />
    <glyph glyph-name="lessequal" unicode="&#x2264;" horiz-adv-x="520" 
d="M461 0h-401v72h401v-72zM66 346l389 178v-83l-286 -123v-2l286 -124v-82l-389 177v59z" />
    <glyph glyph-name="greaterequal" unicode="&#x2265;" horiz-adv-x="520" 
d="M461 0h-401v72h401v-72zM66 524l389 -178v-59l-389 -177v82l286 124v2l-286 123v83z" />
    <glyph glyph-name="lozenge" unicode="&#x25ca;" horiz-adv-x="584" 
d="M333 -45h-82l-206 385l206 375h82l206 -375zM447 340l-156 286l-154 -286l154 -295z" />
    <glyph glyph-name="Euro.fitted" unicode="&#xe000;" horiz-adv-x="619" 
d="M55 391h37q23 109 104 178.5t203 69.5q62 0 136 -21l8 -2t8.5 -2t7.5 -2q0 -5 1.5 -29.5t4 -50t6.5 -47.5q-4 -9 -16 -11t-16 4q-39 115 -145 115q-63 0 -108.5 -50t-56.5 -152h293q3 -8 0.5 -24.5t-10.5 -20.5h-287q-4 -19 0 -60h268q6 -4 2.5 -22.5t-11.5 -22.5h-255
q9 -102 57 -155.5t121 -53.5q29 0 53 10t44 31t29 33.5l25 36.5q5 6 15.5 4.5t14.5 -8.5q-19 -91 -41 -124q-13 -3 -29 -8q-57 -21 -134 -21q-129 0 -206 66.5t-92 188.5h-59q-5 5 -1 22.5t10 22.5h47q-3 23 2 60h-39q-5 5 -1 22.5t10 22.5z" />
    <glyph glyph-name="Euro.oldstyle" unicode="&#xe001;" horiz-adv-x="581" 
d="M63 333h36q22 89 100.5 144t187.5 55q54 0 115 -14q18 -4 23 -5q1 -5 2.5 -25.5t3.5 -45.5t6 -47q-4 -8 -15.5 -9.5t-16.5 3.5q-12 40 -43 68t-82 28q-52 0 -93 -38.5t-52 -113.5h289q5 -12 2 -26.5t-11 -18.5h-285q-1 -7 -1 -26t1 -26h266q6 -4 2.5 -22.5t-11.5 -22.5
h-252q11 -75 51 -115.5t98 -40.5q76 0 136 90q6 6 16.5 3t13.5 -14q-18 -78 -40 -108q-6 -1 -17.5 -4t-16.5 -4q-46 -12 -104 -12q-120 0 -192 54t-86 151h-60q-7 5 -1.5 22.5t11.5 22.5h46q-2 9 -1 26.5t3 25.5h-39q-8 4 -3.5 22.5t13.5 22.5z" />
    <glyph glyph-name="bullet.001" unicode="&#xe007;" horiz-adv-x="850" 
d="M90 175q0 77 49 140t139 77q-1 62 -22.5 104t-56.5 42q-23 0 -29 -31q-1 -4 -5 -8q-10 -5 -19 -5q-19 0 -31 11.5t-12 30.5q0 20 16.5 35.5t43.5 15.5q66 0 110 -60t47 -131h2q71 0 123 -36l2 2q-62 52 -62 113q0 32 27 54t67 22q6 0 29.5 -1.5t30.5 -1.5q26 0 49.5 16
t23.5 48q0 25 -26 46q-6 5 -3.5 8.5t8.5 2.5q38 -6 65.5 -36.5t27.5 -74.5q0 -60 -58 -98q-18 -12 -90 -47q-37 -18 -37 -51q0 -8 4 -16q39 46 98 46q47 0 101 -48q38 -35 65 -35q38 0 59 37q3 5 7 5.5t5 -4.5q2 -6 2 -19q0 -47 -38.5 -90.5t-94.5 -43.5q-34 0 -64.5 14
t-72.5 56l-31 28.5t-21 15t-24 7.5q-10 -7 -10 -23q0 -5 1 -10.5t4 -12.5l5 -11.5t8 -13.5t8.5 -13.5t10.5 -15.5t11 -16q30 -44 40 -63.5t10 -43.5q0 -34 -27.5 -63t-60.5 -29q-7 0 -17 2q-14 3 -2 12q28 18 28 41q0 19 -12 31t-57 39q-75 46 -75 108q0 30 23.5 58.5
t58.5 45.5q-46 24 -109 24q-10 0 -13 -1q-6 -82 -54 -133t-120 -64q2 -32 14.5 -54.5t25.5 -29.5q9 -5 34 -5q2 -1 2.5 -5t-0.5 -6q-36 -34 -68 -34q-13 0 -25 15q-38 48 -38 131zM144 186q62 18 97 66q29 42 36 102q-60 -12 -96 -56q-36 -45 -37 -112z" />
    <glyph glyph-name="bullet.002" unicode="&#xe008;" horiz-adv-x="1141" 
d="M282 57q-106 -3 -174 74t-68 178q0 117 70.5 184t144.5 67q53 0 100 -30t47 -85q0 -34 -22.5 -55t-48.5 -21q-33 -1 -55.5 17.5t-22.5 44.5q0 13 7 22.5t27 23.5q18 17 18 30q0 25 -65 23q-52 -1 -93.5 -44.5t-41.5 -90.5q0 -19 3.5 -35.5t12 -29t16.5 -22.5t21.5 -18.5
l22.5 -14t25 -10.5l22.5 -7t22 -5.5t17.5 -4.5q48 -13 48 -55q0 -28 -8 -45q-9 -21 -9 -35t28 -14q83 0 199 165q-15 19 -17 45q-1 28 19.5 49.5t48.5 22.5q15 0 28 -5q69 98 125.5 140t136.5 44q98 2 166 -69t68 -184q0 -116 -62.5 -182t-144.5 -68q-54 -1 -96.5 25
t-42.5 73q0 31 21 55t50 24q37 0 53.5 -20t16.5 -43q0 -21 -14 -33q-13 -10 -13 -24q0 -9 11.5 -17.5t30.5 -7.5q43 1 87 38t44 102q0 62 -26.5 89t-100.5 48q-77 21 -77 61q0 12 10 47q6 22 6 30q0 16 -27 16q-49 -1 -93 -43t-100 -122q15 -17 17 -43q1 -30 -19.5 -51
t-50.5 -23q-14 0 -25 4q-65 -89 -128 -135.5t-146 -49.5z" />
    <glyph glyph-name="bullet.003" unicode="&#xe009;" horiz-adv-x="583" 
d="M298 693q48 1 73 -27t25 -62q0 -45 -32 -84q-17 -17 -17 -30q0 -4 4.5 -8.5t10.5 -4.5q2 0 14 6.5t31 13t39 6.5q36 1 66.5 -23.5t30.5 -73.5q0 -36 -22.5 -69t-74.5 -34q-62 -2 -97 53q-12 17 -26 17q-4 0 -13 -12.5t-16 -33.5t-7 -39q2 -60 110 -124q91 -53 92 -126
q1 -48 -37 -89t-98 -41q-62 0 -156 76q-44 37 -66 35q-26 0 -49 -56q-16 0 -16 14q8 46 31.5 67t48.5 22q12 0 24 -2.5t20.5 -5.5t21.5 -11.5l19.5 -13t23 -17.5t23.5 -18q63 -46 104 -46q24 0 40.5 18t16.5 46q0 8 -1.5 16t-6.5 16t-8 13.5t-11.5 13t-11.5 11t-14.5 11
t-14 9.5t-15.5 10t-14 9q-104 66 -104 128q0 40 26 84q12 19 12 28q0 7 -10 7q-12 0 -25 -16q-10 -13 -41.5 -32.5t-59.5 -20.5q-50 -1 -75.5 30.5t-25.5 70.5q0 49 30 73t70 25q16 0 32.5 -4t28 -8t13.5 -4q6 0 10 5.5t4 9.5q0 7 -16.5 35.5t-16.5 57.5q0 44 28 71t75 28z
M284 493q-20 0 -33 -15t-13 -34t14 -32.5t32 -13.5q21 0 34.5 13.5t13.5 34.5q0 18 -14 32.5t-34 14.5z" />
    <glyph glyph-name="uniF634" unicode="&#xf634;" horiz-adv-x="250" 
d="M114 -55q35 0 61.5 -25.5t26.5 -76.5q0 -60 -37.5 -96.5t-98.5 -48.5q-10 1 -13 15t4 18q26 10 48.5 31.5t22.5 44.5q0 37 -46 48q-25 8 -25 39q0 21 17 36t40 15z" />
    <glyph glyph-name="space_uni0326" unicode="&#xf6c3;" horiz-adv-x="380" 
d="M178 -45q30 0 57 -25.5t27 -73.5q0 -58 -36.5 -93t-94.5 -47q-10 1 -12.5 15t4.5 18q25 9 46.5 28.5t21.5 42.5q0 38 -44 50q-24 7 -24 35q0 21 16 35.5t39 14.5z" />
    <glyph glyph-name="acute.cap" unicode="&#xf6c9;" horiz-adv-x="380" 
d="M117 731l162 121q23 17 33 17q18 0 34 -31q15 -26 10 -43q-4 -17 -32 -25l-196 -64q-16 6 -11 25z" />
    <glyph glyph-name="caron.cap" unicode="&#xf6ca;" horiz-adv-x="380" 
d="M49 861l121 -50q20 -8 35 -1l120 51q7 0 11 -8.5t2 -17.5l-129 -117q-23 -20 -44 0l-128 117q-1 9 3 17t9 9z" />
    <glyph glyph-name="dieresis.cap" unicode="&#xf6cb;" horiz-adv-x="380" 
d="M86 712q-26 0 -43 15t-18 43q0 28 17.5 46t43.5 18t43 -17.5t17 -41.5q0 -28 -17 -45.5t-43 -17.5zM295 712q-26 0 -43 15t-18 43q0 28 17.5 46t43.5 18t43 -17.5t17 -41.5q0 -28 -17 -45.5t-43 -17.5z" />
    <glyph glyph-name="grave.cap" unicode="&#xf6ce;" horiz-adv-x="380" 
d="M110 854l162 -118q6 -15 -11 -30l-196 64q-28 8 -32 25q-5 17 10 43q16 31 34 31q11 0 33 -15z" />
    <glyph glyph-name="hungarumlaut.cap" unicode="&#xf6cf;" horiz-adv-x="380" 
d="M237 726l73 134q14 20 27 20q16 0 38 -19q24 -23 24 -42q0 -12 -32 -36l-106 -77q-6 0 -14.5 6.5t-9.5 13.5zM65 726l73 134q14 20 27 20q17 0 41 -21q22 -19 22 -40q0 -12 -33 -36l-106 -77q-6 0 -14.5 6.5t-9.5 13.5z" />
    <glyph glyph-name="macron.cap" unicode="&#xf6d0;" horiz-adv-x="380" 
d="M316 725h-253q-9 12 -9 37.5t9 37.5h253q10 -12 10 -37.5t-10 -37.5z" />
    <glyph glyph-name="R_p" unicode="&#xf6dd;" horiz-adv-x="1098" 
d="M255 546v-186q0 -26 8 -31.5t47 -5.5q43 0 72 27q36 34 36 103q0 65 -34 103t-90 38q-27 0 -33 -8t-6 -40zM650 31v223q0 31 -2.5 41.5t-15.5 18.5l-13 9q-5 5 -5 15t5 14q76 20 139 59q14 2 20 -11q-2 -11 -2 -31q0 -12 7 -14q68 38 119 38q73 0 116.5 -51t43.5 -130
q0 -100 -64.5 -162.5t-167.5 -62.5q-30 0 -40 3q-14 -3 -14 -28v-100q0 -51 5.5 -64t29.5 -14l32 -2q6 -4 6 -16.5t-7 -16.5q-70 3 -132 3t-113 -3q-6 4 -6 16.5t5 16.5l19 1q24 1 29.5 14.5t5.5 64.5v129q-18 -1 -55 -1q-65 0 -106.5 23t-70.5 72q-38 62 -84 164
q-14 30 -46 30q-23 0 -28 -3.5t-5 -20.5v-116q0 -70 8.5 -87t41.5 -20l23 -2q5 -4 5 -16t-5 -17q-72 3 -145 3q-60 0 -132 -3q-5 5 -5 17t5 16l23 2q33 3 41 20t8 87v342q0 78 -6.5 97t-35.5 20l-20 1q-8 4 -7.5 18t9.5 15q102 8 230 8q130 0 192 -35q80 -46 80 -142
q0 -100 -105 -150q-9 -5 -1 -22q53 -109 85.5 -161.5t70.5 -82.5q15 -12 35 -16zM776 259v-157q0 -35 20 -53q16 -18 45 -18q42 -1 65 40.5t23 109.5q0 69 -29.5 108t-75.5 39q-27 0 -38 -14q-10 -10 -10 -55z" />
    <glyph glyph-name="cent.inferior" unicode="&#xf6df;" 
d="M208 -74l40 239q-1 1 -7 1q-44 0 -66 -39t-22 -86q0 -84 55 -115zM285 152l-41 -239q12 -3 25 -3q28 0 54 15.5t38 37.5q8 1 15 -4t7 -12q-46 -89 -149 -92l-13 -77q-5 -8 -19 -8t-19 8l13 78q-72 8 -115 52.5t-43 109.5q0 87 63 135.5t153 49.5l11 62q5 7 19 7t20 -7
l-11 -64q35 -3 58 -11q20 -15 20 -46q0 -16 -7.5 -28t-16.5 -12q-5 0 -11 3l-15 15l-18.5 18t-16.5 14q-1 0 -1 -2z" />
    <glyph glyph-name="cent.superior" unicode="&#xf6e0;" 
d="M208 406l40 239q-1 1 -7 1q-44 0 -66 -39t-22 -86q0 -84 55 -115zM285 632l-41 -239q12 -3 25 -3q28 0 54 15.5t38 37.5q8 1 15 -4t7 -12q-46 -89 -149 -92l-13 -77q-5 -8 -19 -8t-19 8l13 78q-72 8 -115 52.5t-43 109.5q0 87 63 135.5t153 49.5l11 62q5 7 19 7t20 -7
l-11 -64q35 -3 58 -11q20 -15 20 -46q0 -16 -7.5 -28t-16.5 -12q-5 0 -11 3l-15 15l-18.5 18t-16.5 14q-1 0 -1 -2z" />
    <glyph glyph-name="comma.inferior" unicode="&#xf6e1;" horiz-adv-x="200" 
d="M177 -133q0 -59 -40 -97t-100 -52q-11 1 -14 12t5 15q29 11 52 32.5t23 50.5q0 39 -49 55q-11 3 -18.5 14t-7.5 25q0 23 18 38.5t43 15.5q33 0 60.5 -27.5t27.5 -81.5z" />
    <glyph glyph-name="comma.superior" unicode="&#xf6e2;" horiz-adv-x="200" 
d="M177 347q0 -59 -40 -97t-100 -52q-11 1 -14 12t5 15q29 11 52 32.5t23 50.5q0 39 -49 55q-11 3 -18.5 14t-7.5 25q0 23 18 38.5t43 15.5q33 0 60.5 -27.5t27.5 -81.5z" />
    <glyph glyph-name="dollar.inferior" unicode="&#xf6e3;" 
d="M215 -13l-18 -114q33 0 52.5 15t19.5 39q0 40 -54 60zM193 93l15 98q-72 -1 -72 -50q0 -31 57 -48zM246 185l-16 -104l7 -2q127 -37 127 -123q0 -56 -46 -87.5t-127 -33.5l-10 -62q-4 -5 -19 -5t-19 5l10 65q-31 3 -58 11.5t-36 16.5q-23 31 -23 106q3 8 13.5 9.5
t17.5 -5.5q8 -32 31.5 -60.5t60.5 -38.5l19 121q-127 34 -127 112q0 54 42.5 85t120.5 33l7 47q4 7 19.5 7t19.5 -7l-7 -49q15 -1 41 -6.5t39 -6.5q13 -31 12 -100q-3 -7 -13.5 -7.5t-15.5 6.5q-4 18 -22 40.5t-48 32.5z" />
    <glyph glyph-name="dollar.superior" unicode="&#xf6e4;" 
d="M215 467l-18 -114q33 0 52.5 15t19.5 39q0 40 -54 60zM193 573l15 98q-72 -1 -72 -50q0 -31 57 -48zM246 665l-16 -104l7 -2q127 -37 127 -123q0 -56 -46 -87.5t-127 -33.5l-10 -62q-4 -5 -19 -5t-19 5l10 65q-31 3 -58 11.5t-36 16.5q-23 31 -23 106q3 8 13.5 9.5
t17.5 -5.5q8 -32 31.5 -60.5t60.5 -38.5l19 121q-127 34 -127 112q0 54 42.5 85t120.5 33l7 47q4 7 19.5 7t19.5 -7l-7 -49q15 -1 41 -6.5t39 -6.5q13 -31 12 -100q-3 -7 -13.5 -7.5t-15.5 6.5q-4 18 -22 40.5t-48 32.5z" />
    <glyph glyph-name="hyphen.inferior" unicode="&#xf6e5;" horiz-adv-x="280" 
d="M245 3h-209q-11 8 -11 33t11 31h209q11 -6 11 -31t-11 -33z" />
    <glyph glyph-name="hyphen.superior" unicode="&#xf6e6;" horiz-adv-x="280" 
d="M245 483h-209q-11 8 -11 33t11 31h209q11 -6 11 -31t-11 -33z" />
    <glyph glyph-name="period.inferior" unicode="&#xf6e7;" horiz-adv-x="200" 
d="M100 -172q-26 0 -45.5 18.5t-19.5 47.5t18.5 48t46.5 19q29 0 47 -19.5t18 -47.5q0 -29 -18 -47.5t-47 -18.5z" />
    <glyph glyph-name="period.superior" unicode="&#xf6e8;" horiz-adv-x="200" 
d="M100 308q-26 0 -45.5 18.5t-19.5 47.5t18.5 48t46.5 19q29 0 47 -19.5t18 -47.5q0 -29 -18 -47.5t-47 -18.5z" />
    <glyph glyph-name="b.superior" unicode="&#xf6ea;" horiz-adv-x="431" 
d="M172 676v-70q0 -16 6 -18q38 20 75 20q65 0 104.5 -40.5t39.5 -103.5q0 -72 -52 -114t-136 -42q-47 0 -80 12q-17 7 -24 7q-11 0 -24 -11q-11 0 -18 7q2 18 2 68v276q0 23 -2.5 31.5t-12.5 13.5l-14 7q-4 4 -4 12.5t4 12.5q39 8 125 39q8 0 13 -5q-2 -29 -2 -102z
M172 521v-99q0 -33 14 -55q16 -23 37 -23q61 0 61 102q0 49 -24 81.5t-58 32.5q-15 0 -23 -8q-7 -4 -7 -31z" />
    <glyph glyph-name="d.superior" unicode="&#xf6eb;" horiz-adv-x="432" 
d="M367 676v-244q0 -46 3.5 -61.5t14.5 -15.5q17 0 33 5q6 -4 6 -16.5t-6 -17.5q-22 -1 -44.5 -4t-40 -6.5t-31 -7l-21.5 -5.5l-8 -2q-11 0 -13 10l2 22q-2 9 -7 5q-25 -16 -36 -21q-23 -9 -42 -9q-63 0 -103 40t-40 99q0 72 52 116.5t129 44.5q25 0 37 -3q8 2 8 13v54
q0 23 -2 30.5t-13 11.5l-13 5q-5 3 -5 12.5t5 12.5q41 8 125 39q9 0 13 -4q-3 -44 -3 -103zM260 393v129q0 12 -6 24q-16 26 -39 26q-25 0 -45.5 -29t-20.5 -78q0 -40 19.5 -73.5t56.5 -33.5q15 0 27 7q8 7 8 28z" />
    <glyph glyph-name="e.superior" unicode="&#xf6ec;" horiz-adv-x="360" 
d="M298 475h-160q-16 0 -16 -10q0 -28 26.5 -55t78.5 -27t80 38q18 4 22 -12q-21 -54 -61 -77.5t-85 -23.5q-73 1 -110 43.5t-37 98.5q0 66 45 112t114 46q60 0 96.5 -32t36.5 -77q0 -24 -30 -24zM148 511h46q21 0 28 5q6 6 6 17q0 17 -11.5 28t-30.5 11q-25 0 -42 -19
t-17 -32q0 -10 21 -10z" />
    <glyph glyph-name="i.superior" unicode="&#xf6ed;" horiz-adv-x="252" 
d="M129 783q26 0 42.5 -18.5t16.5 -43.5q0 -29 -19 -46t-44 -17q-27 0 -43.5 18t-16.5 44t19 44.5t45 18.5zM182 524v-123q0 -35 5 -44.5t24 -12.5l14 -2q7 -4 6 -15.5t-7 -13.5q-78 2 -99 2q-32 0 -92 -2q-6 2 -7 14t6 15l14 2q19 3 24 12.5t5 44.5v105q0 20 -2.5 28
t-14.5 14l-11 6q-5 4 -5 12.5t5 12.5q64 16 124 39q13 2 13 -10q-2 -40 -2 -84z" />
    <glyph glyph-name="l.superior" unicode="&#xf6ee;" horiz-adv-x="247" 
d="M70 400v259q0 33 -3 42t-17 18l-8 5q-5 4 -5 13t5 12q44 8 123 34q11 2 14 -8q-2 -26 -2 -102v-273q0 -34 5 -44t24 -12l17 -2q7 -4 6.5 -15.5t-7.5 -13.5q-78 2 -104 2q-28 0 -92 -2q-7 4 -7.5 14.5t6.5 14.5l16 2q19 2 24 12t5 44z" />
    <glyph glyph-name="m.superior" unicode="&#xf6ef;" horiz-adv-x="651" 
d="M581 512v-111q0 -34 4.5 -45t19.5 -12l18 -2q5 -2 4.5 -14.5t-5.5 -14.5q-36 2 -91 2q-52 0 -79 -2q-7 2 -8 13.5t5 15.5l11 2q14 3 14 37v116q0 26 -12.5 42t-34.5 16q-24 0 -38 -17q-10 -10 -10 -46v-91q0 -33 3.5 -43t16.5 -13l14 -3q6 -5 5.5 -15t-6.5 -14
q-28 2 -83 2q-52 0 -79 -2q-7 2 -8 13.5t5 15.5l11 2q14 3 14 37v116q0 26 -12.5 42t-33.5 16q-24 0 -40 -16q-9 -9 -9 -47v-111q0 -36 12 -37l15 -2q5 -3 3 -15t-8 -14q-27 2 -83 2q-52 0 -86 -2q-7 2 -7 13.5t5 15.5l17 2q16 2 20.5 12.5t4.5 44.5v101q0 23 -3 31.5
t-17 16.5l-9 5q-5 4 -4.5 12t5.5 12q70 14 127 39q11 0 13 -8q-2 -26 -2 -31q0 -6 7 -7q56 36 93 36q63 0 88 -43l14 9q52 34 99 34q50 0 75 -26t25 -70z" />
    <glyph glyph-name="r.superior" unicode="&#xf6f1;" horiz-adv-x="310" 
d="M70 400v102q0 23 -2.5 31.5t-14.5 16.5l-12 8q-3 3 -2.5 11t3.5 10q78 13 123 39q8 0 11 -7q-2 -26 -2 -32q0 -9 8 -9q3 2 17 12t20.5 13.5t18 8t21.5 4.5q21 0 33.5 -12.5t12.5 -33.5q0 -23 -14.5 -36t-30.5 -13q-17 0 -30 8q-28 19 -42 19q-11 0 -11 -45v-91
q0 -37 5 -47t25 -12l30 -3q5 -3 4.5 -15t-5.5 -14q-86 2 -118 2q-20 0 -90 -2q-5 2 -5.5 14.5t4.5 14.5l14 2q19 3 24 12.5t5 43.5z" />
    <glyph glyph-name="s.superior" unicode="&#xf6f2;" horiz-adv-x="310" 
d="M171 608q45 0 88 -18q14 -31 12 -74q-5 -6 -16 -7t-16 4q-24 59 -71 59q-17 0 -27 -7.5t-10 -18.5q0 -13 14.5 -22t50.5 -20q84 -27 84 -98q0 -47 -38 -72.5t-99 -25.5q-64 0 -99 26q-6 9 -10.5 35.5t-3.5 46.5q4 7 15.5 7t14.5 -5q12 -33 36 -53.5t54 -20.5q17 0 27 9
t10 23q0 15 -11.5 26t-44.5 22q-91 30 -91 90q0 45 36 69.5t95 24.5z" />
    <glyph glyph-name="t.superior" unicode="&#xf6f3;" horiz-adv-x="280" 
d="M261 558h-70q-10 0 -12 -3.5t-2 -21.5v-93q0 -40 10.5 -60t38.5 -20q22 0 41 13q7 -1 10 -9.5t0 -16.5q-45 -39 -114 -39q-48 0 -70.5 22t-22.5 59v147q0 16 -2 19t-12 3h-27q-6 2 -6.5 13t4.5 14q38 13 65 30q9 6 55 44q5 6 16 4.5t14 -7.5v-43q0 -9 2 -11.5t13 -2.5h73
q6 -2 6 -15q-1 -17 -10 -26z" />
    <glyph glyph-name="dollar.oldstyle" unicode="&#xf724;" horiz-adv-x="461" 
d="M222 285l17 113q-84 -1 -84 -57q0 -36 67 -56zM247 164l-21 -134q39 2 63 18.5t24 44.5q0 49 -66 71zM283 394l-19 -121l11 -3q152 -41 152 -144q0 -64 -54.5 -100.5t-153.5 -38.5l-11 -72q-4 -5 -22 -5t-22 5l12 73q-65 5 -115 33q-27 24 -27 128q6 8 17.5 8t16.5 -7
q12 -39 41.5 -72t73.5 -44l22 143l-5 1q-66 13 -106.5 45.5t-40.5 84.5q0 62 50.5 97.5t142.5 36.5l9 56q4 8 22 8t22 -8l-9 -58q21 -2 57 -10t39 -9q19 -39 18 -118q-4 -7 -16.5 -7.5t-17.5 6.5q-24 76 -87 92z" />
    <glyph glyph-name="zero.oldstyle" unicode="&#xf730;" horiz-adv-x="540" 
d="M270 442q104 0 169 -65t65 -163t-65 -163t-169 -65t-169 65t-65 163t65 163t169 65zM147 214q0 -70 34.5 -112t88.5 -42t88.5 42t34.5 112t-34.5 112t-88.5 42t-88.5 -42t-34.5 -112z" />
    <glyph glyph-name="one.oldstyle" unicode="&#xf731;" horiz-adv-x="388" 
d="M128 129v170q0 56 -9.5 73.5t-41.5 21.5l-31 4q-6 5 -5.5 17.5t7.5 15.5q56 -3 144 -3q95 0 146 3q7 -3 7.5 -15.5t-5.5 -17.5l-31 -4q-32 -4 -41.5 -21.5t-9.5 -73.5v-170q0 -56 9.5 -73t41.5 -21l41 -5q6 -5 5.5 -17.5t-7.5 -15.5q-56 3 -156 3q-98 0 -154 -3
q-7 3 -7.5 15.5t5.5 17.5l41 5q32 4 41.5 21t9.5 73z" />
    <glyph glyph-name="two.oldstyle" unicode="&#xf732;" horiz-adv-x="486" 
d="M245 91h82q55 0 83 9t49 45q19 10 34 -7q-13 -27 -34 -77t-28 -64q-78 3 -124 3h-156q-85 0 -110 -3q-13 7 -7 23q53 32 129 104q75 71 75 147q0 41 -20.5 64.5t-55.5 23.5q-58 0 -105 -81q-10 -3 -19.5 3.5t-10.5 17.5q30 67 82.5 105t117.5 38q73 0 114.5 -38t41.5 -99
q0 -25 -9 -47.5t-29.5 -45.5t-35.5 -37t-44.5 -38.5l-40.5 -33.5q1 -12 21 -12z" />
    <glyph glyph-name="three.oldstyle" unicode="&#xf733;" horiz-adv-x="416" 
d="M237 17q0 80 -43 116q-20 15 -43 15q-27 0 -65 -32q-13 -1 -20 15t-1 33q28 11 42 17.5t38 20.5t36 27t22 33t10 44q0 26 -16 44.5t-42 18.5q-42 0 -85 -68q-12 -3 -21.5 4.5t-9.5 20.5q26 50 70.5 83t105.5 33t98 -31t37 -82q0 -58 -84 -99q-14 -6 -14 -15q0 -6 17 -11
q48 -12 74.5 -47.5t26.5 -82.5q0 -110 -112 -192q-43 -32 -93 -51t-86 -19q-23 0 -35.5 14.5t-12.5 32.5q0 31 24 31q4 0 29.5 -5t43.5 -5q109 0 109 137z" />
    <glyph glyph-name="four.oldstyle" unicode="&#xf734;" horiz-adv-x="522" 
d="M495 13h-80q-17 0 -20 -4.5t-3 -26.5v-159q-6 -9 -63 -9q-49 0 -56 9v159q0 22 -3 26.5t-19 4.5h-223q-13 10 -10 31l61 71q18 20 136 166l127 157q20 4 22 4q18 0 28 -19v-322q0 -21 3 -24.5t20 -3.5h84q11 -8 11 -24q0 -29 -15 -36zM139 73h112q16 0 19 3.5t3 24.5v172
h-2l-144 -182q-5 -6 -1.5 -12t13.5 -6z" />
    </font>
</defs>
</svg>
